<?xml version="1.0" encoding="UTF-8" standalone="no"?><!DOCTYPE svg PUBLIC "-//W3C//DTD SVG 1.1//EN" "http://www.w3.org/Graphics/SVG/1.1/DTD/svg11.dtd"><svg width="100%" height="100%" viewBox="0 0 230 230" version="1.1" xmlns="http://www.w3.org/2000/svg" xmlns:xlink="http://www.w3.org/1999/xlink" xml:space="preserve" xmlns:serif="http://www.serif.com/" style="fill-rule:evenodd;clip-rule:evenodd;stroke-linejoin:round;stroke-miterlimit:2;"><rect x="0" y="0" width="230" height="230" style="fill:#9e9eb0;"/><path d="M124.043,21.938c-6.015,-0.584 -12.071,-0.584 -18.086,0l-2.978,14.501c-5.765,0.883 -11.415,2.396 -16.848,4.515l-9.831,-11.069c-5.5,2.501 -10.746,5.529 -15.662,9.043l4.671,14.047c-4.551,3.647 -8.687,7.783 -12.334,12.334l-14.047,-4.671c-3.514,4.916 -6.542,10.162 -9.043,15.662l11.069,9.831c-2.119,5.433 -3.632,11.083 -4.515,16.848l-14.501,2.978c-0.584,6.015 -0.584,12.071 0,18.086l14.501,2.978c0.883,5.765 2.396,11.415 4.515,16.848l-11.069,9.831c2.501,5.5 5.529,10.746 9.043,15.662l14.047,-4.671c3.647,4.551 7.783,8.687 12.334,12.334l-4.671,14.047c4.916,3.514 10.162,6.542 15.662,9.043l9.831,-11.069c5.433,2.119 11.083,3.632 16.848,4.515l2.978,14.501c6.015,0.584 12.071,0.584 18.086,-0l2.978,-14.501c5.765,-0.883 11.415,-2.396 16.848,-4.515l9.831,11.069c5.5,-2.501 10.746,-5.529 15.662,-9.043l-4.671,-14.047c4.551,-3.647 8.687,-7.783 12.334,-12.334l14.047,4.671c3.514,-4.916 6.542,-10.162 9.043,-15.662l-11.069,-9.831c2.119,-5.433 3.632,-11.083 4.515,-16.848l14.501,-2.978c0.584,-6.015 0.584,-12.071 -0,-18.086l-14.501,-2.978c-0.883,-5.765 -2.396,-11.415 -4.515,-16.848l11.069,-9.831c-2.501,-5.5 -5.529,-10.746 -9.043,-15.662l-14.047,4.671c-3.647,-4.551 -7.783,-8.687 -12.334,-12.334l4.671,-14.047c-4.916,-3.514 -10.162,-6.542 -15.662,-9.043l-9.831,11.069c-5.433,-2.119 -11.083,-3.632 -16.848,-4.515l-2.978,-14.501Zm-9.043,46.567c25.661,0 46.495,20.834 46.495,46.495c-0,25.661 -20.834,46.495 -46.495,46.495c-25.661,-0 -46.495,-20.834 -46.495,-46.495c0,-25.661 20.834,-46.495 46.495,-46.495Z" style="fill:#fff;"/></svg>