<?xml version="1.0" encoding="UTF-8" standalone="no"?><!DOCTYPE svg PUBLIC "-//W3C//DTD SVG 1.1//EN" "http://www.w3.org/Graphics/SVG/1.1/DTD/svg11.dtd"><svg width="100%" height="100%" viewBox="0 0 230 230" version="1.1" xmlns="http://www.w3.org/2000/svg" xmlns:xlink="http://www.w3.org/1999/xlink" xml:space="preserve" xmlns:serif="http://www.serif.com/" style="fill-rule:evenodd;clip-rule:evenodd;stroke-linejoin:round;stroke-miterlimit:2;"><rect x="0" y="0" width="230" height="230" style="fill:#9e9eb0;"/><path d="M169.87,48.536c-1.375,0.477 -2.21,1.256 -2.751,2.537c-1.014,2.412 -0.361,4.12 3.044,7.913c1.579,1.784 2.232,2.688 2.052,2.813c-0.316,0.227 -29.109,0.277 -29.853,0.051c-0.294,-0.101 -0.519,-0.352 -0.519,-0.628c-0,-0.251 -0.09,-0.528 -0.226,-0.603c-0.112,-0.076 -0.225,-0.377 -0.225,-0.653c-0,-0.277 -0.203,-0.98 -0.451,-1.533c-0.248,-0.577 -0.451,-1.18 -0.451,-1.331c0,-0.628 -1.398,-2.411 -2.21,-2.813c-0.451,-0.201 -0.992,-0.478 -1.195,-0.603c-0.203,-0.101 -0.518,-0.151 -0.676,-0.126c-1.443,0.352 -1.827,0.553 -2.548,1.206c-2.052,1.859 -2.029,3.642 0.045,9.621c0.631,1.758 1.037,2.637 1.24,2.637c0.09,0 0.158,0.227 0.158,0.503c0,0.276 0.068,0.502 0.18,0.502c0.091,0 0.294,0.377 0.474,0.804c1.06,2.713 5.524,8.516 9.154,11.882c0.744,0.678 1.511,1.432 1.691,1.633c0.181,0.226 0.857,0.778 1.466,1.256c0.631,0.477 1.173,0.929 1.24,1.004c0.068,0.101 1.128,0.93 2.368,1.834c1.24,0.93 2.367,1.784 2.525,1.934c0.158,0.126 0.383,0.252 0.519,0.252c0.113,-0 0.225,0.1 0.225,0.251c0,0.125 0.158,0.251 0.338,0.251c0.181,-0 0.339,0.1 0.339,0.251c-0,0.126 0.158,0.251 0.338,0.251c0.18,0 0.338,0.101 0.338,0.252c0,0.125 0.09,0.251 0.203,0.251c0.135,-0 1.263,0.778 2.548,1.708c1.285,0.954 2.661,1.934 3.066,2.21c0.384,0.252 0.722,0.553 0.722,0.654c0,0.1 0.135,0.201 0.293,0.201c0.135,-0 0.564,0.276 0.902,0.602l0.631,0.603l-0.676,0.452c-0.383,0.252 -0.699,0.553 -0.699,0.654c-0,0.1 -0.09,0.201 -0.203,0.201c-0.18,-0 -3.224,2.386 -4.419,3.466c-0.113,0.101 -0.587,0.452 -1.015,0.804c-0.428,0.326 -0.834,0.678 -0.902,0.753c-0.068,0.076 -0.473,0.428 -0.902,0.754c-0.428,0.327 -0.834,0.678 -0.902,0.754c-0.067,0.1 -0.563,0.502 -1.127,0.929c-0.564,0.427 -1.263,1.03 -1.556,1.357c-0.293,0.301 -0.992,0.954 -1.556,1.431c-0.586,0.503 -1.533,1.432 -2.119,2.111c-0.587,0.653 -1.15,1.205 -1.263,1.205c-0.203,0 -2.368,2.487 -4.149,4.798c-0.564,0.754 -1.262,1.608 -1.511,1.909c-0.27,0.302 -0.473,0.628 -0.473,0.729c-0,0.1 -0.158,0.402 -0.383,0.653c-0.203,0.251 -0.474,0.678 -0.609,0.929c-0.135,0.252 -0.609,1.08 -1.06,1.809c-0.451,0.754 -1.172,2.135 -1.578,3.115c-0.429,0.954 -0.835,1.783 -0.925,1.834c-0.112,0.05 -0.18,0.301 -0.18,0.577c-0,0.252 -0.09,0.478 -0.226,0.478c-0.112,-0 -0.225,0.276 -0.225,0.602c-0,0.352 -0.09,0.704 -0.226,0.779c-0.112,0.076 -0.225,0.427 -0.225,0.754c-0,0.326 -0.09,0.678 -0.226,0.753c-0.112,0.076 -0.225,0.377 -0.225,0.654c0,0.251 -0.09,0.678 -0.203,0.929c-0.654,1.407 -0.767,2.562 -0.473,5.074c0.157,1.382 0.36,2.588 0.473,2.663c0.113,0.075 0.203,0.402 0.203,0.728c0,0.327 0.113,0.679 0.225,0.754c0.136,0.075 0.226,0.527 0.226,1.005c-0,0.477 0.113,0.929 0.225,1.005c0.136,0.075 0.226,0.351 0.226,0.628c-0,0.251 0.225,0.954 0.473,1.557c0.271,0.578 0.564,1.306 0.654,1.583c0.474,1.431 2.21,4.948 2.526,5.099c0.112,0.05 0.18,0.226 0.18,0.377c0,0.176 0.429,0.904 0.925,1.658c1.037,1.532 1.037,1.582 -0.339,3.366c-1.33,1.758 -3.021,4.245 -3.314,4.898c-0.181,0.377 -0.361,0.729 -0.429,0.804c-0.225,0.251 -0.924,1.633 -1.059,2.085c-0.068,0.226 -0.203,0.427 -0.316,0.427c-0.113,-0 -0.203,0.226 -0.203,0.502c0,0.277 -0.09,0.503 -0.203,0.503c-0.225,-0 -1.398,2.687 -2.21,5.024c-0.293,0.904 -0.654,1.833 -0.766,2.059c-0.384,0.829 -0.226,2.864 0.315,3.995c1.06,2.235 3.36,3.064 5.48,1.959c1.15,-0.603 1.758,-1.532 2.548,-3.869c0.541,-1.557 1.826,-4.672 2.051,-4.898c0.203,-0.226 0.925,-1.633 1.06,-2.06c0.045,-0.226 0.338,-0.477 0.586,-0.552c0.271,-0.076 2.999,-0.151 6.043,-0.151c6.111,-0 5.434,-0.151 8.388,1.733c0.474,0.276 0.992,0.528 1.173,0.528c0.18,-0 0.338,0.1 0.338,0.251c-0,0.125 0.203,0.251 0.451,0.251c0.248,0 0.451,0.101 0.451,0.251c-0,0.126 0.135,0.251 0.27,0.251c0.406,0 5.885,3.115 7.667,4.346c1.623,1.131 2.277,1.733 3.72,3.517c1.24,1.507 2.368,2.135 3.698,2.06c1.285,-0.101 1.916,-0.427 2.751,-1.457c1.33,-1.633 1.601,-3.291 0.811,-4.999c-0.901,-1.959 -2.39,-3.743 -4.825,-5.803c-1.533,-1.281 -4.216,-2.914 -9.47,-5.828c-3.472,-1.934 -6.449,-3.642 -6.607,-3.818c-0.157,-0.176 -0.541,-0.402 -0.856,-0.477c-0.293,-0.075 -0.541,-0.251 -0.541,-0.377c-0,-0.125 -0.136,-0.226 -0.316,-0.226c-0.181,0 -0.361,-0.1 -0.406,-0.201c-0.023,-0.1 -0.699,-0.678 -1.466,-1.281c-0.789,-0.603 -1.42,-1.181 -1.42,-1.281c-0,-0.226 1.736,-2.01 1.962,-2.01c0.09,0 0.586,-0.452 1.082,-1.004c0.496,-0.528 1.014,-0.98 1.15,-1.005c0.135,-0 0.406,-0.176 0.563,-0.427c0.181,-0.226 0.88,-0.854 1.556,-1.407c0.677,-0.578 1.286,-1.105 1.308,-1.231c0.045,-0.1 0.18,-0.201 0.293,-0.201c0.113,0 0.677,-0.402 1.263,-0.904c0.609,-0.477 1.24,-1.03 1.443,-1.181c0.18,-0.176 0.519,-0.427 0.699,-0.552c1.691,-1.231 3.72,-2.789 3.968,-3.04c0.136,-0.176 0.474,-0.402 0.722,-0.477c0.248,-0.076 0.451,-0.251 0.451,-0.377c-0,-0.126 0.203,-0.301 0.451,-0.377c0.248,-0.075 0.586,-0.326 0.766,-0.502c0.158,-0.201 0.609,-0.553 0.97,-0.804c0.383,-0.251 1.466,-1.08 2.435,-1.834c0.947,-0.753 1.984,-1.557 2.278,-1.783c0.293,-0.226 0.834,-0.679 1.172,-1.03c0.361,-0.352 0.767,-0.679 0.902,-0.729c0.564,-0.226 6.584,-6.43 6.584,-6.807c-0,-0.101 0.316,-0.553 0.676,-1.005c0.384,-0.427 0.677,-0.929 0.677,-1.105c-0,-0.176 0.067,-0.352 0.18,-0.402c0.226,-0.101 1.173,-2.186 1.173,-2.613c-0,-0.201 0.09,-0.552 0.203,-0.804c0.383,-0.753 0.699,-2.738 0.699,-4.245c-0,-1.733 -0.406,-3.517 -1.173,-5.225c-0.316,-0.703 -0.676,-1.532 -0.812,-1.884c-0.924,-2.587 -3.427,-7.536 -3.9,-7.737c-0.113,-0.05 -0.203,-0.226 -0.203,-0.376c-0,-0.176 -0.226,-0.603 -0.519,-0.98c-0.27,-0.352 -0.857,-1.156 -1.285,-1.759c-0.429,-0.577 -0.992,-1.331 -1.24,-1.607c-0.248,-0.302 -0.812,-0.955 -1.24,-1.457l-0.767,-0.904l0.767,-0.829c2.593,-2.789 5.411,-6.532 5.411,-7.185c0,-0.125 0.158,-0.351 0.338,-0.527c0.181,-0.176 0.587,-0.93 0.925,-1.734c0.315,-0.778 0.676,-1.607 0.789,-1.833c0.113,-0.251 0.203,-0.653 0.203,-0.905c-0,-0.251 0.09,-0.552 0.203,-0.678c0.496,-0.578 0.924,-8.515 0.496,-8.993c-0.135,-0.15 -0.248,-0.527 -0.248,-0.829c-0,-0.326 -0.09,-0.653 -0.226,-0.728c-0.112,-0.076 -0.225,-0.427 -0.225,-0.754c-0,-0.326 -0.09,-0.678 -0.226,-0.753c-0.112,-0.076 -0.225,-0.377 -0.225,-0.628c-0,-0.277 -0.203,-0.88 -0.451,-1.382c-0.248,-0.502 -0.451,-1.005 -0.451,-1.155c0,-0.428 -2.548,-6.004 -2.751,-6.004c-0.09,-0 -0.18,-0.151 -0.18,-0.327c-0,-0.15 -0.248,-0.628 -0.564,-1.03c-0.316,-0.402 -0.564,-0.803 -0.564,-0.879c0,-0.075 -0.225,-0.427 -0.496,-0.779c-0.293,-0.351 -0.857,-1.08 -1.285,-1.632c-0.406,-0.553 -2.074,-2.512 -3.698,-4.321c-2.3,-2.638 -3.111,-3.391 -3.81,-3.617c-0.496,-0.126 -1.015,-0.302 -1.15,-0.352c-0.158,-0.05 -0.699,0.05 -1.218,0.226Zm7.328,20.749c0.632,1.533 1.173,2.889 1.173,3.04c-0,0.15 0.157,0.653 0.36,1.13c0.722,1.708 1.534,1.608 -13.325,1.608l-13.439,-0l-1.06,-1.055c-1.488,-1.507 -4.78,-5.2 -5.501,-6.205c-0.361,-0.452 -0.564,-0.929 -0.497,-1.055c0.068,-0.125 6.675,-0.226 15.604,-0.226l15.49,0l1.195,2.763Zm1.759,10.651c0.18,0.502 -1.308,3.542 -2.3,4.697l-0.631,0.729l-5.186,-0c-4.826,-0 -5.254,-0.05 -5.773,-0.502c-0.315,-0.277 -0.699,-0.503 -0.834,-0.503c-0.158,0 -0.293,-0.1 -0.293,-0.201c-0,-0.125 -0.271,-0.377 -0.609,-0.578c-0.361,-0.201 -0.834,-0.552 -1.06,-0.803c-0.248,-0.226 -0.563,-0.427 -0.699,-0.427c-0.157,-0 -0.451,-0.227 -0.676,-0.503c-0.226,-0.276 -0.474,-0.502 -0.586,-0.502c-0.361,-0 -1.984,-1.332 -1.872,-1.558c0.068,-0.1 4.69,-0.201 10.26,-0.201c8.5,0 10.169,0.051 10.259,0.352Zm-6.268,23.035c0.383,0.402 0.721,0.854 0.721,1.005c0,0.125 -0.857,0.226 -1.916,0.226c-1.06,-0 -1.917,-0.075 -1.917,-0.151c-0,-0.226 0.631,-0.854 0.857,-0.854c0.113,0 0.383,-0.226 0.609,-0.502c0.541,-0.679 0.766,-0.628 1.646,0.276Zm5.141,7.059c0.338,0.603 0.879,1.633 1.172,2.336c0.293,0.678 0.631,1.457 0.744,1.683c0.586,1.256 1.082,1.206 -11.635,1.206c-7.734,-0 -11.837,-0.076 -11.837,-0.252c-0,-0.15 0.067,-0.251 0.18,-0.251c0.09,0 0.474,-0.301 0.834,-0.703c0.384,-0.377 1.443,-1.331 2.368,-2.11c0.947,-0.804 1.916,-1.633 2.164,-1.884c1.06,-1.03 1.128,-1.055 8.343,-1.055l7.013,-0.025l0.654,1.055Zm3.021,10.249c-0,0.125 -0.09,0.251 -0.203,0.251c-0.113,-0 -0.316,0.352 -0.474,0.753c-0.315,0.829 -4.509,5.401 -5.343,5.853c-0.293,0.151 -0.519,0.352 -0.519,0.478c0,0.1 -6.336,0.201 -14.092,0.201c-9.854,-0 -14.093,-0.076 -14.093,-0.277c0,-0.552 2.48,-4.295 4.104,-6.204l1.127,-1.307l14.747,0c9.673,0 14.746,0.076 14.746,0.252Zm-13.078,12.56c0,0.125 -0.158,0.251 -0.338,0.251c-0.18,-0 -0.338,0.1 -0.338,0.251c-0,0.126 -0.136,0.251 -0.293,0.251c-0.158,0 -0.519,0.226 -0.79,0.503c-0.27,0.276 -0.563,0.502 -0.676,0.502c-0.09,-0 -0.383,0.201 -0.631,0.452c-0.226,0.251 -1.443,1.231 -2.684,2.186c-1.24,0.954 -2.3,1.783 -2.367,1.858c-0.564,0.704 -1.353,0.779 -8.456,0.779l-7.328,0l-0.338,-0.904c-0.18,-0.503 -0.338,-1.131 -0.338,-1.382c-0,-0.276 -0.135,-0.703 -0.271,-0.979c-0.225,-0.402 -0.225,-0.603 0,-1.005c0.136,-0.277 0.271,-0.779 0.271,-1.105c-0,-0.352 0.113,-0.704 0.225,-0.779c0.136,-0.076 0.226,-0.377 0.226,-0.653c-0,-0.478 0.27,-0.478 12.063,-0.478c7.892,0 12.063,0.076 12.063,0.252Zm-15.581,12.384c-0.315,0.301 -0.901,0.829 -1.33,1.18c-0.428,0.352 -1.217,1.131 -1.759,1.734l-0.992,1.105l-0.541,-0.653c-0.293,-0.352 -0.541,-0.729 -0.541,-0.779c-0,-0.075 -0.293,-0.703 -0.676,-1.356c-0.361,-0.679 -0.677,-1.357 -0.677,-1.533c0,-0.201 1.037,-0.276 3.563,-0.276l3.54,0.025l-0.587,0.553Zm-3.54,18.111c0.519,0.427 0.294,0.653 -0.608,0.653c-0.857,0 -1.105,-0.201 -0.767,-0.678c0.316,-0.402 0.879,-0.402 1.375,0.025Z" style="fill:#fff;fill-rule:nonzero;stroke:#fff;stroke-width:2.71px;"/><path d="M73.41,47.493c-3.495,0.302 -7.216,0.729 -8.681,1.005c-0.677,0.126 -1.691,0.302 -2.255,0.377c-1.623,0.251 -6.088,1.356 -8.455,2.11c-0.497,0.151 -1.173,0.352 -1.534,0.427c-0.338,0.075 -0.676,0.226 -0.744,0.352c-0.067,0.125 -0.315,0.226 -0.563,0.226c-0.226,-0 -0.609,0.1 -0.835,0.226c-0.203,0.125 -0.631,0.326 -0.947,0.477c-1.353,0.603 -3.81,1.985 -4.735,2.663c-1.353,1.005 -3.382,3.14 -3.382,3.567c-0,0.201 -0.09,0.352 -0.226,0.352c-0.112,-0 -0.225,0.226 -0.225,0.477c-0,0.276 -0.09,0.578 -0.225,0.653c-0.429,0.301 -0.271,3.065 0.248,4.044c1.149,2.311 4.261,4.748 8.545,6.682c0.316,0.151 0.744,0.352 0.947,0.477c0.226,0.126 0.609,0.226 0.835,0.226c0.248,0 0.518,0.101 0.586,0.252c0.067,0.125 0.383,0.251 0.676,0.251c0.293,-0 0.609,0.1 0.677,0.251c0.067,0.126 0.428,0.251 0.789,0.251c0.361,0 0.721,0.101 0.789,0.251c0.068,0.126 0.474,0.252 0.902,0.252c0.428,-0 0.812,0.1 0.879,0.226c0.068,0.125 0.519,0.276 0.97,0.326c0.473,0.076 1.623,0.327 2.548,0.553c10.868,2.713 30.44,2.713 41.578,-0c0.88,-0.201 1.962,-0.452 2.39,-0.528c0.429,-0.075 0.88,-0.226 1.015,-0.351c0.113,-0.126 0.541,-0.226 0.924,-0.226c0.406,-0 0.812,-0.126 0.88,-0.252c0.067,-0.15 0.428,-0.251 0.789,-0.251c0.361,0 0.722,-0.125 0.789,-0.251c0.068,-0.151 0.384,-0.251 0.677,-0.251c0.293,-0 0.608,-0.126 0.676,-0.251c0.068,-0.151 0.338,-0.252 0.586,-0.252c0.226,0 0.609,-0.1 0.835,-0.226c0.405,-0.226 1.398,-0.703 2.254,-1.055c2.977,-1.281 6.179,-3.994 7.261,-6.129c0.969,-1.934 0.406,-4.873 -1.353,-6.883c-1.398,-1.582 -4.374,-3.592 -7.215,-4.848c-0.316,-0.151 -0.744,-0.352 -0.947,-0.477c-0.226,-0.126 -0.609,-0.226 -0.835,-0.226c-0.248,-0 -0.518,-0.126 -0.586,-0.251c-0.068,-0.151 -0.383,-0.252 -0.676,-0.252c-0.293,0 -0.609,-0.125 -0.677,-0.251c-0.067,-0.151 -0.361,-0.251 -0.609,-0.251c-0.27,-0 -0.789,-0.101 -1.172,-0.226c-1.218,-0.427 -4.149,-1.206 -5.096,-1.382c-0.316,-0.05 -0.812,-0.176 -1.127,-0.251c-0.316,-0.075 -0.97,-0.201 -1.466,-0.276c-0.496,-0.076 -1.466,-0.226 -2.142,-0.377c-5.75,-1.08 -16.753,-1.532 -23.337,-0.98Z" style="fill:#fff;fill-rule:nonzero;stroke:#fff;stroke-width:2.71px;"/><path d="M40.377,87.306l0.023,12.007l0.518,1.13c0.654,1.483 2.819,3.417 5.434,4.874c1.105,0.653 2.142,1.155 2.3,1.155c0.158,0 0.631,0.226 1.082,0.503c0.451,0.276 0.993,0.502 1.241,0.502c0.225,0 0.496,0.101 0.563,0.251c0.068,0.126 0.384,0.251 0.677,0.251c0.293,0 0.609,0.101 0.676,0.252c0.068,0.125 0.406,0.251 0.722,0.251c0.338,-0 0.902,0.1 1.285,0.226c0.699,0.226 1.804,0.553 3.472,1.005c3.27,0.879 9.2,1.758 14.589,2.185c5.998,0.452 16.978,0.151 22.21,-0.628c4.374,-0.653 6.944,-1.155 9.019,-1.758c0.428,-0.126 1.037,-0.302 1.353,-0.402c1.285,-0.352 2.39,-0.703 2.818,-0.879c0.248,-0.101 1.218,-0.452 2.142,-0.754c0.925,-0.326 1.849,-0.678 2.03,-0.779c0.18,-0.1 0.856,-0.427 1.465,-0.728c1.984,-0.98 2.548,-1.331 4.059,-2.537c1.578,-1.281 1.961,-1.708 2.548,-2.889c0.496,-1.055 0.496,-1.08 0.496,-13.012c-0,-12.711 0.022,-12.56 -1.037,-11.53c-0.226,0.251 -0.722,0.628 -1.105,0.829c-0.361,0.201 -0.925,0.527 -1.24,0.753c-0.947,0.679 -4.262,2.186 -6.652,3.04c-1.24,0.427 -2.458,0.879 -2.706,1.005c-0.248,0.1 -0.744,0.251 -1.127,0.326c-0.361,0.05 -1.128,0.251 -1.691,0.402c-2.751,0.779 -8.501,1.809 -11.951,2.16c-0.924,0.076 -1.894,0.201 -2.142,0.252c-1.285,0.301 -13.732,0.452 -18.151,0.226c-4.171,-0.201 -11.229,-1.206 -15.22,-2.161c-0.609,-0.15 -1.511,-0.326 -1.984,-0.401c-0.451,-0.076 -0.902,-0.227 -0.97,-0.352c-0.067,-0.126 -0.451,-0.226 -0.879,-0.226c-0.428,-0 -0.834,-0.126 -0.902,-0.251c-0.068,-0.151 -0.473,-0.252 -0.902,-0.252c-0.428,0 -0.834,-0.125 -0.902,-0.251c-0.067,-0.151 -0.383,-0.251 -0.676,-0.251c-0.293,-0 -0.609,-0.126 -0.677,-0.251c-0.067,-0.151 -0.315,-0.251 -0.563,-0.251c-0.226,-0 -0.789,-0.227 -1.286,-0.478c-0.473,-0.276 -1.465,-0.753 -2.209,-1.055c-0.744,-0.326 -1.511,-0.703 -1.691,-0.854c-0.181,-0.151 -0.632,-0.427 -1.015,-0.628c-0.361,-0.201 -1.15,-0.728 -1.759,-1.18c-0.586,-0.453 -1.105,-0.829 -1.172,-0.829c-0.068,-0 -0.113,5.4 -0.113,11.982Z" style="fill:#fff;fill-rule:nonzero;stroke:#fff;stroke-width:2.71px;"/><path d="M40.377,123.074l0.023,11.882l0.518,1.13c0.654,1.482 2.819,3.416 5.434,4.873c1.105,0.653 2.142,1.156 2.3,1.156c0.158,-0 0.631,0.226 1.082,0.502c0.451,0.277 0.993,0.503 1.241,0.503c0.225,-0 0.496,0.1 0.563,0.251c0.068,0.125 0.384,0.251 0.677,0.251c0.293,0 0.609,0.101 0.676,0.251c0.068,0.126 0.406,0.251 0.722,0.251c0.338,0 0.902,0.101 1.285,0.227c0.676,0.226 1.601,0.502 3.472,1.004c0.451,0.126 1.488,0.352 2.3,0.528c0.812,0.151 1.669,0.301 1.917,0.352c9.087,1.808 24.577,2.034 33.596,0.502c4.645,-0.779 6.697,-1.181 8.005,-1.583c0.428,-0.125 1.443,-0.427 2.255,-0.653c0.811,-0.226 1.668,-0.502 1.916,-0.603c0.248,-0.1 1.218,-0.477 2.142,-0.778c0.925,-0.327 1.849,-0.679 2.03,-0.779c0.18,-0.101 0.856,-0.427 1.465,-0.729c3.427,-1.683 5.66,-3.541 6.584,-5.451c0.519,-1.029 0.519,-1.055 0.519,-12.987c-0,-7.812 -0.068,-11.957 -0.226,-11.957c-0.112,0 -0.225,0.101 -0.225,0.252c-0,0.125 -0.135,0.251 -0.316,0.251c-0.158,-0 -0.428,0.151 -0.564,0.351c-0.157,0.201 -0.653,0.578 -1.104,0.855c-0.451,0.276 -1.421,0.829 -2.142,1.281c-0.699,0.427 -1.398,0.778 -1.534,0.778c-0.112,0 -0.654,0.226 -1.15,0.503c-0.518,0.276 -1.127,0.502 -1.33,0.502c-0.225,0 -0.473,0.101 -0.541,0.251c-0.068,0.126 -0.383,0.252 -0.677,0.252c-0.293,-0 -0.608,0.1 -0.676,0.251c-0.068,0.125 -0.383,0.251 -0.676,0.251c-0.294,-0 -0.587,0.1 -0.654,0.226c-0.068,0.126 -0.519,0.276 -0.97,0.352c-0.473,0.075 -1.308,0.276 -1.871,0.427c-0.564,0.15 -1.398,0.351 -1.872,0.427c-0.451,0.075 -0.902,0.226 -0.969,0.351c-0.068,0.126 -0.406,0.227 -0.767,0.227c-0.361,-0 -1.127,0.1 -1.736,0.251c-1.849,0.402 -7.351,1.231 -9.087,1.381c-3.202,0.252 -8.501,0.503 -11.161,0.503c-2.841,-0 -10.124,-0.327 -11.5,-0.503c-7.486,-1.03 -10.642,-1.607 -14.318,-2.637c-0.563,-0.151 -1.353,-0.352 -1.759,-0.427c-0.405,-0.076 -0.789,-0.226 -0.856,-0.352c-0.068,-0.126 -0.406,-0.226 -0.79,-0.226c-0.36,-0 -0.653,-0.126 -0.653,-0.251c-0,-0.151 -0.294,-0.251 -0.654,-0.251c-0.384,-0 -0.744,-0.126 -0.812,-0.252c-0.068,-0.15 -0.316,-0.251 -0.541,-0.251c-0.203,0 -0.925,-0.276 -1.556,-0.628c-0.654,-0.351 -1.24,-0.628 -1.353,-0.628c-0.158,0 -2.097,-1.08 -3.202,-1.783c-0.293,-0.201 -0.744,-0.553 -0.992,-0.804c-0.248,-0.226 -0.586,-0.427 -0.744,-0.427c-0.158,-0 -0.293,-0.126 -0.293,-0.251c-0,-0.151 -0.09,-0.252 -0.225,-0.252c-0.158,0 -0.226,4.12 -0.226,11.857Z" style="fill:#fff;fill-rule:nonzero;stroke:#fff;stroke-width:2.71px;"/><path d="M40.377,158.666c0,8.843 0.068,11.957 0.271,12.485c0.924,2.311 4.284,4.974 8.59,6.833c0.835,0.351 1.827,0.829 2.233,1.055c0.225,0.125 0.699,0.226 1.059,0.226c0.384,-0 0.722,0.1 0.79,0.226c0.067,0.125 0.405,0.276 0.744,0.351c0.36,0.076 1.037,0.252 1.533,0.402c1.826,0.503 6.336,1.533 7.328,1.683c0.564,0.076 1.173,0.176 1.353,0.226c0.969,0.302 7.035,0.905 11.522,1.131c9.042,0.502 21.082,-0.503 27.057,-2.261c0.451,-0.151 1.083,-0.251 1.398,-0.251c0.316,-0 0.654,-0.126 0.722,-0.251c0.068,-0.151 0.428,-0.252 0.812,-0.252c0.36,0 0.834,-0.1 1.059,-0.226c0.203,-0.125 0.835,-0.376 1.398,-0.527c1.804,-0.553 2.593,-0.854 2.796,-1.055c0.136,-0.101 0.406,-0.201 0.609,-0.201c0.203,-0 0.767,-0.201 1.263,-0.477c0.473,-0.252 1.511,-0.829 2.322,-1.256c1.669,-0.905 4.465,-3.165 4.826,-3.919c0.135,-0.276 0.315,-0.553 0.383,-0.628c0.609,-0.553 0.654,-1.683 0.654,-13.163c-0,-7.812 -0.068,-11.957 -0.226,-11.957c-0.112,0 -0.225,0.1 -0.225,0.251c-0,0.126 -0.135,0.251 -0.293,0.251c-0.158,0 -0.496,0.201 -0.744,0.453c-0.654,0.678 -5.953,3.516 -6.968,3.742c-0.248,0.051 -0.541,0.201 -0.654,0.327c-0.135,0.151 -0.405,0.251 -0.631,0.251c-0.225,0 -0.586,0.101 -0.812,0.226c-0.36,0.201 -0.902,0.377 -3.247,1.055c-0.541,0.151 -1.285,0.377 -1.668,0.503c-0.383,0.125 -0.902,0.226 -1.173,0.226c-0.27,-0 -0.676,0.1 -0.902,0.226c-0.202,0.125 -1.24,0.352 -2.299,0.502c-1.06,0.176 -2.413,0.402 -3.044,0.528c-0.97,0.201 -3.247,0.502 -6.539,0.879c-1.804,0.201 -8.185,0.502 -10.711,0.502c-8.23,0 -18.106,-1.105 -23.9,-2.662c-0.564,-0.151 -1.398,-0.327 -1.872,-0.402c-0.451,-0.076 -0.902,-0.226 -0.97,-0.352c-0.067,-0.126 -0.45,-0.226 -0.879,-0.226c-0.428,-0 -0.834,-0.126 -0.902,-0.251c-0.067,-0.151 -0.383,-0.251 -0.676,-0.251c-0.293,-0 -0.609,-0.126 -0.677,-0.252c-0.067,-0.15 -0.383,-0.251 -0.676,-0.251c-0.293,0 -0.609,-0.125 -0.677,-0.251c-0.067,-0.151 -0.338,-0.251 -0.586,-0.251c-0.225,-0 -0.609,-0.101 -0.834,-0.226c-0.203,-0.126 -1.195,-0.603 -2.187,-1.055c-0.992,-0.452 -1.962,-0.955 -2.142,-1.106c-0.181,-0.15 -0.632,-0.427 -1.015,-0.628c-0.361,-0.201 -0.721,-0.427 -0.789,-0.502c-0.203,-0.276 -1.533,-1.256 -1.669,-1.256c-0.067,0 -0.135,5.3 -0.135,11.806Z" style="fill:#fff;fill-rule:nonzero;stroke:#fff;stroke-width:2.71px;"/></svg>