<?xml version="1.0" encoding="UTF-8" standalone="no"?><!DOCTYPE svg PUBLIC "-//W3C//DTD SVG 1.1//EN" "http://www.w3.org/Graphics/SVG/1.1/DTD/svg11.dtd"><svg width="100%" height="100%" viewBox="0 0 230 230" version="1.1" xmlns="http://www.w3.org/2000/svg" xmlns:xlink="http://www.w3.org/1999/xlink" xml:space="preserve" xmlns:serif="http://www.serif.com/" style="fill-rule:evenodd;clip-rule:evenodd;stroke-linejoin:round;stroke-miterlimit:2;"><rect x="0" y="0" width="230" height="230" style="fill:#9e9eb0;"/><path d="M176.129,48.536c-1.533,0.477 -2.462,1.256 -3.065,2.537c-1.13,2.412 -0.402,4.12 3.391,7.913c1.759,1.784 2.487,2.688 2.286,2.813c-0.351,0.227 -32.43,0.277 -33.258,0.051c-0.327,-0.101 -0.578,-0.352 -0.578,-0.628c-0,-0.251 -0.101,-0.528 -0.251,-0.603c-0.126,-0.076 -0.252,-0.377 -0.252,-0.653c0,-0.277 -0.226,-0.98 -0.502,-1.533c-0.276,-0.577 -0.502,-1.18 -0.502,-1.331c-0,-0.628 -1.558,-2.411 -2.462,-2.813c-0.503,-0.201 -1.105,-0.478 -1.332,-0.603c-0.226,-0.101 -0.577,-0.151 -0.753,-0.126c-1.608,0.352 -2.035,0.553 -2.839,1.206c-2.286,1.859 -2.26,3.642 0.051,9.621c0.703,1.758 1.155,2.637 1.381,2.637c0.101,0 0.176,0.227 0.176,0.503c-0,0.276 0.075,0.502 0.201,0.502c0.1,0 0.327,0.377 0.527,0.804c1.181,2.713 6.155,8.516 10.199,11.882c0.829,0.678 1.683,1.432 1.884,1.633c0.201,0.226 0.955,0.778 1.633,1.256c0.703,0.477 1.306,0.929 1.382,1.004c0.075,0.101 1.256,0.93 2.637,1.834c1.382,0.93 2.638,1.784 2.814,1.934c0.175,0.126 0.427,0.252 0.577,0.252c0.126,-0 0.252,0.1 0.252,0.251c-0,0.125 0.175,0.251 0.376,0.251c0.201,-0 0.377,0.1 0.377,0.251c0,0.126 0.176,0.251 0.377,0.251c0.201,0 0.377,0.101 0.377,0.252c-0,0.125 0.1,0.251 0.226,0.251c0.151,-0 1.406,0.778 2.838,1.708c1.432,0.954 2.964,1.934 3.417,2.21c0.427,0.252 0.803,0.553 0.803,0.654c0,0.1 0.151,0.201 0.327,0.201c0.151,-0 0.628,0.276 1.005,0.602l0.703,0.603l-0.753,0.452c-0.427,0.252 -0.779,0.553 -0.779,0.654c-0,0.1 -0.101,0.201 -0.226,0.201c-0.201,-0 -3.592,2.386 -4.924,3.466c-0.125,0.101 -0.653,0.452 -1.13,0.804c-0.477,0.326 -0.93,0.678 -1.005,0.753c-0.075,0.076 -0.527,0.428 -1.005,0.754c-0.477,0.327 -0.929,0.678 -1.004,0.754c-0.076,0.1 -0.628,0.502 -1.256,0.929c-0.628,0.427 -1.407,1.03 -1.734,1.357c-0.326,0.301 -1.105,0.954 -1.733,1.431c-0.653,0.503 -1.708,1.432 -2.361,2.111c-0.653,0.653 -1.281,1.205 -1.407,1.205c-0.226,0 -2.638,2.487 -4.622,4.798c-0.628,0.754 -1.407,1.608 -1.683,1.909c-0.302,0.302 -0.528,0.628 -0.528,0.729c0,0.1 -0.175,0.402 -0.427,0.653c-0.226,0.251 -0.527,0.678 -0.678,0.929c-0.151,0.252 -0.678,1.08 -1.181,1.809c-0.502,0.754 -1.306,2.135 -1.758,3.115c-0.477,0.954 -0.929,1.783 -1.03,1.834c-0.125,0.05 -0.201,0.301 -0.201,0.577c0,0.252 -0.1,0.478 -0.251,0.478c-0.126,-0 -0.251,0.276 -0.251,0.602c-0,0.352 -0.101,0.704 -0.251,0.779c-0.126,0.076 -0.252,0.427 -0.252,0.754c0,0.326 -0.1,0.678 -0.251,0.753c-0.125,0.076 -0.251,0.377 -0.251,0.654c-0,0.251 -0.1,0.678 -0.226,0.929c-0.729,1.407 -0.854,2.562 -0.528,5.074c0.176,1.382 0.402,2.588 0.528,2.663c0.126,0.075 0.226,0.402 0.226,0.728c-0,0.327 0.126,0.679 0.251,0.754c0.151,0.075 0.251,0.527 0.251,1.005c0,0.477 0.126,0.929 0.252,1.005c0.15,0.075 0.251,0.351 0.251,0.628c-0,0.251 0.251,0.954 0.527,1.557c0.302,0.578 0.628,1.306 0.729,1.583c0.527,1.431 2.462,4.948 2.813,5.099c0.126,0.05 0.201,0.226 0.201,0.377c0,0.176 0.477,0.904 1.03,1.658c1.156,1.532 1.156,1.582 -0.377,3.366c-1.482,1.758 -3.366,4.245 -3.692,4.898c-0.201,0.377 -0.402,0.729 -0.478,0.804c-0.251,0.251 -1.03,1.633 -1.18,2.085c-0.076,0.226 -0.226,0.427 -0.352,0.427c-0.126,-0 -0.226,0.226 -0.226,0.502c-0,0.277 -0.1,0.503 -0.226,0.503c-0.251,-0 -1.558,2.687 -2.462,5.024c-0.326,0.904 -0.728,1.833 -0.854,2.059c-0.427,0.829 -0.251,2.864 0.352,3.995c1.18,2.235 3.743,3.064 6.104,1.959c1.281,-0.603 1.959,-1.532 2.838,-3.869c0.603,-1.557 2.035,-4.672 2.286,-4.898c0.226,-0.226 1.03,-1.633 1.181,-2.06c0.05,-0.226 0.377,-0.477 0.653,-0.552c0.302,-0.076 3.341,-0.151 6.732,-0.151c6.808,-0 6.054,-0.151 9.345,1.733c0.527,0.276 1.105,0.528 1.306,0.528c0.201,-0 0.377,0.1 0.377,0.251c-0,0.125 0.226,0.251 0.502,0.251c0.277,0 0.503,0.101 0.503,0.251c-0,0.126 0.15,0.251 0.301,0.251c0.452,0 6.556,3.115 8.541,4.346c1.809,1.131 2.537,1.733 4.145,3.517c1.381,1.507 2.637,2.135 4.119,2.06c1.432,-0.101 2.136,-0.427 3.065,-1.457c1.482,-1.633 1.783,-3.291 0.904,-4.999c-1.005,-1.959 -2.662,-3.743 -5.375,-5.803c-1.709,-1.281 -4.698,-2.914 -10.551,-5.828c-3.868,-1.934 -7.184,-3.642 -7.36,-3.818c-0.176,-0.176 -0.603,-0.402 -0.954,-0.477c-0.327,-0.075 -0.603,-0.251 -0.603,-0.377c-0,-0.125 -0.151,-0.226 -0.352,-0.226c-0.201,0 -0.402,-0.1 -0.452,-0.201c-0.025,-0.1 -0.779,-0.678 -1.633,-1.281c-0.879,-0.603 -1.582,-1.181 -1.582,-1.281c-0,-0.226 1.934,-2.01 2.185,-2.01c0.1,0 0.653,-0.452 1.206,-1.004c0.552,-0.528 1.13,-0.98 1.281,-1.005c0.151,-0 0.452,-0.176 0.628,-0.427c0.201,-0.226 0.979,-0.854 1.733,-1.407c0.754,-0.578 1.432,-1.105 1.457,-1.231c0.05,-0.1 0.201,-0.201 0.327,-0.201c0.125,0 0.753,-0.402 1.406,-0.904c0.679,-0.477 1.382,-1.03 1.608,-1.181c0.201,-0.176 0.578,-0.427 0.779,-0.552c1.884,-1.231 4.144,-2.789 4.421,-3.04c0.151,-0.176 0.527,-0.402 0.804,-0.477c0.276,-0.076 0.502,-0.251 0.502,-0.377c0,-0.126 0.226,-0.301 0.502,-0.377c0.277,-0.075 0.654,-0.326 0.855,-0.502c0.175,-0.201 0.678,-0.553 1.08,-0.804c0.427,-0.251 1.632,-1.08 2.713,-1.834c1.055,-0.753 2.21,-1.557 2.537,-1.783c0.326,-0.226 0.929,-0.679 1.306,-1.03c0.402,-0.352 0.854,-0.679 1.005,-0.729c0.628,-0.226 7.335,-6.43 7.335,-6.807c-0,-0.101 0.351,-0.553 0.753,-1.005c0.427,-0.427 0.754,-0.929 0.754,-1.105c-0,-0.176 0.075,-0.352 0.201,-0.402c0.251,-0.101 1.306,-2.186 1.306,-2.613c0,-0.201 0.101,-0.552 0.226,-0.804c0.427,-0.753 0.779,-2.738 0.779,-4.245c-0,-1.733 -0.452,-3.517 -1.306,-5.225c-0.352,-0.703 -0.754,-1.532 -0.905,-1.884c-1.029,-2.587 -3.818,-7.536 -4.345,-7.737c-0.126,-0.05 -0.226,-0.226 -0.226,-0.376c-0,-0.176 -0.252,-0.603 -0.578,-0.98c-0.302,-0.352 -0.955,-1.156 -1.432,-1.759c-0.477,-0.577 -1.105,-1.331 -1.382,-1.607c-0.276,-0.302 -0.904,-0.955 -1.381,-1.457l-0.854,-0.904l0.854,-0.829c2.889,-2.789 6.029,-6.532 6.029,-7.185c-0,-0.125 0.175,-0.351 0.376,-0.527c0.201,-0.176 0.654,-0.93 1.03,-1.734c0.352,-0.778 0.754,-1.607 0.88,-1.833c0.125,-0.251 0.226,-0.653 0.226,-0.905c-0,-0.251 0.1,-0.552 0.226,-0.678c0.552,-0.578 1.03,-8.515 0.552,-8.993c-0.15,-0.15 -0.276,-0.527 -0.276,-0.829c-0,-0.326 -0.101,-0.653 -0.251,-0.728c-0.126,-0.076 -0.251,-0.427 -0.251,-0.754c-0,-0.326 -0.101,-0.678 -0.252,-0.753c-0.125,-0.076 -0.251,-0.377 -0.251,-0.628c0,-0.277 -0.226,-0.88 -0.502,-1.382c-0.277,-0.502 -0.503,-1.005 -0.503,-1.155c0,-0.428 -2.838,-6.004 -3.064,-6.004c-0.101,-0 -0.201,-0.151 -0.201,-0.327c-0,-0.15 -0.277,-0.628 -0.628,-1.03c-0.352,-0.402 -0.628,-0.803 -0.628,-0.879c-0,-0.075 -0.251,-0.427 -0.553,-0.779c-0.326,-0.351 -0.954,-1.08 -1.432,-1.632c-0.452,-0.553 -2.311,-2.512 -4.119,-4.321c-2.563,-2.638 -3.467,-3.391 -4.246,-3.617c-0.552,-0.126 -1.13,-0.302 -1.281,-0.352c-0.176,-0.05 -0.778,0.05 -1.356,0.226Zm8.164,20.749c0.703,1.533 1.306,2.889 1.306,3.04c0,0.15 0.176,0.653 0.402,1.13c0.804,1.708 1.708,1.608 -14.846,1.608l-14.971,-0l-1.181,-1.055c-1.658,-1.507 -5.325,-5.2 -6.129,-6.205c-0.402,-0.452 -0.628,-0.929 -0.553,-1.055c0.075,-0.125 7.436,-0.226 17.383,-0.226l17.257,0l1.332,2.763Zm1.959,10.651c0.201,0.502 -1.457,3.542 -2.562,4.697l-0.703,0.729l-5.778,-0c-5.376,-0 -5.853,-0.05 -6.431,-0.502c-0.351,-0.277 -0.778,-0.503 -0.929,-0.503c-0.176,0 -0.327,-0.1 -0.327,-0.201c0,-0.125 -0.301,-0.377 -0.678,-0.578c-0.402,-0.201 -0.929,-0.552 -1.181,-0.803c-0.276,-0.226 -0.628,-0.427 -0.778,-0.427c-0.176,-0 -0.503,-0.227 -0.754,-0.503c-0.251,-0.276 -0.527,-0.502 -0.653,-0.502c-0.402,-0 -2.211,-1.332 -2.085,-1.558c0.075,-0.1 5.225,-0.201 11.43,-0.201c9.47,0 11.329,0.051 11.429,0.352Zm-6.983,23.035c0.427,0.402 0.804,0.854 0.804,1.005c-0,0.125 -0.955,0.226 -2.136,0.226c-1.18,-0 -2.135,-0.075 -2.135,-0.151c0,-0.226 0.704,-0.854 0.955,-0.854c0.125,0 0.427,-0.226 0.678,-0.502c0.603,-0.679 0.854,-0.628 1.834,0.276Zm5.727,7.059c0.377,0.603 0.98,1.633 1.306,2.336c0.327,0.678 0.704,1.457 0.829,1.683c0.653,1.256 1.206,1.206 -12.962,1.206c-8.616,-0 -13.187,-0.076 -13.187,-0.252c-0,-0.15 0.075,-0.251 0.2,-0.251c0.101,0 0.528,-0.301 0.93,-0.703c0.427,-0.377 1.608,-1.331 2.637,-2.11c1.056,-0.804 2.136,-1.633 2.412,-1.884c1.181,-1.03 1.256,-1.055 9.294,-1.055l7.813,-0.025l0.728,1.055Zm3.366,10.249c0,0.125 -0.1,0.251 -0.226,0.251c-0.125,-0 -0.352,0.352 -0.527,0.753c-0.352,0.829 -5.024,5.401 -5.954,5.853c-0.326,0.151 -0.578,0.352 -0.578,0.478c0,0.1 -7.058,0.201 -15.7,0.201c-10.977,-0 -15.699,-0.076 -15.699,-0.277c-0,-0.552 2.763,-4.295 4.571,-6.204l1.256,-1.307l16.429,0c10.776,0 16.428,0.076 16.428,0.252Zm-14.569,12.56c-0,0.125 -0.176,0.251 -0.377,0.251c-0.201,-0 -0.377,0.1 -0.377,0.251c0,0.126 -0.151,0.251 -0.326,0.251c-0.176,0 -0.578,0.226 -0.88,0.503c-0.301,0.276 -0.628,0.502 -0.753,0.502c-0.101,-0 -0.427,0.201 -0.704,0.452c-0.251,0.251 -1.607,1.231 -2.989,2.186c-1.382,0.954 -2.562,1.783 -2.638,1.858c-0.628,0.704 -1.507,0.779 -9.419,0.779l-8.164,0l-0.377,-0.904c-0.201,-0.503 -0.377,-1.131 -0.377,-1.382c-0,-0.276 -0.151,-0.703 -0.301,-0.979c-0.252,-0.402 -0.252,-0.603 -0,-1.005c0.15,-0.277 0.301,-0.779 0.301,-1.105c-0,-0.352 0.126,-0.704 0.251,-0.779c0.151,-0.076 0.251,-0.377 0.251,-0.653c0,-0.478 0.302,-0.478 13.44,-0.478c8.791,0 13.439,0.076 13.439,0.252Zm-17.358,12.384c-0.352,0.301 -1.005,0.829 -1.482,1.18c-0.478,0.352 -1.357,1.131 -1.96,1.734l-1.105,1.105l-0.603,-0.653c-0.326,-0.352 -0.603,-0.729 -0.603,-0.779c0,-0.075 -0.326,-0.703 -0.753,-1.356c-0.402,-0.679 -0.754,-1.357 -0.754,-1.533c0,-0.201 1.156,-0.276 3.969,-0.276l3.944,0.025l-0.653,0.553Zm-3.944,18.111c0.578,0.427 0.327,0.653 -0.678,0.653c-0.955,0 -1.231,-0.201 -0.854,-0.678c0.351,-0.402 0.979,-0.402 1.532,0.025Z" style="fill:#fff;fill-rule:nonzero;"/><path d="M68.666,51.493c-3.894,0.302 -8.039,0.729 -9.671,1.005c-0.754,0.126 -1.884,0.302 -2.512,0.377c-1.809,0.251 -6.783,1.356 -9.42,2.11c-0.553,0.151 -1.307,0.352 -1.708,0.427c-0.377,0.075 -0.754,0.226 -0.829,0.352c-0.076,0.125 -0.352,0.226 -0.628,0.226c-0.252,-0 -0.679,0.1 -0.93,0.226c-0.226,0.125 -0.703,0.326 -1.055,0.477c-1.507,0.603 -4.245,1.985 -5.275,2.663c-1.507,1.005 -3.768,3.14 -3.768,3.567c-0,0.201 -0.101,0.352 -0.251,0.352c-0.126,-0 -0.251,0.226 -0.251,0.477c-0,0.276 -0.101,0.578 -0.252,0.653c-0.477,0.301 -0.301,3.065 0.277,4.044c1.281,2.311 4.747,4.748 9.52,6.682c0.352,0.151 0.829,0.352 1.055,0.477c0.251,0.126 0.678,0.226 0.93,0.226c0.276,0 0.577,0.101 0.653,0.252c0.075,0.125 0.427,0.251 0.753,0.251c0.327,-0 0.679,0.1 0.754,0.251c0.075,0.126 0.477,0.251 0.879,0.251c0.402,0 0.804,0.101 0.879,0.251c0.076,0.126 0.528,0.252 1.005,0.252c0.477,-0 0.904,0.1 0.98,0.226c0.075,0.125 0.578,0.276 1.08,0.326c0.527,0.076 1.809,0.327 2.838,0.553c12.108,2.713 33.912,2.713 46.322,-0c0.979,-0.201 2.185,-0.452 2.662,-0.528c0.478,-0.075 0.98,-0.226 1.131,-0.351c0.125,-0.126 0.603,-0.226 1.03,-0.226c0.452,-0 0.904,-0.126 0.979,-0.252c0.076,-0.15 0.478,-0.251 0.88,-0.251c0.401,0 0.803,-0.125 0.879,-0.251c0.075,-0.151 0.427,-0.251 0.753,-0.251c0.327,-0 0.679,-0.126 0.754,-0.251c0.075,-0.151 0.377,-0.252 0.653,-0.252c0.251,0 0.678,-0.1 0.929,-0.226c0.453,-0.226 1.558,-0.703 2.512,-1.055c3.316,-1.281 6.883,-3.994 8.089,-6.129c1.08,-1.934 0.452,-4.873 -1.507,-6.883c-1.558,-1.582 -4.873,-3.592 -8.039,-4.848c-0.351,-0.151 -0.828,-0.352 -1.055,-0.477c-0.251,-0.126 -0.678,-0.226 -0.929,-0.226c-0.276,-0 -0.578,-0.126 -0.653,-0.251c-0.075,-0.151 -0.427,-0.252 -0.754,-0.252c-0.326,0 -0.678,-0.125 -0.753,-0.251c-0.076,-0.151 -0.402,-0.251 -0.679,-0.251c-0.301,-0 -0.879,-0.101 -1.306,-0.226c-1.356,-0.427 -4.622,-1.206 -5.677,-1.382c-0.352,-0.05 -0.904,-0.176 -1.256,-0.251c-0.352,-0.075 -1.08,-0.201 -1.633,-0.276c-0.552,-0.076 -1.632,-0.226 -2.386,-0.377c-6.406,-1.08 -18.664,-1.532 -25.999,-0.98Z" style="fill:#fff;fill-rule:nonzero;"/><path d="M31.865,89.306l0.025,12.007l0.578,1.13c0.729,1.483 3.14,3.417 6.054,4.874c1.231,0.653 2.386,1.155 2.562,1.155c0.176,0 0.704,0.226 1.206,0.503c0.502,0.276 1.105,0.502 1.382,0.502c0.251,0 0.552,0.101 0.628,0.251c0.075,0.126 0.427,0.251 0.753,0.251c0.327,0 0.678,0.101 0.754,0.252c0.075,0.125 0.452,0.251 0.804,0.251c0.376,-0 1.004,0.1 1.431,0.226c0.779,0.226 2.01,0.553 3.869,1.005c3.642,0.879 10.249,1.758 16.252,2.185c6.682,0.452 18.916,0.151 24.744,-0.628c4.873,-0.653 7.736,-1.155 10.048,-1.758c0.477,-0.126 1.155,-0.302 1.507,-0.402c1.432,-0.352 2.662,-0.703 3.14,-0.879c0.276,-0.101 1.356,-0.452 2.386,-0.754c1.03,-0.326 2.06,-0.678 2.261,-0.779c0.201,-0.1 0.954,-0.427 1.633,-0.728c2.21,-0.98 2.838,-1.331 4.521,-2.537c1.759,-1.281 2.186,-1.708 2.839,-2.889c0.552,-1.055 0.552,-1.08 0.552,-13.012c0,-12.711 0.026,-12.56 -1.155,-11.53c-0.251,0.251 -0.804,0.628 -1.231,0.829c-0.402,0.201 -1.03,0.527 -1.382,0.753c-1.055,0.679 -4.747,2.186 -7.41,3.04c-1.382,0.427 -2.738,0.879 -3.014,1.005c-0.277,0.1 -0.829,0.251 -1.256,0.326c-0.402,0.05 -1.256,0.251 -1.884,0.402c-3.065,0.779 -9.47,1.809 -13.314,2.16c-1.03,0.076 -2.11,0.201 -2.386,0.252c-1.432,0.301 -15.298,0.452 -20.222,0.226c-4.647,-0.201 -12.509,-1.206 -16.956,-2.161c-0.678,-0.15 -1.683,-0.326 -2.21,-0.401c-0.503,-0.076 -1.005,-0.227 -1.08,-0.352c-0.076,-0.126 -0.503,-0.226 -0.98,-0.226c-0.477,-0 -0.93,-0.126 -1.005,-0.251c-0.075,-0.151 -0.527,-0.252 -1.005,-0.252c-0.477,0 -0.929,-0.125 -1.004,-0.251c-0.076,-0.151 -0.428,-0.251 -0.754,-0.251c-0.327,-0 -0.678,-0.126 -0.754,-0.251c-0.075,-0.151 -0.351,-0.251 -0.628,-0.251c-0.251,-0 -0.879,-0.227 -1.431,-0.478c-0.528,-0.276 -1.633,-0.753 -2.462,-1.055c-0.829,-0.326 -1.683,-0.703 -1.884,-0.854c-0.201,-0.151 -0.704,-0.427 -1.131,-0.628c-0.402,-0.201 -1.281,-0.728 -1.959,-1.18c-0.653,-0.453 -1.231,-0.829 -1.306,-0.829c-0.076,-0 -0.126,5.4 -0.126,11.982Z" style="fill:#fff;fill-rule:nonzero;"/><path d="M31.865,123.074l0.025,11.882l0.578,1.13c0.729,1.482 3.14,3.416 6.054,4.873c1.231,0.653 2.386,1.156 2.562,1.156c0.176,-0 0.704,0.226 1.206,0.502c0.502,0.277 1.105,0.503 1.382,0.503c0.251,-0 0.552,0.1 0.628,0.251c0.075,0.125 0.427,0.251 0.753,0.251c0.327,0 0.678,0.101 0.754,0.251c0.075,0.126 0.452,0.251 0.804,0.251c0.376,0 1.004,0.101 1.431,0.227c0.754,0.226 1.784,0.502 3.869,1.004c0.502,0.126 1.658,0.352 2.562,0.528c0.904,0.151 1.859,0.301 2.135,0.352c10.124,1.808 27.381,2.034 37.429,0.502c5.175,-0.779 7.461,-1.181 8.918,-1.583c0.477,-0.125 1.607,-0.427 2.512,-0.653c0.904,-0.226 1.858,-0.502 2.135,-0.603c0.276,-0.1 1.356,-0.477 2.386,-0.778c1.03,-0.327 2.06,-0.679 2.261,-0.779c0.201,-0.101 0.954,-0.427 1.633,-0.729c3.818,-1.683 6.305,-3.541 7.335,-5.451c0.577,-1.029 0.577,-1.055 0.577,-12.987c0,-7.812 -0.075,-11.957 -0.251,-11.957c-0.125,0 -0.251,0.101 -0.251,0.252c0,0.125 -0.151,0.251 -0.352,0.251c-0.175,-0 -0.477,0.151 -0.628,0.351c-0.175,0.201 -0.728,0.578 -1.231,0.855c-0.502,0.276 -1.582,0.829 -2.386,1.281c-0.779,0.427 -1.557,0.778 -1.708,0.778c-0.126,0 -0.729,0.226 -1.281,0.503c-0.578,0.276 -1.256,0.502 -1.482,0.502c-0.251,0 -0.528,0.101 -0.603,0.251c-0.075,0.126 -0.427,0.252 -0.754,0.252c-0.326,-0 -0.678,0.1 -0.753,0.251c-0.076,0.125 -0.427,0.251 -0.754,0.251c-0.326,-0 -0.653,0.1 -0.728,0.226c-0.076,0.126 -0.578,0.276 -1.081,0.352c-0.527,0.075 -1.456,0.276 -2.084,0.427c-0.628,0.15 -1.558,0.351 -2.085,0.427c-0.503,0.075 -1.005,0.226 -1.081,0.351c-0.075,0.126 -0.452,0.227 -0.854,0.227c-0.402,-0 -1.256,0.1 -1.934,0.251c-2.06,0.402 -8.189,1.231 -10.123,1.381c-3.567,0.252 -9.47,0.503 -12.435,0.503c-3.165,-0 -11.278,-0.327 -12.811,-0.503c-8.34,-1.03 -11.856,-1.607 -15.951,-2.637c-0.628,-0.151 -1.507,-0.352 -1.959,-0.427c-0.452,-0.076 -0.879,-0.226 -0.955,-0.352c-0.075,-0.126 -0.452,-0.226 -0.879,-0.226c-0.402,-0 -0.728,-0.126 -0.728,-0.251c-0,-0.151 -0.327,-0.251 -0.729,-0.251c-0.427,-0 -0.829,-0.126 -0.904,-0.252c-0.076,-0.15 -0.352,-0.251 -0.603,-0.251c-0.226,0 -1.03,-0.276 -1.733,-0.628c-0.729,-0.351 -1.382,-0.628 -1.508,-0.628c-0.175,0 -2.336,-1.08 -3.567,-1.783c-0.326,-0.201 -0.829,-0.553 -1.105,-0.804c-0.276,-0.226 -0.653,-0.427 -0.829,-0.427c-0.176,-0 -0.326,-0.126 -0.326,-0.251c-0,-0.151 -0.101,-0.252 -0.252,-0.252c-0.175,0 -0.251,4.12 -0.251,11.857Z" style="fill:#fff;fill-rule:nonzero;"/><path d="M31.865,156.666c0,8.843 0.076,11.957 0.302,12.485c1.03,2.311 4.772,4.974 9.57,6.833c0.93,0.351 2.035,0.829 2.487,1.055c0.251,0.125 0.779,0.226 1.181,0.226c0.427,-0 0.804,0.1 0.879,0.226c0.075,0.125 0.452,0.276 0.829,0.351c0.402,0.076 1.155,0.252 1.708,0.402c2.035,0.503 7.059,1.533 8.164,1.683c0.628,0.076 1.306,0.176 1.507,0.226c1.08,0.302 7.838,0.905 12.837,1.131c10.073,0.502 23.487,-0.503 30.143,-2.261c0.503,-0.151 1.206,-0.251 1.558,-0.251c0.352,-0 0.728,-0.126 0.804,-0.251c0.075,-0.151 0.477,-0.252 0.904,-0.252c0.402,0 0.929,-0.1 1.181,-0.226c0.226,-0.125 0.929,-0.376 1.557,-0.527c2.01,-0.553 2.889,-0.854 3.115,-1.055c0.151,-0.101 0.452,-0.201 0.678,-0.201c0.226,-0 0.854,-0.201 1.407,-0.477c0.527,-0.252 1.683,-0.829 2.587,-1.256c1.859,-0.905 4.974,-3.165 5.376,-3.919c0.151,-0.276 0.352,-0.553 0.427,-0.628c0.678,-0.553 0.728,-1.683 0.728,-13.163c0,-7.812 -0.075,-11.957 -0.251,-11.957c-0.125,0 -0.251,0.1 -0.251,0.251c0,0.126 -0.151,0.251 -0.327,0.251c-0.175,0 -0.552,0.201 -0.828,0.453c-0.729,0.678 -6.632,3.516 -7.763,3.742c-0.276,0.051 -0.602,0.201 -0.728,0.327c-0.151,0.151 -0.452,0.251 -0.703,0.251c-0.252,0 -0.653,0.101 -0.905,0.226c-0.402,0.201 -1.004,0.377 -3.617,1.055c-0.603,0.151 -1.432,0.377 -1.859,0.503c-0.427,0.125 -1.005,0.226 -1.306,0.226c-0.301,-0 -0.754,0.1 -1.005,0.226c-0.226,0.125 -1.381,0.352 -2.562,0.502c-1.181,0.176 -2.688,0.402 -3.391,0.528c-1.08,0.201 -3.618,0.502 -7.285,0.879c-2.01,0.201 -9.119,0.502 -11.932,0.502c-9.169,0 -20.171,-1.105 -26.627,-2.662c-0.628,-0.151 -1.558,-0.327 -2.085,-0.402c-0.502,-0.076 -1.005,-0.226 -1.08,-0.352c-0.076,-0.126 -0.503,-0.226 -0.98,-0.226c-0.477,-0 -0.929,-0.126 -1.005,-0.251c-0.075,-0.151 -0.427,-0.251 -0.753,-0.251c-0.327,-0 -0.679,-0.126 -0.754,-0.252c-0.075,-0.15 -0.427,-0.251 -0.753,-0.251c-0.327,0 -0.679,-0.125 -0.754,-0.251c-0.075,-0.151 -0.377,-0.251 -0.653,-0.251c-0.251,-0 -0.678,-0.101 -0.93,-0.226c-0.226,-0.126 -1.331,-0.603 -2.436,-1.055c-1.106,-0.452 -2.186,-0.955 -2.387,-1.106c-0.201,-0.15 -0.703,-0.427 -1.13,-0.628c-0.402,-0.201 -0.804,-0.427 -0.879,-0.502c-0.226,-0.276 -1.708,-1.256 -1.859,-1.256c-0.075,0 -0.151,5.3 -0.151,11.806Z" style="fill:#fff;fill-rule:nonzero;"/></svg>