<?xml version="1.0" encoding="UTF-8" standalone="no"?><!DOCTYPE svg PUBLIC "-//W3C//DTD SVG 1.1//EN" "http://www.w3.org/Graphics/SVG/1.1/DTD/svg11.dtd"><svg width="100%" height="100%" viewBox="0 0 230 230" version="1.1" xmlns="http://www.w3.org/2000/svg" xmlns:xlink="http://www.w3.org/1999/xlink" xml:space="preserve" xmlns:serif="http://www.serif.com/" style="fill-rule:evenodd;clip-rule:evenodd;stroke-linejoin:round;stroke-miterlimit:2;"><rect x="-0" y="0" width="230" height="230" style="fill:#9e9eb0;"/><g><path d="M111.729,110.98c-1.861,0.332 -3.948,1.039 -5.36,1.788c-1.82,0.998 -4.725,3.326 -5.83,4.699c-5.094,6.258 -6.178,14.325 -2.864,21.269c2.557,5.385 6.751,8.981 12.315,10.562c1.801,0.499 2.292,0.561 5.258,0.54c3.519,0 4.132,-0.125 7.262,-1.372c5.483,-2.204 10.106,-7.838 11.395,-13.951c0.532,-2.474 0.471,-6.757 -0.122,-8.982c-0.86,-3.222 -3.355,-7.547 -5.463,-9.459c-1.084,-0.998 -3.211,-2.516 -4.582,-3.265c-3.294,-1.829 -8.06,-2.557 -12.009,-1.829Z" style="fill:#fff;fill-rule:nonzero;stroke:#fff;stroke-width:4.17px;"/><path d="M167.7,128.319c-0.429,0.107 -0.982,0.299 -1.227,0.427c-0.593,0.343 -4.869,3.187 -8.429,5.647c-4.316,2.973 -19.782,13.561 -21.889,14.952c-2.844,1.925 -2.741,1.604 -1.207,3.508c1.964,2.438 4.132,6.331 5.401,9.775c0.266,0.705 0.532,1.369 0.613,1.497c0.082,0.107 0.369,0.984 0.614,1.925c0.266,0.941 0.512,1.754 0.532,1.797c0.041,0.042 1.105,-0.621 2.373,-1.498c3.662,-2.481 19.148,-13.069 22.974,-15.7c1.923,-1.304 4.398,-3.016 5.523,-3.743c1.126,-0.748 2.476,-1.732 3.008,-2.182c3.089,-2.652 3.928,-7.571 1.964,-11.593c-0.962,-1.968 -3.437,-4.021 -5.667,-4.705c-1.207,-0.364 -3.314,-0.428 -4.583,-0.107Z" style="fill:#fff;fill-rule:nonzero;stroke:#fff;stroke-width:4.17px;"/><path d="M62.3,128.319c0.429,0.107 0.982,0.299 1.227,0.427c0.593,0.343 4.869,3.187 8.429,5.647c4.316,2.973 19.782,13.561 21.889,14.952c2.844,1.925 2.741,1.604 1.207,3.508c-1.964,2.438 -4.132,6.331 -5.401,9.775c-0.266,0.705 -0.532,1.369 -0.613,1.497c-0.082,0.107 -0.369,0.984 -0.614,1.925c-0.266,0.941 -0.512,1.754 -0.532,1.797c-0.041,0.042 -1.105,-0.621 -2.373,-1.498c-3.662,-2.481 -19.148,-13.069 -22.974,-15.7c-1.923,-1.304 -4.398,-3.016 -5.523,-3.743c-1.126,-0.748 -2.476,-1.732 -3.008,-2.182c-3.089,-2.652 -3.928,-7.571 -1.964,-11.593c0.962,-1.968 3.437,-4.021 5.667,-4.705c1.207,-0.364 3.314,-0.428 4.583,-0.107Z" style="fill:#fff;fill-rule:nonzero;stroke:#fff;stroke-width:4.17px;"/><path d="M101.67,148.892c-2.142,1.167 -4.518,3.012 -6.424,5.006c-2.706,2.801 -4.282,5.58 -5.53,9.652l-0.611,2.016l-0.094,13.852l-0.071,13.831l52.966,-0l-0,-12.367c-0.024,-13.089 -0.141,-14.977 -1.153,-18.18c-0.612,-1.909 -2.753,-5.897 -3.953,-7.34c-2.024,-2.461 -5.577,-5.367 -8.165,-6.661l-1.388,-0.721l-0.73,0.403c-2.659,1.4 -5.247,2.334 -7.694,2.758c-2.212,0.382 -5.93,0.297 -8.094,-0.212c-1.742,-0.382 -5.059,-1.697 -6.212,-2.419c-0.377,-0.254 -0.824,-0.445 -1.012,-0.445c-0.165,-0 -0.988,0.382 -1.835,0.827Z" style="fill:#fff;fill-rule:nonzero;stroke:#fff;stroke-width:4.17px;"/></g><g><rect x="63.599" y="67.037" width="46.808" height="9.986" style="fill:#fff;stroke:#fff;stroke-width:4.17px;stroke-linecap:round;stroke-miterlimit:1.5;"/><g><rect x="128.849" y="93.363" width="28.94" height="9.251" style="fill:#fff;stroke:#fff;stroke-width:4.17px;stroke-linecap:round;stroke-miterlimit:1.5;"/><path d="M138.025,36.849l-14.222,18.215l8.593,5.858l14.222,-18.215l-8.593,-5.858Z" style="fill:#fff;stroke:#fff;stroke-width:4.17px;stroke-linecap:round;stroke-miterlimit:1.5;"/><path d="M149.004,102.615l-0,-65.766l-11.083,-0l0,65.766l11.083,-0Z" style="fill:#fff;stroke:#fff;stroke-width:4.17px;stroke-linecap:round;stroke-miterlimit:1.5;"/></g><path d="M92.288,94.142l-0,-44.223l-10.57,-0l-0,44.223l10.57,-0Z" style="fill:#fff;stroke:#fff;stroke-width:4.17px;stroke-linecap:round;stroke-miterlimit:1.5;"/></g></svg>