<?xml version="1.0" encoding="UTF-8" standalone="no"?><!DOCTYPE svg PUBLIC "-//W3C//DTD SVG 1.1//EN" "http://www.w3.org/Graphics/SVG/1.1/DTD/svg11.dtd"><svg width="100%" height="100%" viewBox="0 0 230 230" version="1.1" xmlns="http://www.w3.org/2000/svg" xmlns:xlink="http://www.w3.org/1999/xlink" xml:space="preserve" xmlns:serif="http://www.serif.com/" style="fill-rule:evenodd;clip-rule:evenodd;stroke-linejoin:round;stroke-miterlimit:2;"><rect x="-0" y="0" width="230" height="230" style="fill:#9e9eb0;"/><g><path d="M111.902,85.345c-2.332,0.429 -4.946,1.34 -6.714,2.305c-2.281,1.286 -5.921,4.287 -7.305,6.056c-6.381,8.066 -7.74,18.463 -3.588,27.413c3.204,6.941 8.458,11.577 15.429,13.613c2.255,0.644 2.87,0.724 6.587,0.697c4.408,0 5.177,-0.161 9.098,-1.768c6.869,-2.841 12.661,-10.103 14.276,-17.981c0.666,-3.189 0.589,-8.709 -0.154,-11.577c-1.076,-4.153 -4.203,-9.727 -6.843,-12.192c-1.358,-1.287 -4.024,-3.243 -5.741,-4.208c-4.126,-2.358 -10.098,-3.296 -15.045,-2.358Z" style="fill:#fff;fill-rule:nonzero;"/><path d="M184.024,110.469c-0.539,0.134 -1.231,0.376 -1.538,0.536c-0.743,0.429 -6.1,3.993 -10.56,7.075c-5.407,3.725 -24.783,16.989 -27.423,18.731c-3.562,2.412 -3.434,2.01 -1.512,4.395c2.46,3.055 5.177,7.932 6.766,12.246c0.333,0.884 0.666,1.715 0.769,1.876c0.102,0.134 0.461,1.232 0.769,2.412c0.333,1.179 0.641,2.197 0.666,2.251c0.051,0.053 1.384,-0.778 2.973,-1.876c4.588,-3.109 23.989,-16.373 28.782,-19.669c2.409,-1.635 5.51,-3.779 6.92,-4.69c1.41,-0.938 3.101,-2.17 3.767,-2.733c3.87,-3.323 4.921,-9.486 2.461,-14.524c-1.205,-2.466 -4.306,-5.038 -7.1,-5.896c-1.512,-0.455 -4.151,-0.536 -5.74,-0.134Z" style="fill:#fff;fill-rule:nonzero;"/><path d="M45.976,110.469c0.539,0.134 1.231,0.376 1.538,0.536c0.743,0.429 6.1,3.993 10.56,7.075c5.407,3.725 24.783,16.989 27.423,18.731c3.562,2.412 3.434,2.01 1.512,4.395c-2.46,3.055 -5.177,7.932 -6.766,12.246c-0.333,0.884 -0.666,1.715 -0.769,1.876c-0.102,0.134 -0.461,1.232 -0.769,2.412c-0.333,1.179 -0.641,2.197 -0.666,2.251c-0.051,0.053 -1.384,-0.778 -2.973,-1.876c-4.588,-3.109 -23.989,-16.373 -28.782,-19.669c-2.409,-1.635 -5.51,-3.779 -6.92,-4.69c-1.41,-0.938 -3.101,-2.17 -3.767,-2.733c-3.87,-3.323 -4.921,-9.486 -2.461,-14.524c1.205,-2.466 4.306,-5.038 7.1,-5.896c1.512,-0.455 4.151,-0.536 5.74,-0.134Z" style="fill:#fff;fill-rule:nonzero;"/><path d="M98.3,136.522c-2.683,1.816 -5.66,4.69 -8.048,7.795c-3.39,4.36 -5.365,8.687 -6.927,15.028l-0.767,3.138l-0.118,21.569l-0.088,21.535l66.356,0l-0,-19.256c-0.03,-20.38 -0.177,-23.319 -1.445,-28.307c-0.766,-2.973 -3.449,-9.182 -4.952,-11.428c-2.535,-3.832 -6.986,-8.357 -10.229,-10.372l-1.739,-1.123l-0.914,0.628c-3.331,2.18 -6.574,3.633 -9.64,4.294c-2.771,0.594 -7.428,0.462 -10.14,-0.33c-2.182,-0.595 -6.338,-2.643 -7.782,-3.766c-0.472,-0.396 -1.032,-0.693 -1.268,-0.693c-0.206,-0 -1.238,0.594 -2.299,1.288Z" style="fill:#fff;fill-rule:nonzero;"/></g><g><rect x="62.102" y="49.408" width="46.808" height="9.986" style="fill:#fff;"/><g><rect x="138.958" y="75.735" width="28.94" height="9.251" style="fill:#fff;"/><path d="M148.135,19.22l-14.222,18.215l8.593,5.859l14.222,-18.215l-8.593,-5.859Z" style="fill:#fff;"/><path d="M159.113,84.986l0,-65.766l-11.083,0l0,65.766l11.083,0Z" style="fill:#fff;"/></g><path d="M90.791,76.513l0,-44.223l-10.57,0l0,44.223l10.57,0Z" style="fill:#fff;"/></g></svg>