<?xml version="1.0" encoding="UTF-8" standalone="no"?><!DOCTYPE svg PUBLIC "-//W3C//DTD SVG 1.1//EN" "http://www.w3.org/Graphics/SVG/1.1/DTD/svg11.dtd"><svg width="100%" height="100%" viewBox="0 0 230 230" version="1.1" xmlns="http://www.w3.org/2000/svg" xmlns:xlink="http://www.w3.org/1999/xlink" xml:space="preserve" xmlns:serif="http://www.serif.com/" style="fill-rule:evenodd;clip-rule:evenodd;stroke-linejoin:round;stroke-miterlimit:2;"><rect x="-0" y="0" width="230" height="230" style="fill:#9e9eb0;"/><path d="M115,23l24.184,17.57l29.892,0l9.238,28.43l24.183,17.57l-9.237,28.43l9.237,28.43l-24.183,17.57l-9.238,28.43l-29.892,-0l-24.184,17.57l-24.184,-17.57l-29.892,-0l-9.238,-28.43l-24.183,-17.57l9.237,-28.43l-9.237,-28.43l24.183,-17.57l9.238,-28.43l29.892,0l24.184,-17.57Z" style="fill:#fff;"/><circle cx="115" cy="115" r="73.6" style="fill:#9e9eb0;"/><path d="M115,38.406c42.273,0 76.594,34.321 76.594,76.594c-0,42.273 -34.321,76.594 -76.594,76.594c-42.273,-0 -76.594,-34.321 -76.594,-76.594c0,-42.273 34.321,-76.594 76.594,-76.594Zm-0,12.697c35.266,-0 63.897,28.631 63.897,63.897c0,35.266 -28.631,63.897 -63.897,63.897c-35.266,0 -63.897,-28.631 -63.897,-63.897c-0,-35.266 28.631,-63.897 63.897,-63.897Z" style="fill:#fff;"/><text x="62.341px" y="134.387px" style="font-family:'Arial-Black', 'Arial Black', sans-serif;font-weight:900;font-size:54.167px;fill:#fff;">ISO</text></svg>