<?xml version="1.0" encoding="UTF-8" standalone="no"?><!DOCTYPE svg PUBLIC "-//W3C//DTD SVG 1.1//EN" "http://www.w3.org/Graphics/SVG/1.1/DTD/svg11.dtd"><svg width="100%" height="100%" viewBox="0 0 230 230" version="1.1" xmlns="http://www.w3.org/2000/svg" xmlns:xlink="http://www.w3.org/1999/xlink" xml:space="preserve" xmlns:serif="http://www.serif.com/" style="fill-rule:evenodd;clip-rule:evenodd;stroke-linejoin:round;stroke-miterlimit:2;"><rect x="0" y="0" width="230" height="230" style="fill:#9e9eb0;"/><path d="M86.534,44.263c-2.362,0.123 -4.713,0.4 -7.039,0.828l-0.656,8.486c-3.378,0.788 -6.657,1.953 -9.775,3.474l-5.864,-6.168c-2.075,1.135 -4.073,2.404 -5.983,3.799l3.091,7.931c-2.702,2.176 -5.15,4.648 -7.299,7.371l-7.96,-3.013c-1.377,1.923 -2.626,3.934 -3.742,6.019l6.226,5.804c-1.49,3.133 -2.623,6.423 -3.379,9.808l-8.479,0.74c-0.405,2.329 -0.659,4.683 -0.759,7.046l8.127,2.528c0.017,3.469 0.424,6.924 1.212,10.302l-7.318,4.345c0.645,2.275 1.438,4.506 2.373,6.678l8.419,-1.248c1.521,3.118 3.386,6.055 5.562,8.756l-4.708,7.09c1.568,1.77 3.25,3.436 5.035,4.987l7.044,-4.777c2.723,2.149 5.678,3.986 8.81,5.476l-1.165,8.43c2.181,0.914 4.419,1.685 6.7,2.308l4.274,-7.36c3.385,0.755 6.845,1.128 10.313,1.111l2.608,8.102c2.362,-0.123 4.713,-0.4 7.038,-0.828l0.657,-8.486c3.378,-0.788 6.657,-1.954 9.774,-3.474l5.865,6.168c2.074,-1.135 4.073,-2.405 5.982,-3.8l-3.09,-7.93c2.701,-2.176 5.15,-4.648 7.299,-7.371l7.96,3.013c1.376,-1.923 2.626,-3.934 3.741,-6.019l-6.225,-5.804c1.49,-3.133 2.623,-6.423 3.378,-9.808l8.479,-0.74c0.406,-2.33 0.659,-4.683 0.759,-7.046l-8.127,-2.528c-0.017,-3.469 -0.423,-6.925 -1.212,-10.303l7.319,-4.345c-0.646,-2.275 -1.438,-4.505 -2.374,-6.677l-8.419,1.248c-1.52,-3.118 -3.386,-6.055 -5.562,-8.757l4.709,-7.09c-1.569,-1.769 -3.251,-3.435 -5.036,-4.986l-7.044,4.777c-2.722,-2.149 -5.677,-3.986 -8.81,-5.476l1.166,-8.431c-2.181,-0.914 -4.419,-1.685 -6.701,-2.308l-4.273,7.361c-3.385,-0.755 -6.845,-1.128 -10.314,-1.111l-2.607,-8.102Zm1.379,42.056c6.827,-0.804 13.023,4.088 13.826,10.915c0.803,6.828 -4.088,13.023 -10.916,13.826c-6.828,0.803 -13.023,-4.088 -13.826,-10.915c-0.803,-6.828 4.088,-13.023 10.916,-13.826Z" style="fill:#fff;"/><path d="M150.274,26.92c-2.356,0.575 -4.631,1.444 -6.771,2.585l1.218,8.359c-2.171,1.567 -4.027,3.53 -5.469,5.786l-8.414,-0.745c-1.02,2.201 -1.759,4.521 -2.2,6.906l7.294,4.259c-0.129,2.675 0.249,5.35 1.114,7.884l-5.829,6.113c1.086,2.17 2.439,4.194 4.028,6.027l7.878,-3.048c2.011,1.768 4.338,3.14 6.858,4.044l1.146,8.369c2.372,0.504 4.799,0.708 7.222,0.608l2.529,-8.059c2.637,-0.47 5.16,-1.433 7.438,-2.841l7.258,4.323c1.873,-1.541 3.546,-3.31 4.979,-5.268l-4.725,-7.002c1.277,-2.354 2.097,-4.928 2.417,-7.586l7.904,-2.979c-0.036,-2.426 -0.377,-4.837 -1.014,-7.177l-8.42,-0.672c-1.045,-2.466 -2.546,-4.712 -4.424,-6.62l2.599,-8.037c-1.919,-1.484 -4.017,-2.721 -6.244,-3.682l-5.775,6.164c-2.579,-0.721 -5.271,-0.947 -7.934,-0.668l-4.663,-7.043Zm3.656,19.733c4.658,-1.778 9.883,0.559 11.662,5.217c1.778,4.657 -0.559,9.882 -5.217,11.661c-4.657,1.779 -9.883,-0.559 -11.661,-5.216c-1.779,-4.658 0.559,-9.883 5.216,-11.662Z" style="fill:#fff;"/><path d="M128.883,133.304c-1.753,1.539 -3.369,3.227 -4.831,5.046l4.763,8.322c-1.314,2.069 -2.382,4.283 -3.184,6.598l-9.478,1.451c-0.514,2.275 -0.83,4.591 -0.943,6.921l8.745,3.934c0.153,2.445 0.59,4.865 1.302,7.209l-6.815,6.745c0.921,2.143 2.027,4.202 3.305,6.154l9.387,-1.958c1.561,1.889 3.337,3.589 5.291,5.067l-1.549,9.463c2.005,1.192 4.11,2.207 6.291,3.035l6.444,-7.101c2.372,0.61 4.808,0.942 7.258,0.989l4.309,8.566c2.323,-0.214 4.623,-0.63 6.874,-1.242l1.039,-9.532c2.278,-0.901 4.444,-2.065 6.453,-3.466l8.521,4.397c1.754,-1.539 3.37,-3.227 4.832,-5.045l-4.763,-8.323c1.314,-2.068 2.382,-4.282 3.184,-6.597l9.478,-1.451c0.514,-2.276 0.83,-4.592 0.943,-6.922l-8.745,-3.934c-0.153,-2.445 -0.59,-4.864 -1.302,-7.208l6.815,-6.745c-0.921,-2.144 -2.027,-4.203 -3.305,-6.154l-9.387,1.957c-1.561,-1.888 -3.337,-3.588 -5.291,-5.066l1.549,-9.463c-2.005,-1.192 -4.11,-2.208 -6.291,-3.036l-6.444,7.101c-2.373,-0.61 -4.808,-0.942 -7.258,-0.989l-4.309,-8.566c-2.323,0.215 -4.623,0.63 -6.874,1.242l-1.039,9.533c-2.278,0.901 -4.444,2.064 -6.453,3.466l-8.522,-4.398Zm18.367,22.424c4.347,-4.539 11.561,-4.695 16.1,-0.349c4.539,4.347 4.695,11.56 0.349,16.099c-4.347,4.539 -11.561,4.696 -16.1,0.349c-4.539,-4.346 -4.695,-11.56 -0.349,-16.099Z" style="fill:#fff;"/></svg>