<?xml version="1.0" encoding="UTF-8" standalone="no"?><!DOCTYPE svg PUBLIC "-//W3C//DTD SVG 1.1//EN" "http://www.w3.org/Graphics/SVG/1.1/DTD/svg11.dtd"><svg width="100%" height="100%" viewBox="0 0 230 230" version="1.1" xmlns="http://www.w3.org/2000/svg" xmlns:xlink="http://www.w3.org/1999/xlink" xml:space="preserve" xmlns:serif="http://www.serif.com/" style="fill-rule:evenodd;clip-rule:evenodd;stroke-linecap:round;stroke-linejoin:round;stroke-miterlimit:1.5;"><rect x="0" y="0" width="230" height="230" style="fill:#9e9eb0;"/><path d="M90.501,36.346c-2.752,-0.209 -5.515,-0.209 -8.266,0l-1.914,8.415c-4.014,0.528 -7.941,1.58 -11.681,3.13l-5.864,-6.331c-2.488,1.195 -4.881,2.576 -7.159,4.133l2.55,8.244c-3.212,2.465 -6.087,5.34 -8.551,8.551l-8.244,-2.549c-1.557,2.278 -2.939,4.671 -4.133,7.158l6.33,5.865c-1.549,3.74 -2.601,7.667 -3.13,11.681l-8.414,1.913c-0.21,2.752 -0.21,5.515 -0,8.266l8.414,1.914c0.529,4.014 1.581,7.941 3.13,11.681l-6.33,5.865c1.194,2.487 2.576,4.88 4.133,7.158l8.244,-2.55c2.464,3.212 5.339,6.087 8.551,8.551l-2.55,8.244c2.278,1.557 4.671,2.939 7.159,4.133l5.864,-6.33c3.74,1.549 7.667,2.602 11.681,3.13l1.914,8.414c2.751,0.21 5.514,0.21 8.266,0l1.913,-8.414c4.014,-0.528 7.941,-1.581 11.682,-3.13l5.864,6.33c2.487,-1.194 4.88,-2.576 7.159,-4.133l-2.55,-8.244c3.211,-2.464 6.086,-5.339 8.551,-8.551l8.244,2.55c1.557,-2.278 2.938,-4.671 4.133,-7.158l-6.33,-5.865c1.549,-3.74 2.601,-7.667 3.129,-11.681l8.415,-1.914c0.209,-2.751 0.209,-5.514 -0,-8.266l-8.415,-1.913c-0.528,-4.014 -1.58,-7.941 -3.129,-11.681l6.33,-5.865c-1.195,-2.487 -2.576,-4.88 -4.133,-7.158l-8.244,2.549c-2.465,-3.211 -5.34,-6.086 -8.551,-8.551l2.55,-8.244c-2.279,-1.557 -4.672,-2.938 -7.159,-4.133l-5.864,6.331c-3.741,-1.55 -7.668,-2.602 -11.682,-3.13l-1.913,-8.415Zm-4.133,41.887c6.875,0 12.456,5.582 12.456,12.456c-0,6.875 -5.581,12.456 -12.456,12.456c-6.875,0 -12.456,-5.581 -12.456,-12.456c-0,-6.874 5.581,-12.456 12.456,-12.456Z" style="fill:#fff;stroke:#fff;stroke-width:4.17px;"/><path d="M169.066,40.252c-2.417,-0.197 -4.85,-0.091 -7.241,0.317l-1.482,8.316c-2.555,0.802 -4.935,2.079 -7.015,3.765l-7.749,-3.363c-1.662,1.767 -3.096,3.735 -4.268,5.859l5.578,6.343c-0.966,2.498 -1.451,5.155 -1.431,7.833l-7.46,3.961c0.345,2.401 0.99,4.749 1.92,6.99l8.437,-0.406c1.35,2.312 3.125,4.349 5.232,6.002l-1.555,8.303c2.093,1.227 4.331,2.186 6.662,2.856l4.943,-6.849c2.65,0.386 5.349,0.268 7.955,-0.348l5.522,6.392c2.264,-0.871 4.409,-2.023 6.387,-3.428l-2.273,-8.135c1.954,-1.831 3.544,-4.014 4.687,-6.436l8.441,-0.332c0.73,-2.313 1.168,-4.708 1.302,-7.13l-7.778,-3.295c-0.213,-2.67 -0.928,-5.275 -2.109,-7.678l5.003,-6.806c-1.353,-2.013 -2.953,-3.849 -4.762,-5.464l-7.426,4.026c-2.22,-1.497 -4.702,-2.562 -7.318,-3.138l-2.202,-8.155Zm-2.758,19.879c4.981,-0.217 9.202,3.649 9.419,8.63c0.218,4.981 -3.649,9.202 -8.63,9.42c-4.98,0.217 -9.201,-3.65 -9.419,-8.63c-0.218,-4.981 3.649,-9.202 8.63,-9.42Z" style="fill:#fff;stroke:#fff;stroke-width:4.17px;"/><path d="M127.802,127.223c-1.753,1.539 -3.369,3.227 -4.831,5.046l4.763,8.322c-1.314,2.069 -2.382,4.283 -3.184,6.598l-9.478,1.451c-0.514,2.275 -0.83,4.591 -0.943,6.921l8.745,3.934c0.153,2.445 0.59,4.865 1.302,7.209l-6.815,6.745c0.921,2.143 2.027,4.202 3.305,6.154l9.387,-1.958c1.561,1.889 3.337,3.589 5.291,5.067l-1.549,9.463c2.005,1.192 4.11,2.207 6.291,3.035l6.443,-7.101c2.373,0.61 4.809,0.942 7.259,0.989l4.309,8.566c2.323,-0.214 4.623,-0.63 6.874,-1.242l1.039,-9.532c2.278,-0.901 4.444,-2.065 6.453,-3.467l8.521,4.398c1.754,-1.539 3.37,-3.227 4.832,-5.045l-4.763,-8.323c1.314,-2.068 2.382,-4.282 3.184,-6.597l9.478,-1.451c0.514,-2.276 0.83,-4.592 0.943,-6.922l-8.745,-3.934c-0.153,-2.445 -0.59,-4.864 -1.302,-7.208l6.815,-6.745c-0.921,-2.144 -2.027,-4.203 -3.305,-6.154l-9.387,1.957c-1.561,-1.888 -3.337,-3.588 -5.291,-5.066l1.549,-9.463c-2.005,-1.192 -4.11,-2.208 -6.291,-3.036l-6.444,7.101c-2.373,-0.61 -4.808,-0.942 -7.258,-0.989l-4.309,-8.566c-2.323,0.215 -4.623,0.63 -6.874,1.242l-1.039,9.533c-2.278,0.901 -4.444,2.064 -6.453,3.466l-8.522,-4.398Zm18.367,22.424c4.347,-4.539 11.561,-4.695 16.1,-0.349c4.539,4.347 4.695,11.56 0.348,16.099c-4.346,4.539 -11.56,4.696 -16.099,0.349c-4.539,-4.346 -4.695,-11.56 -0.349,-16.099Z" style="fill:#fff;stroke:#fff;stroke-width:4.17px;"/></svg>