<?xml version="1.0" encoding="UTF-8" standalone="no"?><!DOCTYPE svg PUBLIC "-//W3C//DTD SVG 1.1//EN" "http://www.w3.org/Graphics/SVG/1.1/DTD/svg11.dtd"><svg width="100%" height="100%" viewBox="0 0 230 230" version="1.1" xmlns="http://www.w3.org/2000/svg" xmlns:xlink="http://www.w3.org/1999/xlink" xml:space="preserve" xmlns:serif="http://www.serif.com/" style="fill-rule:evenodd;clip-rule:evenodd;stroke-linejoin:round;stroke-miterlimit:2;"><rect x="-0" y="0" width="230" height="230" style="fill:#9e9eb0;"/><g><path d="M91.35,29.144c0.768,0.436 1.908,1.192 2.522,1.674c1.185,0.917 5.396,5.435 5.396,5.779c-0,0.114 19.476,0.206 47.593,0.206l47.593,0l-0,79.114l-83.343,0l0,2.683l1.492,-0.458c1.162,-0.367 2.149,-0.459 4.649,-0.482c3.488,-0.023 5.176,0.344 7.962,1.674c1.491,0.711 4.43,2.935 5.614,4.242l0.768,0.826l27.679,-0l1.294,-1.376c1.359,-1.445 3.706,-3.233 5.307,-4.105c0.505,-0.252 1.777,-0.756 2.851,-1.077c2.545,-0.803 7.128,-0.918 9.716,-0.23c3.312,0.872 6.361,2.706 8.795,5.274l1.404,1.514l14.146,-0l0,-96.084l-112.841,0l1.403,0.826Z" style="fill:#fff;fill-rule:nonzero;"/><path d="M75.427,30.268c-1.995,0.367 -4.233,1.146 -5.746,1.972c-1.952,1.1 -5.066,3.669 -6.251,5.182c-5.461,6.903 -6.623,15.8 -3.07,23.459c2.741,5.94 7.238,9.907 13.203,11.65c1.93,0.55 2.457,0.619 5.637,0.596c3.772,-0 4.43,-0.138 7.786,-1.514c5.878,-2.43 10.834,-8.645 12.216,-15.387c0.57,-2.729 0.504,-7.453 -0.132,-9.906c-0.921,-3.555 -3.597,-8.324 -5.856,-10.434c-1.162,-1.101 -3.443,-2.775 -4.912,-3.6c-3.531,-2.018 -8.642,-2.821 -12.875,-2.018Z" style="fill:#fff;fill-rule:nonzero;"/><path d="M137.145,55.63c-0.461,0.115 -1.053,0.321 -1.316,0.459c-0.636,0.367 -5.22,3.416 -9.036,6.054c-4.628,3.187 -21.209,14.538 -23.468,16.029c-3.048,2.064 -2.939,1.72 -1.294,3.761c2.106,2.614 4.431,6.787 5.79,10.479c0.285,0.757 0.571,1.468 0.658,1.606c0.088,0.114 0.395,1.054 0.658,2.063c0.285,1.009 0.549,1.881 0.571,1.927c0.043,0.046 1.184,-0.665 2.544,-1.606c3.926,-2.66 20.528,-14.011 24.63,-16.831c2.061,-1.399 4.715,-3.234 5.921,-4.013c1.207,-0.803 2.654,-1.858 3.224,-2.339c3.312,-2.844 4.211,-8.118 2.106,-12.429c-1.031,-2.11 -3.685,-4.312 -6.075,-5.045c-1.294,-0.39 -3.553,-0.459 -4.913,-0.115Z" style="fill:#fff;fill-rule:nonzero;"/><path d="M67.356,76.612c-5.987,3.234 -11.69,10.205 -14.431,17.681c-2.15,5.801 -2.786,10.25 -2.786,19.377c0,3.371 0.044,6.146 0.11,6.146c0.066,-0 0.505,-0.207 0.987,-0.459c0.461,-0.252 1.711,-0.734 2.785,-1.055c1.711,-0.55 2.303,-0.619 5.22,-0.619c2.961,-0.023 3.488,0.046 5.22,0.596c2.325,0.757 3.268,1.239 5.352,2.729c4.255,3.073 7.193,7.957 7.983,13.323c0.483,3.257 -0.197,7.981 -1.579,10.755c-0.351,0.711 -0.636,1.376 -0.636,1.445c-0,0.069 5.724,0.115 12.699,0.115l12.72,-0l-0.745,-1.674c-1.272,-2.89 -1.536,-4.243 -1.514,-8.072c0,-3.119 0.066,-3.646 0.615,-5.504c1.14,-3.829 3.092,-6.902 5.899,-9.195l1.667,-1.353l0,-6.651c0.022,-7.017 -0.241,-10.479 -1.075,-14.171c-2.28,-10.205 -8.553,-19.309 -16.098,-23.436l-1.447,-0.78l-1.185,0.436c-2.807,1.009 -4.496,1.261 -8.246,1.238c-3.378,-0.023 -3.795,-0.069 -6.251,-0.757c-3.728,-1.078 -3.531,-1.055 -5.264,-0.115Z" style="fill:#fff;fill-rule:nonzero;"/><path d="M48.385,80.488c-2.062,0.757 -3.465,1.811 -4.694,3.554c-0.789,1.124 -1.184,2.087 -2.193,5.435c-1.557,5.068 -5.637,18.391 -8.97,29.307c-4.979,16.212 -5.242,17.107 -5.308,18.804c-0.175,3.99 2.413,8.117 6.01,9.516c2.631,1.055 5.658,0.963 8.049,-0.206l1.382,-0.688l-0.637,-1.468c-0.35,-0.825 -0.855,-2.545 -1.118,-3.852c-1.141,-5.802 0.241,-11.672 3.794,-16.121l1.272,-1.559l0.022,-7.843c0,-4.288 0.044,-7.98 0.066,-8.164c0.044,-0.183 0.132,-1.215 0.219,-2.27c0.198,-2.5 0.9,-6.283 1.601,-8.737c1.251,-4.242 4.036,-10.021 6.361,-13.209c0.789,-1.077 1.338,-2.04 1.25,-2.155c-0.439,-0.39 -1.842,-0.711 -3.597,-0.826c-1.601,-0.091 -2.084,-0.023 -3.509,0.482Z" style="fill:#fff;fill-rule:nonzero;"/><path d="M170.877,121.742c-9.409,2.247 -14.125,12.566 -9.936,21.693c0.746,1.605 1.251,2.316 2.83,3.944c2.281,2.362 4.452,3.601 7.435,4.22c4.737,0.986 9.036,-0.367 12.83,-4.082c1.601,-1.559 2.018,-2.133 2.851,-3.921c1.294,-2.729 1.733,-4.862 1.579,-7.728c-0.329,-6.421 -4.079,-11.627 -9.825,-13.622c-2.237,-0.779 -5.659,-1.009 -7.764,-0.504Z" style="fill:#fff;fill-rule:nonzero;"/><path d="M56.149,122.223c-5.264,1.193 -9.124,4.885 -10.879,10.32c-0.416,1.353 -0.504,2.041 -0.482,4.471c-0,2.454 0.088,3.119 0.592,4.724c1.623,5.114 5.856,8.967 11.12,10.09c4.584,0.963 9.102,-0.413 12.611,-3.852c3.005,-2.936 4.408,-6.008 4.65,-10.274c0.241,-4.059 -1.163,-8.026 -3.861,-10.961c-1.688,-1.857 -2.873,-2.729 -4.847,-3.6c-2.785,-1.216 -6.075,-1.56 -8.904,-0.918Z" style="fill:#fff;fill-rule:nonzero;"/><path d="M114.642,122.132c-5.746,1.169 -10.067,5.412 -11.558,11.305c-0.592,2.27 -0.483,5.595 0.219,7.82c1.141,3.554 2.676,5.801 5.374,7.888c4.43,3.44 10.001,3.944 15.133,1.353c3.378,-1.697 6.317,-5.343 7.479,-9.241c1.645,-5.596 0.066,-11.214 -4.43,-15.686c-1.229,-1.238 -4.475,-2.935 -6.427,-3.348c-1.666,-0.366 -4.276,-0.412 -5.79,-0.091Z" style="fill:#fff;fill-rule:nonzero;"/><path d="M161.687,153.433c-6.667,4.197 -10.966,10.847 -12.107,18.667c-0.241,1.697 -0.307,5.159 -0.307,15.868l0,13.714l49.348,-0l0,-13.943c0,-11.374 -0.066,-14.309 -0.329,-16.075c-1.184,-7.522 -5.549,-14.172 -11.931,-18.139l-1.513,-0.94l-0.943,0.619c-3.203,2.11 -7.786,3.302 -11.361,2.981c-2.742,-0.275 -5.856,-1.33 -8.159,-2.797c-0.68,-0.436 -1.272,-0.78 -1.316,-0.78c-0.044,-0 -0.68,0.367 -1.382,0.825Z" style="fill:#fff;fill-rule:nonzero;"/><path d="M46.411,153.754c-5.527,3.555 -9.65,9.517 -11.251,16.282c-0.439,1.857 -0.461,2.683 -0.527,16.786l-0.087,14.86l49.369,-0l0,-13.828c0,-15.02 -0.088,-16.58 -1.228,-20.065c-0.921,-2.844 -2.873,-6.398 -4.891,-8.944c-1.557,-1.949 -6.558,-6.008 -7.413,-6.008c-0.132,0 -0.921,0.413 -1.755,0.895c-1.842,1.1 -3.926,1.949 -5.658,2.339c-1.557,0.321 -4.957,0.389 -6.777,0.137c-1.711,-0.252 -4.54,-1.33 -6.361,-2.454c-0.833,-0.504 -1.601,-0.917 -1.754,-0.917c-0.132,0 -0.878,0.413 -1.667,0.917Z" style="fill:#fff;fill-rule:nonzero;"/><path d="M104.532,153.732c-1.996,1.261 -4.211,3.256 -5.988,5.411c-2.522,3.027 -3.992,6.031 -5.154,10.434l-0.57,2.179l-0.088,14.974l-0.066,14.952l49.37,-0l-0,-13.37c-0.022,-14.148 -0.132,-16.189 -1.075,-19.652c-0.57,-2.064 -2.566,-6.375 -3.685,-7.934c-1.886,-2.66 -5.197,-5.802 -7.61,-7.201l-1.294,-0.78l-0.68,0.436c-2.478,1.514 -4.891,2.523 -7.172,2.981c-2.061,0.413 -5.527,0.321 -7.545,-0.229c-1.623,-0.413 -4.715,-1.835 -5.79,-2.614c-0.351,-0.275 -0.767,-0.482 -0.943,-0.482c-0.153,0 -0.921,0.413 -1.71,0.895Z" style="fill:#fff;fill-rule:nonzero;"/></g></svg>