<?xml version="1.0" encoding="UTF-8" standalone="no"?><!DOCTYPE svg PUBLIC "-//W3C//DTD SVG 1.1//EN" "http://www.w3.org/Graphics/SVG/1.1/DTD/svg11.dtd"><svg width="100%" height="100%" viewBox="0 0 230 230" version="1.1" xmlns="http://www.w3.org/2000/svg" xmlns:xlink="http://www.w3.org/1999/xlink" xml:space="preserve" xmlns:serif="http://www.serif.com/" style="fill-rule:evenodd;clip-rule:evenodd;stroke-linecap:round;stroke-linejoin:round;stroke-miterlimit:1.5;"><rect x="0" y="0" width="230" height="230" style="fill:#9e9eb0;"/><g><rect x="39.654" y="50.628" width="150.693" height="102.972" style="fill:#fff;stroke:#fff;stroke-width:4.17px;"/><rect x="47.712" y="58.98" width="134.04" height="87.298" style="fill:#9e9eb0;stroke:#fff;stroke-width:4.17px;"/><rect x="50.378" y="76.544" width="68.861" height="102.216" style="fill:#9e9eb0;"/><path d="M81.137,78.988c-1.911,0.341 -4.053,1.067 -5.502,1.836c-1.869,1.024 -4.852,3.415 -5.986,4.823c-5.229,6.425 -6.342,14.706 -2.94,21.835c2.625,5.529 6.931,9.221 12.643,10.843c1.848,0.513 2.352,0.577 5.398,0.555c3.612,0 4.242,-0.128 7.455,-1.409c5.629,-2.262 10.375,-8.046 11.698,-14.321c0.546,-2.54 0.483,-6.937 -0.126,-9.221c-0.882,-3.308 -3.444,-7.748 -5.607,-9.712c-1.113,-1.024 -3.298,-2.582 -4.705,-3.351c-3.381,-1.878 -8.274,-2.625 -12.328,-1.878Z" style="fill:#fff;fill-rule:nonzero;stroke:#fff;stroke-width:4.17px;stroke-linecap:butt;stroke-miterlimit:2;"/><path d="M138.597,96.788c-0.441,0.11 -1.008,0.308 -1.26,0.439c-0.609,0.352 -4.998,3.272 -8.652,5.797c-4.432,3.053 -20.309,13.922 -22.472,15.35c-2.92,1.976 -2.815,1.646 -1.239,3.601c2.016,2.503 4.242,6.5 5.544,10.035c0.273,0.725 0.546,1.405 0.63,1.537c0.084,0.11 0.378,1.01 0.63,1.976c0.273,0.967 0.525,1.801 0.546,1.845c0.042,0.044 1.134,-0.637 2.436,-1.537c3.76,-2.547 19.658,-13.417 23.585,-16.118c1.975,-1.339 4.516,-3.096 5.671,-3.843c1.155,-0.768 2.541,-1.778 3.087,-2.24c3.171,-2.722 4.033,-7.773 2.016,-11.901c-0.987,-2.02 -3.528,-4.128 -5.817,-4.831c-1.239,-0.373 -3.402,-0.439 -4.705,-0.11Z" style="fill:#fff;fill-rule:nonzero;stroke:#fff;stroke-width:4.17px;stroke-linecap:butt;stroke-miterlimit:2;"/><path d="M70.81,117.909c-2.198,1.198 -4.638,3.092 -6.595,5.14c-2.778,2.874 -4.396,5.727 -5.676,9.908l-0.628,2.069l-0.097,14.221l-0.061,27.125l54.364,0l-0,-25.622c-0.025,-13.437 -0.145,-15.375 -1.184,-18.664c-0.628,-1.96 -2.826,-6.054 -4.058,-7.535c-2.078,-2.526 -5.725,-5.509 -8.382,-6.838l-1.426,-0.74l-0.748,0.413c-2.73,1.438 -5.387,2.396 -7.899,2.831c-2.271,0.392 -6.088,0.305 -8.31,-0.217c-1.788,-0.392 -5.194,-1.742 -6.377,-2.483c-0.387,-0.261 -0.846,-0.457 -1.039,-0.457c-0.169,-0 -1.014,0.392 -1.884,0.849Z" style="fill:#fff;fill-rule:nonzero;stroke:#fff;stroke-width:4.17px;stroke-linecap:butt;stroke-miterlimit:2;"/></g></svg>