<?xml version="1.0" standalone="no"?>
<!DOCTYPE svg PUBLIC "-//W3C//DTD SVG 20010904//EN"
 "http://www.w3.org/TR/2001/REC-SVG-20010904/DTD/svg10.dtd">
<svg version="1.0" xmlns="http://www.w3.org/2000/svg"
 width="849.000000pt" height="856.000000pt" viewBox="0 0 849.000000 856.000000"
 preserveAspectRatio="xMidYMid meet">
<metadata>
Created by potrace 1.16, written by Peter Selinger 2001-2019
</metadata>
<g transform="translate(0.000000,856.000000) scale(0.100000,-0.100000)"
fill="#000000" stroke="none">
<path d="M0 4280 l0 -4280 4245 0 4245 0 0 4280 0 4280 -4245 0 -4245 0 0
-4280z m1515 4111 c-16 -15 -77 -18 -82 -3 -3 8 9 12 43 12 29 0 44 -4 39 -9z
m5635 0 c0 -16 -19 -23 -40 -16 -30 10 -24 25 10 25 17 0 30 -4 30 -9z m110
-21 c-12 -22 -31 -23 -38 -2 -2 7 6 12 17 12 12 0 21 5 21 12 0 6 3 9 6 6 3
-4 0 -16 -6 -28z m-5999 -10 c10 0 19 -7 19 -15 0 -22 -27 -19 -40 4 -5 11
-10 23 -9 28 0 4 3 2 6 -4 2 -7 13 -13 24 -13z m109 11 c0 -6 -5 -13 -10 -16
-15 -9 -43 3 -35 15 8 13 45 13 45 1z m5968 -23 c-6 -18 -28 -21 -28 -4 0 9 7
16 16 16 9 0 14 -5 12 -12z m-6120 -20 c-7 -19 -38 -22 -38 -4 0 10 9 16 21
16 12 0 19 -5 17 -12z m6182 -3 c0 -8 -7 -15 -15 -15 -8 0 -15 7 -15 15 0 8 7
15 15 15 8 0 15 -7 15 -15z m70 -16 c-12 -21 -31 -22 -37 -2 -2 6 6 13 19 16
13 2 24 5 26 6 1 0 -2 -8 -8 -20z m-6312 -1 c-7 -19 -38 -22 -38 -4 0 10 9 16
21 16 12 0 19 -5 17 -12z m6352 -18 c-12 -23 -30 -27 -30 -6 0 8 8 17 18 19 9
3 18 5 20 6 1 0 -2 -8 -8 -19z m-6400 -5 c0 -8 -7 -15 -15 -15 -8 0 -15 7 -15
15 0 8 7 15 15 15 8 0 15 -7 15 -15z m-50 -21 c0 -21 -27 -17 -33 5 -3 14 0
17 14 14 11 -3 19 -12 19 -19z m6503 19 c-7 -2 -13 -11 -13 -19 0 -8 -7 -14
-15 -14 -21 0 -19 28 3 33 23 6 40 7 25 0z m-6543 -39 c0 -21 -27 -17 -33 5
-3 14 0 17 14 14 11 -3 19 -12 19 -19z m6570 1 c0 -8 -4 -15 -9 -15 -13 0 -22
16 -14 24 11 11 23 6 23 -9z m-6619 -5 c5 0 9 -7 9 -15 0 -8 -7 -15 -15 -15
-8 0 -15 6 -15 14 0 8 -3 16 -7 19 -5 2 -2 2 5 0 8 -1 18 -3 23 -3z m6659 -15
c0 -8 -7 -15 -15 -15 -16 0 -20 12 -8 23 11 12 23 8 23 -8z m-6693 -21 c4 -12
-37 -38 -45 -28 -4 4 -1 9 6 11 6 3 12 11 12 20 0 15 21 14 27 -3z m6747 -10
l19 -26 -24 7 c-31 10 -43 21 -35 34 11 16 19 13 40 -15z m-6056 -6 c3 -16 -6
-18 -74 -18 -71 0 -76 1 -58 14 39 28 127 30 132 4z m5467 -4 c17 -12 9 -14
-67 -14 -47 0 -92 -2 -100 -3 -7 -2 -10 -2 -5 0 4 3 7 11 7 18 0 7 6 16 13 18
21 9 131 -5 152 -19z m-5671 -19 c-4 -8 -15 -15 -25 -15 -10 0 -19 7 -19 15 0
9 9 15 25 15 18 0 23 -4 19 -15z m5784 3 c-7 -20 -68 -23 -68 -4 0 12 10 16
36 16 24 0 34 -4 32 -12z m-6338 -6 c0 -13 -23 -32 -39 -32 -11 0 -10 4 4 20
19 21 35 26 35 12z m6877 -7 c19 -20 14 -26 -15 -18 -12 3 -22 12 -22 19 0 19
18 18 37 -1z m-6407 -10 c0 -8 5 -15 12 -15 6 0 9 -2 7 -5 -3 -2 -15 -2 -27 2
-25 6 -30 33 -7 33 8 0 15 -7 15 -15z m5945 5 c3 -6 0 -12 -7 -14 -21 -7 -84
-15 -70 -9 6 2 12 11 12 19 0 16 55 20 65 4z m-6003 -28 c4 -15 1 -18 -18 -14
-13 2 -24 11 -24 18 0 21 37 17 42 -4z m6048 4 c0 -7 -9 -16 -19 -19 -17 -4
-18 -2 -8 14 14 22 27 25 27 5z m-6554 -16 c18 0 18 -17 0 -36 -20 -19 -33
-18 -39 5 -3 14 -1 18 10 14 12 -5 14 -1 9 18 -3 13 -3 18 0 12 3 -7 12 -13
20 -13z m7050 -16 c20 -19 33 -38 29 -42 -3 -3 -9 -2 -13 4 -4 6 -22 19 -39
29 -18 11 -33 25 -33 32 0 22 19 14 56 -23z m-6614 11 c0 -5 -5 -11 -11 -13
-6 -2 -11 4 -11 13 0 9 5 15 11 13 6 -2 11 -8 11 -13z m6178 0 c0 -8 -9 -15
-20 -15 -11 0 -20 7 -20 15 0 8 9 15 20 15 11 0 20 -7 20 -15z m-6220 -21 c0
-17 -22 -14 -28 4 -2 7 3 12 12 12 9 0 16 -7 16 -16z m6270 1 c0 -8 -7 -15
-15 -15 -8 0 -15 7 -15 15 0 8 7 15 15 15 8 0 15 -7 15 -15z m-6310 -20 c0 -8
-7 -15 -15 -15 -8 0 -15 7 -15 15 0 8 7 15 15 15 8 0 15 -7 15 -15z m6350 1
c0 -13 -39 -30 -49 -21 -2 3 1 5 7 5 7 0 12 7 12 15 0 8 7 15 15 15 8 0 15 -6
15 -14z m-6390 -21 c0 -8 -7 -15 -15 -15 -8 0 -15 7 -15 15 0 8 7 15 15 15 8
0 15 -7 15 -15z m6460 -11 c22 -15 40 -31 40 -35 0 -12 -27 -11 -35 1 -9 14
-42 12 -49 -2 -3 -7 -3 -3 0 10 3 12 1 22 -5 22 -6 0 -11 -5 -11 -12 0 -6 -2
-9 -5 -7 -7 8 6 49 16 49 5 0 27 -12 49 -26z m-6497 -18 c4 -10 0 -12 -14 -9
-22 6 -26 23 -5 23 8 0 16 -6 19 -14z m-65 -34 c2 -7 -3 -12 -12 -12 -9 0 -16
7 -16 16 0 17 22 14 28 -4z m6665 -17 c21 -19 41 -35 45 -35 9 0 172 -164 172
-173 0 -3 16 -23 35 -44 19 -21 35 -41 35 -45 0 -16 -26 -7 -40 12 -8 11 -21
20 -28 20 -8 0 -12 6 -9 15 4 9 -30 50 -94 114 -64 64 -105 98 -114 94 -9 -3
-15 1 -15 9 0 7 -9 20 -20 28 -19 14 -28 40 -12 40 4 0 24 -16 45 -35z m-6770
-69 c-28 -34 -53 -46 -53 -26 0 15 52 59 68 60 9 0 3 -13 -15 -34z m7152 -11
c37 -36 44 -55 22 -55 -8 0 -22 16 -33 35 -10 19 -22 35 -26 35 -5 0 -8 5 -8
10 0 17 9 12 45 -25z m-7481 5 c22 18 30 7 14 -19 -13 -21 -38 -29 -38 -12 0
5 -3 18 -6 28 -5 14 -4 15 4 4 9 -12 13 -13 26 -1z m-47 -100 c-14 -23 -37
-27 -37 -6 0 8 -6 17 -12 20 -7 3 -2 3 11 0 19 -5 23 -3 18 10 -5 14 -3 15 13
6 17 -9 18 -14 7 -30z m7589 16 c18 -19 18 -36 -1 -36 -8 0 -15 4 -15 9 0 5
-3 16 -6 25 -8 20 3 21 22 2z m-7313 -15 c3 -14 1 -18 -10 -14 -12 5 -14 1 -9
-18 3 -13 3 -18 0 -11 -8 17 -17 15 -43 -9 l-23 -22 7 23 c9 27 45 69 61 69 7
1 14 -8 17 -18z m-321 -53 c-7 -7 -12 -8 -12 -2 0 14 12 26 19 19 2 -3 -1 -11
-7 -17z m7698 -20 c0 -12 -21 -21 -30 -12 -4 5 -11 20 -15 33 l-7 24 26 -19
c14 -11 26 -22 26 -26z m-7460 -19 c0 -6 -11 -20 -25 -30 -13 -11 -22 -25 -20
-32 3 -7 -7 -20 -20 -30 -22 -15 -25 -16 -25 -2 0 8 8 23 18 33 9 10 23 30 31
45 14 27 41 37 41 16z m653 4 c-7 -2 -13 -13 -13 -24 0 -24 -23 -25 -46 -1
-17 16 -16 17 17 23 43 8 57 9 42 2z m645 -8 c2 -2 -11 -13 -28 -25 -17 -12
-34 -19 -38 -15 -4 4 -1 10 6 12 6 3 12 11 12 18 0 7 -6 16 -12 18 -7 3 3 3
22 0 19 -3 36 -7 38 -8z m1085 8 c-15 -6 -17 -33 -3 -33 6 0 10 -27 10 -60 0
-39 4 -60 12 -60 6 0 9 -3 6 -6 -4 -3 -15 -1 -27 5 -17 10 -19 18 -14 60 5 43
3 50 -16 60 -27 15 -27 28 2 34 31 6 44 6 30 0z m176 -9 c2 -2 -10 -18 -28
-36 -29 -30 -31 -30 -31 -10 0 12 5 22 10 22 14 0 12 27 -2 34 -7 3 1 3 17 -1
17 -3 32 -7 34 -9z m233 -9 c-5 -30 -32 -33 -56 -6 -17 19 -17 20 21 24 21 2
39 4 39 5 1 1 -1 -9 -4 -23z m1526 10 c5 -4 -52 -55 -60 -55 -5 0 -8 7 -8 15
0 8 5 15 10 15 14 0 12 27 -2 33 -7 3 3 3 22 0 19 -3 36 -7 38 -8z m1286 -9
c-5 -13 -55 -38 -63 -30 -3 3 1 9 8 14 8 4 11 14 8 22 -4 11 2 13 23 10 16 -2
27 -9 24 -16z m209 4 c-3 -11 0 -20 6 -20 6 0 11 -7 11 -15 0 -21 -15 -19 -44
9 -33 29 -32 34 2 39 15 2 28 5 29 6 0 0 -1 -8 -4 -19z m-5399 -5 c-4 -8 -12
-15 -20 -15 -8 0 -14 -7 -14 -15 0 -8 -7 -15 -15 -15 -20 0 -19 16 3 39 21 24
54 28 46 6z m1086 -5 c45 -45 14 -54 -33 -10 -30 28 -31 30 -9 30 12 0 31 -9
42 -20z m651 -11 c-22 -19 -37 -27 -43 -21 -15 15 22 50 52 51 24 1 24 0 -9
-30z m1283 16 c-4 -8 -12 -15 -20 -15 -8 0 -14 -4 -14 -10 0 -5 -7 -10 -15
-10 -19 0 -19 6 3 29 21 24 54 28 46 6z m206 0 c0 -8 5 -15 10 -15 6 0 10 -7
10 -15 0 -21 -11 -19 -43 10 -33 32 -34 35 -2 35 16 0 25 -6 25 -15z m879 -4
c13 -13 20 -38 23 -87 2 -37 2 -62 0 -56 -2 7 -11 12 -19 12 -12 0 -15 8 -10
40 6 49 -1 80 -19 80 -8 0 -14 7 -14 15 0 20 16 19 39 -4z m211 16 c0 -11 -58
-66 -63 -60 -13 12 -7 33 8 33 8 0 15 7 15 15 0 8 9 15 20 15 11 0 20 -1 20
-3z m228 -14 c7 -24 -29 -27 -51 -4 l-22 22 34 -3 c19 -2 36 -9 39 -15z m1526
2 c-4 -8 -10 -15 -14 -15 -5 0 -16 -7 -24 -16 -9 -8 -20 -12 -26 -9 -15 9 -12
25 5 25 8 0 15 7 15 15 0 9 9 15 25 15 18 0 23 -4 19 -15z m196 0 c0 -8 7 -15
15 -15 11 0 15 -13 15 -54 0 -30 3 -63 6 -73 3 -11 2 -14 -3 -7 -4 6 -16 13
-26 17 -14 5 -17 13 -11 29 4 13 7 28 7 33 0 38 -5 55 -17 55 -8 0 -16 7 -20
15 -4 10 1 15 14 15 11 0 20 -7 20 -15z m-6948 -10 c0 -5 -5 -11 -11 -13 -6
-2 -11 4 -11 13 0 9 5 15 11 13 6 -2 11 -8 11 -13z m7746 3 c-6 -18 -28 -21
-28 -4 0 9 7 16 16 16 9 0 14 -5 12 -12z m-7768 -44 c0 -17 -22 -14 -28 4 -2
7 3 12 12 12 9 0 16 -7 16 -16z m950 -4 c0 -21 -15 -27 -25 -10 -7 12 2 30 16
30 5 0 9 -9 9 -20z m1436 0 c16 0 19 -46 3 -55 -14 -9 -15 -7 -22 40 -3 22 -3
34 0 28 2 -7 11 -13 19 -13z m714 -1 c0 -24 -23 -21 -28 4 -2 10 3 17 12 17
10 0 16 -9 16 -21z m556 1 c16 0 19 -35 5 -45 -12 -7 -16 1 -24 40 -4 17 -4
24 -1 18 3 -7 12 -13 20 -13z m1614 0 c0 -11 -7 -20 -15 -20 -8 0 -15 9 -15
20 0 11 7 20 15 20 8 0 15 -9 15 -20z m1433 -3 c21 -8 21 -17 3 -43 -18 -24
-22 -20 -29 31 -4 22 -3 35 1 29 4 -6 15 -13 25 -17z m847 4 c17 -33 12 -46
-10 -26 -21 19 -27 45 -10 45 5 0 14 -9 20 -19z m238 8 c-2 -6 -8 -10 -13 -10
-5 0 -11 4 -13 10 -2 6 4 11 13 11 9 0 15 -5 13 -11z m-7822 -29 c8 0 14 -7
14 -15 0 -8 -4 -15 -10 -15 -10 0 -31 33 -29 47 0 4 3 2 6 -4 2 -7 11 -13 19
-13z m1560 9 c3 -6 -1 -18 -10 -27 -15 -15 -16 -14 -16 11 0 27 13 36 26 16z
m307 -21 c-6 -32 -33 -38 -33 -8 0 11 7 20 15 20 8 0 15 5 15 12 0 6 2 9 4 7
2 -2 2 -16 -1 -31z m2717 18 c0 -22 -11 -46 -21 -46 -5 0 -9 14 -9 30 0 20 5
30 15 30 8 0 15 -6 15 -14z m1288 -8 c-2 -13 -7 -23 -13 -23 -5 0 -11 10 -13
23 -2 15 2 22 13 22 11 0 15 -7 13 -22z m305 -10 c-5 -27 -33 -40 -33 -16 0 9
32 48 37 44 1 0 -1 -13 -4 -28z m1670 4 c-6 -25 -33 -30 -33 -7 0 8 7 15 15
15 8 0 15 5 15 12 0 6 2 9 5 7 2 -3 2 -15 -2 -27z m-7145 -20 c2 -23 -1 -32
-12 -32 -8 0 -16 -3 -19 -7 -2 -5 -2 -2 0 5 1 8 3 27 3 44 0 40 24 32 28 -10z
m2146 22 c12 -31 6 -52 -16 -57 -12 -4 -24 -4 -27 -2 -2 3 1 5 7 5 7 0 12 15
12 35 0 36 13 47 24 19z m2168 -23 c2 -16 -4 -26 -18 -31 -18 -7 -20 -5 -17
18 8 45 13 56 23 46 5 -5 11 -20 12 -33z m-1859 -9 c-6 -36 -26 -38 -31 -4 -2
15 2 22 12 22 9 0 16 5 16 12 0 6 2 9 4 7 2 -2 1 -19 -1 -37z m847 18 c0 -19
-11 -26 -23 -14 -8 8 3 34 14 34 5 0 9 -9 9 -20z m1323 -17 c-6 -39 -33 -45
-33 -8 0 16 6 25 15 25 8 0 15 5 15 12 0 6 2 9 4 7 2 -2 1 -19 -1 -36z m-4323
-8 c0 -14 -4 -25 -9 -25 -12 0 -23 29 -15 41 10 18 24 9 24 -16z m2666 5 c9 0
14 -11 14 -30 0 -20 -5 -30 -15 -30 -9 0 -15 9 -15 24 0 13 -2 30 -3 38 -2 7
-2 10 0 6 3 -5 11 -8 19 -8z m-3676 -16 c0 -21 -27 -17 -33 5 -3 14 0 17 14
14 11 -3 19 -12 19 -19z m240 10 c0 -9 -5 -14 -12 -12 -18 6 -21 28 -4 28 9 0
16 -7 16 -16z m5611 6 c15 0 6 -53 -8 -58 -9 -2 -13 7 -13 26 0 17 -3 32 -7
35 -5 2 -2 2 5 0 8 -1 18 -3 23 -3z m1779 -4 c0 -13 -39 -30 -49 -21 -2 3 1 5
7 5 7 0 12 7 12 15 0 8 7 15 15 15 8 0 15 -6 15 -14z m243 -6 c-3 -11 -12 -20
-19 -20 -20 0 -17 28 4 33 9 3 18 5 19 6 0 0 -1 -8 -4 -19z m-6327 -4 c7 -18
-14 -58 -27 -51 -10 7 -12 48 -2 58 11 11 23 8 29 -7z m346 -31 c-5 -41 -25
-42 -30 -3 -2 19 2 28 15 31 10 3 18 5 18 6 1 0 -1 -15 -3 -34z m526 -2 c-5
-29 -25 -25 -30 6 -4 27 -2 29 14 20 11 -6 18 -18 16 -26z m1624 2 c-5 -39
-16 -45 -32 -16 -14 27 -13 30 13 41 12 5 22 9 22 9 1 1 -1 -15 -3 -34z m2171
28 c-7 -2 -13 -18 -13 -34 0 -34 -16 -39 -26 -7 -6 22 17 49 40 47 6 0 5 -3
-1 -6z m517 -30 c0 -32 -22 -25 -31 9 -6 22 -4 25 12 21 12 -4 19 -14 19 -30z
m-2166 18 c8 -12 -3 -41 -15 -41 -5 0 -9 11 -9 25 0 25 14 34 24 16z m-4344
-17 c0 -17 -22 -14 -28 4 -2 7 3 12 12 12 9 0 16 -7 16 -16z m510 -15 c0 -10
-6 -19 -14 -19 -8 0 -17 -6 -20 -12 -3 -7 -3 1 1 17 3 17 8 33 10 38 7 13 23
-3 23 -24z m1970 6 c0 -16 -6 -25 -15 -25 -15 0 -21 31 -8 43 13 14 23 6 23
-18z m178 -3 c2 -14 -2 -22 -11 -22 -9 0 -17 -3 -20 -7 -2 -5 -2 -2 0 5 1 8 3
23 3 34 0 26 24 18 28 -10z m315 21 c-7 -2 -13 -18 -13 -35 0 -37 -24 -33 -28
4 -2 19 2 28 15 31 24 6 41 7 26 0z m1660 -38 c4 -16 4 -24 1 -17 -3 6 -12 12
-20 12 -14 0 -20 31 -7 43 10 10 20 -4 26 -38z m191 29 c7 -18 0 -34 -15 -34
-5 0 -9 11 -9 25 0 28 15 34 24 9z m308 -19 c-5 -44 -32 -49 -32 -6 0 20 6 31
18 34 9 3 17 5 17 6 1 0 -1 -15 -3 -34z m1661 28 c2 -5 7 -21 10 -38 4 -16 4
-24 1 -17 -3 6 -12 12 -19 12 -18 0 -26 15 -19 34 6 17 20 21 27 9z m637 -8
c0 -8 -7 -15 -15 -15 -8 0 -15 -5 -15 -12 0 -6 -2 -9 -5 -7 -2 3 -2 15 2 27 6
25 33 30 33 7z m242 -10 c-5 -27 -16 -32 -28 -13 -4 6 1 17 11 25 24 17 23 17
17 -12z m-6854 -18 c2 -19 -1 -27 -12 -27 -17 0 -31 34 -21 50 11 18 30 5 33
-23z m-1068 -3 c0 -21 -17 -17 -23 5 -3 14 -1 18 9 14 8 -3 14 -11 14 -19z
m230 -10 c0 -17 -22 -14 -28 4 -2 7 3 12 12 12 9 0 16 -7 16 -16z m7470 1 c0
-8 -7 -15 -15 -15 -8 0 -15 7 -15 15 0 8 7 15 15 15 8 0 15 -7 15 -15z m-6147
-36 c-3 -10 -12 -19 -19 -19 -18 0 -19 47 -1 53 16 5 26 -11 20 -34z m3022 2
c-3 -12 -11 -21 -16 -21 -10 0 -12 43 -2 53 12 13 25 -10 18 -32z m1293 3 c-5
-28 -28 -29 -28 -1 0 13 3 27 7 30 10 11 25 -9 21 -29z m872 6 c0 -20 -5 -30
-15 -30 -29 0 -18 50 13 59 1 1 2 -12 2 -29z m-4312 -2 c-5 -32 -28 -35 -28
-4 0 17 5 26 16 26 10 0 14 -7 12 -22z m1272 -3 c0 -16 -6 -25 -15 -25 -9 0
-15 9 -15 25 0 16 6 25 15 25 9 0 15 -9 15 -25z m-2920 -5 c0 -11 -7 -20 -15
-20 -8 0 -15 9 -15 20 0 11 7 20 15 20 8 0 15 -9 15 -20z m1930 0 c0 -11 -7
-20 -15 -20 -15 0 -21 21 -8 33 12 13 23 7 23 -13z m218 -3 c2 -10 -3 -17 -12
-17 -10 0 -16 9 -16 21 0 24 23 21 28 -4z m1162 -8 c0 -10 -7 -19 -15 -19 -9
0 -15 9 -15 25 0 18 4 23 15 19 8 -4 15 -15 15 -25z m770 11 c0 -11 -7 -20
-15 -20 -8 0 -15 9 -15 20 0 11 7 20 15 20 8 0 15 -9 15 -20z m235 0 c0 -7 -6
-15 -12 -17 -8 -3 -13 4 -13 17 0 13 5 20 13 18 6 -3 12 -11 12 -18z m1925 0
c0 -21 -15 -27 -25 -10 -7 12 2 30 16 30 5 0 9 -9 9 -20z m-7030 -5 c0 -8 -7
-15 -15 -15 -8 0 -15 7 -15 15 0 8 7 15 15 15 8 0 15 -7 15 -15z m1950 -6 c0
-24 -23 -21 -28 4 -2 10 3 17 12 17 10 0 16 -9 16 -21z m4310 1 c0 -21 -15
-27 -25 -10 -7 12 2 30 16 30 5 0 9 -9 9 -20z m1690 5 c0 -8 -7 -15 -15 -15
-8 0 -15 7 -15 15 0 8 7 15 15 15 8 0 15 -7 15 -15z m-7730 -5 c0 -5 -4 -10
-9 -10 -6 0 -13 5 -16 10 -3 6 1 10 9 10 9 0 16 -4 16 -10z m880 -21 c0 -10
-7 -19 -15 -19 -9 0 -15 9 -15 25 0 18 4 23 15 19 8 -4 15 -15 15 -25z m6630
11 c0 -11 -7 -20 -15 -20 -8 0 -15 9 -15 20 0 11 7 20 15 20 8 0 15 -9 15 -20z
m-4490 -11 c0 -24 -23 -21 -28 4 -2 10 3 17 12 17 10 0 16 -9 16 -21z m2170 1
c0 -11 -7 -20 -15 -20 -8 0 -15 9 -15 20 0 11 7 20 15 20 8 0 15 -9 15 -20z
m-5430 -29 c0 -17 -12 -41 -21 -41 -5 0 -9 11 -9 25 0 16 6 25 15 25 8 0 15
-4 15 -9z m218 -8 c-4 -22 -22 -20 -26 1 -2 10 3 16 13 16 10 0 15 -7 13 -17z
m617 -3 c8 -24 1 -36 -23 -42 -15 -4 -17 0 -14 29 5 37 27 45 37 13z m307 -23
c-5 -43 -25 -45 -30 -4 -2 19 1 27 12 27 9 0 16 5 16 12 0 6 2 9 4 7 2 -2 1
-21 -2 -42z m418 18 c0 -16 -6 -25 -15 -25 -9 0 -15 9 -15 25 0 16 6 25 15 25
9 0 15 -9 15 -25z m430 -1 c0 -31 -23 -28 -28 4 -2 15 2 22 12 22 11 0 16 -9
16 -26z m448 9 c-5 -25 -28 -28 -28 -4 0 12 6 21 16 21 9 0 14 -7 12 -17z
m282 -12 c0 -16 6 -32 13 -35 6 -3 0 -3 -15 0 -26 6 -26 5 -18 -32 5 -21 7
-40 4 -43 -2 -2 -4 1 -4 7 0 7 -7 12 -15 12 -17 0 -21 45 -5 55 6 3 10 19 10
36 0 19 5 29 15 29 10 0 15 -10 15 -29z m260 0 c0 -21 -6 -30 -22 -34 -12 -4
-24 -4 -27 -2 -2 3 1 5 7 5 7 0 12 14 12 30 0 20 5 30 15 30 10 0 15 -10 15
-29z m728 7 c-5 -32 -28 -35 -28 -4 0 17 5 26 16 26 10 0 14 -7 12 -22z m430
0 c-5 -32 -28 -35 -28 -4 0 17 5 26 16 26 10 0 14 -7 12 -22z m442 2 c0 -11
-7 -20 -15 -20 -8 0 -15 9 -15 20 0 11 7 20 15 20 8 0 15 -9 15 -20z m292 -14
c3 -30 2 -33 -17 -26 -11 4 -20 12 -19 19 1 6 2 18 3 26 2 30 29 15 33 -19z
m276 6 c3 -20 -33 -50 -46 -38 -3 3 0 6 6 6 7 0 12 14 12 31 0 35 23 36 28 1z
m304 -15 c-5 -43 -25 -45 -30 -4 -2 19 1 27 12 27 9 0 16 5 16 12 0 6 2 9 4 7
2 -2 1 -21 -2 -42z m422 34 c8 -12 -3 -41 -15 -41 -5 0 -9 11 -9 25 0 25 14
34 24 16z m426 -16 c0 -14 -4 -25 -9 -25 -12 0 -23 29 -15 41 10 18 24 9 24
-16z m450 5 c0 -11 -7 -20 -15 -20 -8 0 -15 9 -15 20 0 11 7 20 15 20 8 0 15
-9 15 -20z m280 -10 c0 -16 5 -30 12 -30 6 0 9 -3 6 -6 -4 -3 -16 -1 -27 6
-20 10 -28 40 -14 53 14 15 23 6 23 -23z m740 10 c0 -13 -5 -18 -15 -14 -16 7
-19 17 -8 27 12 13 23 7 23 -13z m220 5 c0 -8 -7 -15 -15 -15 -16 0 -20 12 -8
23 11 12 23 8 23 -8z m-4710 -36 c0 -27 -2 -30 -15 -19 -8 7 -15 21 -15 31 0
11 7 19 15 19 10 0 15 -10 15 -31z m882 -31 c-5 -47 -32 -53 -32 -8 0 20 5 30
15 30 8 0 15 5 15 12 0 6 2 9 4 7 2 -2 1 -21 -2 -41z m383 22 c20 0 25 -26 10
-47 -17 -23 -21 -18 -28 32 -3 22 -3 34 0 28 2 -7 11 -13 18 -13z m2171 0 c16
0 19 -46 3 -55 -14 -9 -15 -7 -22 40 -3 22 -3 34 0 28 2 -7 11 -13 19 -13z
m-4693 3 c-7 -2 -13 -18 -13 -35 0 -37 -24 -33 -28 4 -2 19 2 28 15 31 24 6
41 7 26 0z m388 -3 c15 0 10 -36 -6 -50 -13 -11 -15 -8 -15 18 0 17 -3 32 -7
35 -5 2 -2 2 5 0 8 -1 18 -3 23 -3z m5379 -25 c0 -24 -5 -35 -14 -35 -8 0 -16
-3 -19 -7 -2 -5 -2 -2 0 5 1 8 3 27 3 43 0 19 5 29 15 29 10 0 15 -11 15 -35z
m-7590 1 c0 -13 2 -30 3 -38 2 -7 2 -10 0 -5 -3 4 -11 7 -19 7 -9 0 -14 11
-14 30 0 20 5 30 15 30 9 0 15 -9 15 -24z m1326 4 c16 0 19 -35 5 -45 -12 -7
-16 1 -24 40 -4 17 -4 24 -1 18 3 -7 12 -13 20 -13z m4802 -13 c2 -19 -1 -27
-12 -27 -17 0 -31 34 -21 50 11 18 30 5 33 -23z m-6350 -14 c-5 -29 -25 -25
-30 6 -4 27 -2 29 14 20 11 -6 18 -18 16 -26z m876 20 c9 -22 -10 -41 -25 -26
-13 13 -5 43 10 43 5 0 12 -8 15 -17z m2146 -8 c0 -15 -6 -25 -14 -25 -8 0
-16 -3 -19 -7 -2 -5 -2 -2 0 5 1 8 3 22 3 33 0 10 7 19 15 19 9 0 15 -9 15
-25z m675 11 c11 -8 16 -19 12 -30 -10 -24 -27 -19 -27 8 0 13 -6 27 -12 29
-7 3 -8 6 -2 6 5 1 19 -5 29 -13z m1168 7 c2 -5 7 -21 10 -38 4 -16 4 -24 1
-17 -3 6 -12 12 -19 12 -18 0 -26 15 -19 34 6 17 20 21 27 9z m325 -20 c2 -14
-4 -22 -20 -26 -12 -4 -24 -4 -27 -2 -2 3 1 5 7 5 7 0 12 12 12 26 0 30 23 28
28 -3z m1842 2 c0 -14 5 -25 12 -25 6 0 9 -2 7 -5 -3 -2 -15 -2 -27 2 -21 5
-30 32 -15 46 13 14 23 6 23 -18z m1014 17 c-7 -4 -13 -15 -15 -24 -3 -13 -8
-15 -19 -8 -13 9 -12 12 4 25 11 8 25 15 30 15 7 0 7 -3 0 -8z m-2172 -14 c6
-17 -1 -38 -13 -38 -5 0 -9 11 -9 25 0 26 14 34 22 13z m-4691 -25 c-9 -33
-25 -37 -29 -6 -2 14 3 23 15 26 10 3 19 5 20 6 1 0 -2 -11 -6 -26z m4322 20
c-7 -2 -13 -16 -13 -29 0 -27 -17 -32 -27 -8 -6 17 20 45 41 43 6 0 5 -3 -1
-6z m-2183 -30 c0 -25 -1 -26 -16 -11 -9 9 -13 21 -10 27 13 20 26 11 26 -16z
m-2426 -19 c7 -18 0 -34 -15 -34 -5 0 -9 11 -9 25 0 28 15 34 24 9z m644 -27
c-4 -45 -25 -45 -30 1 -3 34 -1 38 15 34 13 -3 17 -12 15 -35z m1165 -2 c4
-16 4 -24 1 -17 -3 6 -12 12 -20 12 -14 0 -20 31 -7 43 10 10 20 -4 26 -38z
m337 14 c0 -10 -6 -19 -14 -19 -8 0 -17 -6 -20 -12 -3 -7 -3 1 1 17 3 17 8 33
10 38 7 13 23 -3 23 -24z m1514 19 c5 4 6 -4 4 -17 -5 -36 -25 -37 -30 -2 -3
23 -1 28 7 21 7 -5 15 -6 19 -2z m293 -4 c8 -20 -13 -42 -27 -28 -12 12 -3 44
11 44 5 0 12 -7 16 -16z m361 -12 c2 -15 -2 -22 -12 -22 -11 0 -16 9 -16 26 0
31 23 28 28 -4z m1164 -2 c-2 -16 -10 -30 -17 -30 -17 0 -25 23 -14 41 5 8 9
10 9 5 0 -6 5 -5 12 2 7 7 13 12 13 12 1 0 0 -13 -3 -30z m638 5 c0 -16 -6
-25 -15 -25 -15 0 -21 31 -8 43 13 14 23 6 23 -18z m820 -10 c0 -24 -5 -35
-15 -35 -15 0 -22 50 -8 63 15 15 23 5 23 -28z m-7630 -5 c0 -20 -5 -30 -15
-30 -15 0 -21 40 -8 53 14 15 23 6 23 -23z m1850 -1 c0 -20 -15 -26 -25 -9 -9
15 3 43 15 35 5 -3 10 -15 10 -26z m367 -3 c-4 -9 -11 -16 -17 -16 -11 0 -14
33 -3 43 11 11 26 -10 20 -27z m1273 5 c0 -10 -7 -24 -15 -31 -13 -11 -15 -8
-15 17 0 16 3 33 6 36 11 10 24 -3 24 -22z m508 1 c2 -15 -2 -22 -12 -22 -11
0 -16 9 -16 26 0 31 23 28 28 -4z m1654 -17 c-6 -14 -16 -25 -22 -25 -14 0
-12 57 3 63 21 8 31 -11 19 -38z m875 11 c-4 -9 -11 -16 -17 -16 -11 0 -14 33
-3 43 11 11 26 -10 20 -27z m-5529 -20 c-4 -29 -22 -23 -26 9 -3 19 0 24 13
19 9 -4 15 -15 13 -28z m2142 -2 c0 -13 -4 -24 -9 -24 -13 0 -24 37 -16 50 10
16 25 1 25 -26z m2170 6 c0 -25 -18 -36 -26 -16 -8 21 3 49 16 41 5 -3 10 -15
10 -25z m-3720 -10 c0 -21 -24 -28 -35 -10 -8 14 3 30 21 30 8 0 14 -9 14 -20z
m2148 -3 c2 -12 -3 -17 -17 -17 -15 0 -21 6 -21 21 0 25 33 22 38 -4z m2162 3
c0 -11 -7 -20 -15 -20 -8 0 -15 9 -15 20 0 11 7 20 15 20 8 0 15 -9 15 -20z
m-6122 -17 c-4 -39 -28 -42 -28 -4 0 21 5 31 16 31 11 0 14 -8 12 -27z m8072
-3 c0 -16 -4 -30 -9 -30 -12 0 -24 37 -16 50 12 20 25 10 25 -20z m-7135 0 c0
-7 -6 -15 -12 -17 -8 -3 -13 4 -13 17 0 13 5 20 13 18 6 -3 12 -11 12 -18z
m1765 0 c0 -11 -7 -20 -15 -20 -8 0 -15 9 -15 20 0 11 7 20 15 20 8 0 15 -9
15 -20z m380 0 c0 -11 -7 -20 -15 -20 -8 0 -15 9 -15 20 0 11 7 20 15 20 8 0
15 -9 15 -20z m1760 0 c0 -11 -4 -20 -9 -20 -14 0 -23 18 -16 30 10 17 25 11
25 -10z m408 -3 c2 -10 -3 -17 -12 -17 -10 0 -16 9 -16 21 0 24 23 21 28 -4z
m1162 -18 c0 -16 -4 -29 -10 -29 -14 0 -31 36 -24 54 9 24 34 6 34 -25z m600
21 c0 -11 -7 -20 -15 -20 -15 0 -21 21 -8 33 12 13 23 7 23 -13z m-4920 -20
c0 -32 -14 -40 -24 -14 -10 27 -7 44 9 44 10 0 15 -10 15 -30z m330 21 c0 -17
-12 -41 -21 -41 -5 0 -9 11 -9 25 0 16 6 25 15 25 8 0 15 -4 15 -9z m1820 -22
c0 -38 -24 -35 -28 4 -2 19 1 27 12 27 11 0 16 -10 16 -31z m320 5 c0 -31 -23
-28 -28 4 -2 15 2 22 12 22 11 0 16 -9 16 -26z m2168 4 c-5 -32 -28 -35 -28
-4 0 17 5 26 16 26 10 0 14 -7 12 -22z m-5488 -29 c0 -38 -24 -35 -28 4 -2 19
1 27 12 27 11 0 16 -10 16 -31z m300 6 c0 -16 -6 -25 -15 -25 -9 0 -15 9 -15
25 0 16 6 25 15 25 9 0 15 -9 15 -25z m1850 -5 c0 -20 -5 -30 -15 -30 -8 0
-15 3 -15 8 0 4 -3 17 -6 30 -5 18 -2 22 15 22 17 0 21 -6 21 -30z m298 8 c-5
-32 -28 -35 -28 -4 0 17 5 26 16 26 10 0 14 -7 12 -22z m1862 -9 c0 -38 -24
-35 -28 4 -2 19 1 27 12 27 11 0 16 -10 16 -31z m302 25 c3 -3 4 -14 1 -25 -8
-28 -33 -24 -33 6 0 23 18 34 32 19z m-4072 -44 c0 -16 5 -30 10 -30 6 0 10
14 10 30 0 20 5 30 15 30 25 0 19 -57 -7 -63 -39 -11 -77 31 -51 56 14 15 23
6 23 -23z m2150 0 c0 -16 5 -30 10 -30 6 0 10 14 10 31 0 35 23 36 28 1 4 -25
-25 -43 -56 -35 -30 7 -30 63 0 63 4 0 8 -13 8 -30z m596 10 c9 0 14 -11 14
-30 0 -20 -5 -30 -15 -30 -9 0 -15 9 -15 24 0 13 -2 30 -3 38 -2 7 -2 10 0 6
3 -5 11 -8 19 -8z m1564 -10 c0 -31 -16 -41 -26 -15 -5 13 11 45 22 45 2 0 4
-13 4 -30z m55 10 c7 -21 0 -40 -16 -40 -5 0 -9 14 -9 30 0 34 15 40 25 10z
m1730 -45 c7 -61 0 -95 -20 -95 -7 0 -15 -5 -17 -11 -2 -6 -2 25 0 68 2 43 5
84 8 91 8 26 22 1 29 -53z m-7675 -14 c0 -38 2 -75 3 -83 2 -7 2 -10 0 -5 -3
4 -11 7 -19 7 -11 0 -14 16 -14 68 0 38 3 72 7 75 17 18 23 2 23 -62z m2482
36 c4 -20 1 -23 -14 -19 -17 4 -25 32 -12 45 11 10 21 -1 26 -26z m2134 -15
c-4 -3 -11 -1 -18 6 -8 8 -8 15 3 28 13 16 14 16 17 -5 2 -13 1 -25 -2 -29z
m2176 19 c4 -26 2 -29 -14 -20 -21 11 -24 35 -5 42 6 3 13 6 13 6 1 1 4 -12 6
-28z m-6034 -13 c2 -19 -2 -27 -20 -31 -12 -4 -24 -4 -27 -2 -2 3 1 5 7 5 7 0
12 14 12 31 0 37 23 35 28 -3z m1442 18 c0 -25 -12 -46 -26 -46 -14 0 -20 41
-7 53 12 12 33 7 33 -7z m702 -1 c0 -8 1 -20 2 -26 1 -7 -8 -15 -19 -19 -19
-7 -20 -4 -17 26 4 34 31 49 34 19z m1161 -23 c-6 -36 -26 -38 -31 -4 -2 15 2
22 12 22 9 0 16 5 16 12 0 6 2 9 4 7 2 -2 1 -19 -1 -37z m1007 9 c0 -19 -6
-30 -18 -33 -15 -4 -17 0 -14 29 5 42 32 46 32 4z m1162 -6 c-10 -37 -32 -45
-32 -11 0 16 6 26 15 26 8 0 15 5 15 12 0 6 2 9 5 7 2 -3 1 -18 -3 -34z m276
8 c-4 -39 -28 -42 -28 -4 0 21 5 31 16 31 11 0 14 -8 12 -27z m-5445 -31 c-6
-36 -26 -38 -31 -4 -2 15 2 22 12 22 9 0 16 5 16 12 0 6 2 9 4 7 2 -2 1 -19
-1 -37z m243 18 c16 0 19 -36 3 -45 -14 -9 -15 -7 -22 35 -3 19 -3 29 0 23 2
-7 11 -13 19 -13z m604 -5 c0 -14 -4 -25 -9 -25 -12 0 -23 29 -15 41 10 18 24
9 24 -16z m1302 -10 c-10 -37 -32 -45 -32 -11 0 16 6 26 15 26 8 0 15 5 15 12
0 6 2 9 5 7 2 -3 1 -18 -3 -34z m2404 15 c8 0 14 -10 14 -25 0 -14 -4 -25 -9
-25 -13 0 -17 8 -24 45 -4 17 -4 24 -1 18 3 -7 12 -13 20 -13z m-2152 -9 c8
-12 -3 -41 -15 -41 -5 0 -9 11 -9 25 0 25 14 34 24 16z m1906 -16 c0 -26 -14
-33 -25 -15 -9 14 1 40 15 40 5 0 10 -11 10 -25z m-3720 -10 c0 -15 -6 -25
-14 -25 -8 0 -17 -6 -20 -12 -3 -7 -3 1 1 17 7 37 11 45 24 45 5 0 9 -11 9
-25z m2148 -3 c2 -14 -2 -22 -11 -22 -9 0 -17 -3 -20 -7 -2 -5 -2 -2 0 5 1 8
3 23 3 34 0 26 24 18 28 -10z m2166 12 c7 -18 0 -34 -15 -34 -5 0 -9 11 -9 25
0 28 15 34 24 9z m-4404 -18 c0 -13 2 -30 3 -38 2 -7 2 -10 0 -5 -3 4 -11 7
-19 7 -14 0 -20 41 -7 53 13 14 23 6 23 -17z m900 0 c0 -13 2 -30 3 -38 2 -7
2 -10 0 -5 -3 4 -11 7 -18 7 -21 0 -27 17 -15 40 15 27 30 25 30 -4z m1250 0
c0 -13 2 -30 3 -38 2 -7 2 -10 0 -5 -3 4 -11 7 -18 7 -18 0 -24 21 -13 43 13
25 28 21 28 -7z m890 -6 c0 -16 5 -30 10 -30 6 0 10 -4 10 -9 0 -5 -11 -4 -25
2 -24 11 -34 45 -18 60 14 15 23 6 23 -23z m1270 0 c0 -30 -13 -40 -25 -20 -8
13 4 50 16 50 5 0 9 -13 9 -30z m900 6 c0 -13 2 -30 3 -38 2 -7 2 -10 0 -5 -3
4 -11 7 -19 7 -14 0 -20 41 -7 53 13 14 23 6 23 -17z m-5992 -14 c2 -15 -2
-22 -12 -22 -9 0 -16 -5 -16 -11 0 -5 -5 -7 -12 -3 -9 6 -9 9 0 12 7 2 12 15
12 29 0 30 24 26 28 -5z m1164 -7 c-4 -36 -25 -47 -36 -19 -10 26 -7 34 17 44
12 5 22 9 22 9 1 1 -1 -15 -3 -34z m230 12 c9 -14 -2 -37 -17 -37 -7 0 -15 13
-17 29 -3 23 -1 28 11 23 9 -3 19 -10 23 -15z m752 7 c7 -19 -1 -34 -19 -34
-7 0 -16 -6 -19 -12 -3 -7 -3 1 1 17 9 49 25 61 37 29z m1169 9 c-7 -2 -13
-18 -13 -35 0 -37 -24 -33 -28 4 -2 19 2 28 15 31 24 6 41 7 26 0z m227 -29
c0 -34 -27 -30 -32 5 -3 23 -1 27 14 23 11 -2 18 -14 18 -28z m770 11 c0 -15
-6 -25 -14 -25 -8 0 -16 -3 -19 -7 -2 -5 -2 -2 0 5 1 8 3 22 3 33 0 10 7 19
15 19 9 0 15 -9 15 -25z m1162 -10 c-5 -44 -32 -49 -32 -6 0 20 6 31 18 34 9
3 17 5 17 6 1 0 -1 -15 -3 -34z m223 21 c11 -8 16 -19 12 -30 -10 -24 -27 -19
-27 8 0 13 -6 27 -12 29 -7 3 -8 6 -2 6 5 1 19 -5 29 -13z m-5382 -13 c-7 -2
-13 -18 -13 -35 0 -37 -24 -33 -28 4 -2 19 2 28 15 31 24 6 41 7 26 0z m198
-3 c15 0 6 -63 -8 -68 -9 -2 -13 8 -13 31 0 20 -3 37 -7 40 -5 2 -2 2 5 0 8
-1 18 -3 23 -3z m1941 -25 c-4 -37 -26 -48 -35 -16 -5 22 2 36 23 44 8 3 15 6
15 6 1 1 -1 -15 -3 -34z m2376 -8 c-4 -45 -25 -45 -30 1 -3 34 -1 38 15 34 13
-3 17 -12 15 -35z m-2163 23 c8 -12 -5 -60 -16 -60 -5 0 -9 16 -9 35 0 33 12
46 25 25z m1945 -20 c0 -16 -4 -30 -9 -30 -12 0 -24 37 -16 50 12 20 25 10 25
-20z m-3713 -35 c-2 -5 -11 -11 -20 -13 -12 -3 -17 4 -17 21 0 13 3 27 7 31 9
9 35 -24 30 -39z m2141 12 c2 -19 -1 -27 -12 -27 -11 0 -16 10 -16 31 0 38 24
35 28 -4z m2166 17 c10 -27 7 -44 -9 -44 -10 0 -15 10 -15 30 0 32 14 40 24
14z m-5184 -25 c0 -10 -7 -19 -15 -19 -15 0 -21 31 -9 43 11 10 24 -3 24 -24z
m1638 3 c2 -14 -2 -22 -12 -22 -19 0 -28 14 -20 35 9 21 28 14 32 -13z m504
-14 c-16 -16 -37 4 -28 28 6 16 8 16 23 1 13 -13 15 -19 5 -29z m1638 17 c0
-16 -6 -25 -15 -25 -15 0 -21 31 -8 43 13 14 23 6 23 -18z m530 -6 c0 -10 -7
-19 -15 -19 -15 0 -21 31 -9 43 11 10 24 -3 24 -24z m1638 3 c2 -15 -2 -22
-12 -22 -11 0 -16 9 -16 26 0 31 23 28 28 -4z m-5208 -12 c0 -20 -5 -30 -15
-30 -15 0 -21 40 -8 53 14 15 23 6 23 -23z m610 -20 c-6 -11 -15 -20 -20 -20
-15 0 -12 58 3 63 18 6 29 -20 17 -43z m1540 21 c0 -30 -25 -50 -33 -26 -8 20
4 55 19 55 9 0 14 -11 14 -29z m606 -27 c-3 -8 -10 -14 -16 -14 -14 0 -12 57
3 63 13 4 22 -26 13 -49z m1554 26 c0 -20 -5 -30 -15 -30 -15 0 -21 40 -8 53
14 15 23 6 23 -23z m616 -14 c-3 -14 -11 -26 -16 -26 -11 0 -14 53 -3 63 13
13 26 -12 19 -37z m-4506 -7 c0 -10 -7 -19 -15 -19 -9 0 -15 9 -15 25 0 18 4
23 15 19 8 -4 15 -15 15 -25z m2140 0 c0 -24 -23 -21 -28 4 -2 10 3 17 12 17
10 0 16 -9 16 -21z m2170 1 c0 -11 -7 -20 -15 -20 -8 0 -15 9 -15 20 0 11 7
20 15 20 8 0 15 -9 15 -20z m-2850 -40 c-6 -11 -15 -20 -20 -20 -15 0 -12 58
3 63 18 6 29 -20 17 -43z m2000 14 c0 -17 -27 -18 -33 -1 -2 6 -2 18 1 25 6
16 32 -4 32 -24z m-4320 5 c0 -24 -23 -21 -28 4 -2 10 3 17 12 17 10 0 16 -9
16 -21z m180 7 c0 -22 -11 -46 -21 -46 -5 0 -9 14 -9 30 0 20 5 30 15 30 8 0
15 -6 15 -14z m1970 -6 c0 -11 -7 -20 -15 -20 -8 0 -15 9 -15 20 0 11 7 20 15
20 8 0 15 -9 15 -20z m2338 -7 c-4 -39 -28 -42 -28 -4 0 21 5 31 16 31 11 0
14 -8 12 -27z m-4770 -6 c2 -10 -3 -17 -12 -17 -10 0 -16 9 -16 21 0 24 23 21
28 -4z m876 14 c10 -15 -5 -40 -20 -34 -18 7 -18 43 0 43 8 0 17 -4 20 -9z
m716 -10 c0 -11 -4 -22 -9 -25 -11 -7 -23 22 -15 35 9 16 24 10 24 -10z m552
7 c7 -18 -2 -39 -13 -32 -12 7 -12 44 0 44 5 0 11 -6 13 -12z m878 -8 c0 -11
-7 -20 -15 -20 -8 0 -15 9 -15 20 0 11 7 20 15 20 8 0 15 -9 15 -20z m720 0
c0 -11 -7 -20 -15 -20 -8 0 -15 9 -15 20 0 11 7 20 15 20 8 0 15 -9 15 -20z
m570 -5 c0 -18 -4 -23 -15 -19 -8 4 -15 15 -15 25 0 10 7 19 15 19 9 0 15 -9
15 -25z m878 2 c2 -10 -3 -17 -12 -17 -10 0 -16 9 -16 21 0 24 23 21 28 -4z
m722 4 c0 -10 -7 -21 -15 -25 -11 -4 -15 1 -15 19 0 16 6 25 15 25 8 0 15 -9
15 -19z m-5210 -21 c0 -11 -7 -20 -15 -20 -8 0 -15 9 -15 20 0 11 7 20 15 20
8 0 15 -9 15 -20z m2140 1 c0 -11 -4 -22 -9 -25 -11 -7 -20 14 -13 32 7 19 22
14 22 -7z m2170 0 c0 -23 -16 -36 -25 -21 -9 14 1 40 15 40 5 0 10 -9 10 -19z
m-3850 -22 c0 -38 -24 -35 -28 4 -2 19 1 27 12 27 11 0 16 -10 16 -31z m150 5
c0 -31 -23 -28 -28 4 -2 15 2 22 12 22 11 0 16 -9 16 -26z m1143 -16 c-4 -26
-9 -35 -19 -31 -19 7 -18 53 1 53 8 0 15 5 15 12 0 6 2 9 4 7 2 -2 1 -21 -1
-41z m847 11 c0 -27 -2 -30 -15 -19 -8 7 -15 21 -15 31 0 11 7 19 15 19 10 0
15 -10 15 -31z m158 9 c-5 -32 -28 -35 -28 -4 0 17 5 26 16 26 10 0 14 -7 12
-22z m1165 -15 c-6 -35 -27 -44 -37 -17 -8 20 1 34 20 34 8 0 14 5 14 12 0 6
2 9 4 7 2 -2 1 -19 -1 -36z m847 6 c0 -38 -24 -35 -28 4 -2 19 1 27 12 27 11
0 16 -10 16 -31z m154 22 c8 -12 -3 -41 -15 -41 -5 0 -9 11 -9 25 0 25 14 34
24 16z m-5324 -42 c0 -27 -2 -30 -15 -19 -8 7 -15 21 -15 31 0 11 7 19 15 19
10 0 15 -10 15 -31z m2266 11 c8 0 14 -10 14 -25 0 -16 -6 -25 -15 -25 -8 0
-15 9 -15 19 0 11 -2 25 -3 33 -2 7 -2 10 0 6 3 -5 11 -8 19 -8z m2170 0 c8 0
14 -10 14 -25 0 -16 -6 -25 -15 -25 -8 0 -15 9 -15 19 0 11 -2 25 -3 33 -2 7
-2 10 0 6 3 -5 11 -8 19 -8z m-3170 -38 c-4 -3 -11 -1 -18 6 -8 8 -8 15 3 28
13 16 14 16 17 -5 2 -13 1 -25 -2 -29z m2156 19 c4 -26 2 -29 -14 -20 -18 10
-24 30 -11 42 13 14 21 6 25 -22z m2170 -4 c4 -20 1 -23 -14 -19 -17 4 -25 32
-12 45 11 10 21 -1 26 -26z m-5872 -7 c0 -19 -5 -30 -14 -30 -8 0 -16 -3 -19
-7 -2 -5 -2 -2 0 5 1 8 3 25 3 38 0 15 6 24 15 24 10 0 15 -10 15 -30z m418 8
c-5 -32 -28 -35 -28 -4 0 17 5 26 16 26 10 0 14 -7 12 -22z m457 2 c7 -21 0
-40 -16 -40 -5 0 -9 14 -9 30 0 34 15 40 25 10z m381 0 c9 0 14 -11 14 -30 0
-20 -5 -30 -15 -30 -9 0 -15 9 -15 24 0 13 -2 30 -3 38 -2 7 -2 10 0 6 3 -5
11 -8 19 -8z m892 -12 c2 -19 -2 -27 -20 -31 -12 -4 -24 -4 -27 -2 -2 3 1 5 7
5 7 0 12 14 12 31 0 37 23 35 28 -3z m872 2 c0 -19 -5 -30 -14 -30 -8 0 -16
-3 -19 -7 -2 -5 -2 -2 0 5 1 8 3 25 3 38 0 15 6 24 15 24 10 0 15 -10 15 -30z
m1293 8 c7 -25 1 -38 -18 -38 -7 0 -15 -3 -18 -7 -2 -5 -2 -2 0 5 1 8 3 25 3
38 0 30 26 32 33 2z m875 -10 c2 -19 -2 -27 -20 -31 -12 -4 -24 -4 -27 -2 -2
3 1 5 7 5 7 0 12 14 12 31 0 37 23 35 28 -3z m377 12 c19 0 27 -17 20 -40 -9
-28 -35 -25 -35 4 0 13 -2 30 -3 38 -2 7 -2 10 0 6 3 -5 11 -8 18 -8z m-2154
0 c15 0 6 -53 -8 -58 -9 -2 -13 7 -13 26 0 17 -3 32 -7 35 -5 2 -2 2 5 0 8 -1
18 -3 23 -3z m-2751 -24 c0 -13 2 -30 3 -38 2 -7 2 -10 0 -5 -3 4 -11 7 -19 7
-14 0 -20 41 -7 53 13 14 23 6 23 -17z m501 -12 c-9 -34 -25 -38 -29 -6 -2 15
2 22 12 22 9 0 16 5 16 12 0 6 2 9 5 7 2 -3 1 -18 -4 -35z m1639 6 c0 -31 -16
-41 -26 -15 -5 13 11 45 22 45 2 0 4 -13 4 -30z m2182 -31 c7 -4 6 -9 -1 -13
-6 -4 -11 -2 -11 3 0 6 -7 11 -15 11 -9 0 -15 9 -15 24 0 34 24 39 28 7 2 -14
8 -29 14 -32z m501 44 c-7 -2 -13 -16 -13 -29 0 -27 -17 -32 -27 -8 -6 17 20
45 41 43 6 0 5 -3 -1 -6z m-2183 -28 c0 -14 -4 -25 -9 -25 -12 0 -23 29 -15
41 10 18 24 9 24 -16z m-848 -10 c-6 -32 -20 -41 -29 -19 -4 11 1 22 12 30 24
18 23 18 17 -11z m2169 -2 c-9 -33 -25 -37 -29 -6 -2 14 3 23 15 26 10 3 19 5
20 6 1 0 -2 -11 -6 -26z m-4321 -10 c0 -25 -1 -26 -16 -11 -9 9 -13 21 -10 27
13 20 26 11 26 -16z m1230 -3 c0 -20 -5 -30 -15 -30 -16 0 -19 17 -9 44 10 26
24 18 24 -14z m2150 6 c0 -13 2 -30 3 -38 2 -7 2 -10 0 -5 -3 4 -11 7 -19 7
-14 0 -20 41 -7 53 13 14 23 6 23 -17z m2170 0 c0 -13 2 -30 3 -38 2 -7 2 -10
0 -5 -3 4 -11 7 -18 7 -19 0 -25 13 -18 38 7 30 33 28 33 -2z m-5830 -11 c0
-15 -6 -25 -14 -25 -8 0 -16 -3 -19 -7 -2 -5 -2 -2 0 5 1 8 3 22 3 33 0 10 7
19 15 19 9 0 15 -9 15 -25z m875 0 c0 -10 -6 -20 -12 -22 -8 -3 -13 5 -13 22
0 17 5 25 13 23 6 -3 12 -13 12 -23z m1273 -3 c2 -15 -2 -22 -12 -22 -11 0
-16 9 -16 26 0 31 23 28 28 -4z m372 -8 c0 -34 -27 -30 -32 5 -3 23 -1 27 14
23 11 -2 18 -14 18 -28z m500 11 c0 -15 -6 -25 -14 -25 -8 0 -17 -6 -20 -12
-3 -7 -3 1 1 17 7 37 11 45 24 45 5 0 9 -11 9 -25z m1294 9 c7 -19 -1 -34 -19
-34 -7 0 -16 -6 -19 -12 -3 -7 -3 1 1 17 9 49 25 61 37 29z m361 2 c11 -8 16
-19 12 -30 -10 -24 -27 -19 -27 8 0 13 -6 27 -12 29 -7 3 -8 6 -2 6 5 1 19 -5
29 -13z m513 -14 c2 -14 -2 -22 -11 -22 -9 0 -17 -3 -20 -7 -2 -5 -2 -2 0 5 1
8 3 23 3 34 0 26 24 18 28 -10z m-4813 -7 c0 -10 -6 -20 -12 -22 -8 -3 -13 5
-13 22 0 17 5 25 13 23 6 -3 12 -13 12 -23z m787 -20 c-5 -44 -32 -49 -32 -6
0 20 6 31 18 34 9 3 17 5 17 6 1 0 -1 -15 -3 -34z m68 -1 c0 -34 -27 -30 -32
5 -3 23 -1 27 14 23 11 -2 18 -14 18 -28z m4303 23 c4 3 7 -6 7 -20 0 -37 -27
-35 -32 3 -3 22 -1 27 7 20 7 -5 15 -7 18 -3z m-4913 -27 c0 -20 -5 -30 -15
-30 -15 0 -21 40 -8 53 14 15 23 6 23 -23z m2140 0 c0 -20 -5 -30 -15 -30 -16
0 -19 17 -9 44 10 26 24 18 24 -14z m540 -6 c0 -13 -4 -24 -9 -24 -13 0 -24
37 -16 50 10 16 25 1 25 -26z m77 2 c-4 -9 -11 -16 -17 -16 -11 0 -14 33 -3
43 11 11 26 -10 20 -27z m1553 4 c0 -20 -5 -30 -15 -30 -15 0 -21 40 -8 53 14
15 23 6 23 -23z m540 -6 c0 -26 -17 -33 -26 -9 -8 20 3 48 16 40 5 -3 10 -17
10 -31z m-5170 -22 c0 -24 -1 -25 -16 -10 -10 9 -14 24 -10 33 9 23 26 9 26
-23z m1815 28 c3 -5 1 -10 -4 -10 -6 0 -11 5 -11 10 0 6 2 10 4 10 3 0 8 -4
11 -10z m2503 -24 c-4 -29 -22 -23 -26 9 -3 19 0 24 13 19 9 -4 15 -15 13 -28z
m-3128 -1 c0 -16 -6 -25 -15 -25 -15 0 -21 31 -8 43 13 14 23 6 23 -18z m958
3 c-2 -13 -7 -23 -13 -23 -5 0 -11 10 -13 23 -2 15 2 22 13 22 11 0 15 -7 13
-22z m1190 -6 c2 -15 -2 -22 -12 -22 -11 0 -16 9 -16 26 0 31 23 28 28 -4z
m2170 0 c3 -17 -2 -22 -17 -22 -22 0 -25 8 -15 35 9 22 28 14 32 -13z m-5788
-2 c0 -11 -7 -20 -15 -20 -8 0 -15 9 -15 20 0 11 7 20 15 20 8 0 15 -9 15 -20z
m336 -24 c-3 -14 -13 -26 -21 -26 -18 0 -19 -12 -4 -27 8 -8 8 -17 1 -30 -10
-16 -12 -14 -26 19 -21 50 -20 61 4 55 16 -4 20 0 20 17 0 13 3 26 7 29 13 13
26 -12 19 -37z m542 11 c2 -19 -1 -27 -12 -27 -11 0 -16 10 -16 31 0 38 24 35
28 -4z m1272 13 c0 -11 -7 -20 -15 -20 -8 0 -15 9 -15 20 0 11 7 20 15 20 8 0
15 -9 15 -20z m326 -36 c-3 -9 -10 -12 -16 -9 -7 4 -8 -8 -4 -37 l6 -43 -21
25 c-24 30 -28 70 -6 70 8 0 15 9 15 19 0 11 6 21 13 24 13 4 22 -26 13 -49z
m546 39 c1 -10 2 -25 3 -33 1 -8 6 -24 12 -36 13 -22 7 -37 -18 -46 -14 -6
-15 -1 -9 28 6 27 5 37 -6 41 -19 7 -19 63 1 63 8 0 16 -8 17 -17z m1293 -3
c0 -7 -6 -15 -12 -17 -8 -3 -13 4 -13 17 0 13 5 20 13 18 6 -3 12 -11 12 -18z
m873 -13 c2 -19 -1 -27 -12 -27 -11 0 -16 10 -16 31 0 38 24 35 28 -4z m-540
-2 c-2 -14 -7 -26 -13 -26 -5 0 -11 12 -13 26 -2 18 1 25 13 25 12 0 15 -7 13
-25z m852 -29 c-9 -26 -53 -29 -58 -3 -2 9 2 17 8 17 6 0 19 7 27 16 20 20 35
1 23 -30z m-4312 7 c-2 -22 -9 -29 -30 -31 -23 -3 -28 1 -28 17 0 12 7 21 15
21 8 0 15 5 15 10 0 6 7 10 16 10 11 0 14 -8 12 -27z m2152 9 c0 -23 -19 -42
-42 -42 -12 0 -18 7 -18 21 0 15 5 19 15 15 9 -3 15 0 15 9 0 8 7 15 15 15 8
0 15 -8 15 -18z m-2760 -21 c0 -16 -6 -31 -15 -34 -19 -8 -27 7 -19 38 9 35
34 32 34 -4z m2138 -3 c-3 -34 -20 -42 -26 -13 -5 22 5 45 18 45 7 0 10 -14 8
-32z m2172 3 c0 -16 -6 -31 -15 -35 -11 -4 -15 2 -15 23 0 15 3 31 7 34 14 15
23 6 23 -22z m-267 -14 c5 -15 6 -35 2 -45 -6 -15 -8 -14 -20 8 -18 31 -19 73
-3 68 6 -2 16 -16 21 -31z m-4605 -5 c3 -16 -1 -20 -12 -16 -19 7 -22 48 -3
42 6 -3 13 -14 15 -26z m1430 6 c-2 -13 -7 -23 -13 -23 -5 0 -11 10 -13 23 -2
15 2 22 13 22 11 0 15 -7 13 -22z m720 -1 c2 -10 -3 -17 -12 -17 -10 0 -16 9
-16 21 0 24 23 21 28 -4z m1432 4 c0 -10 -7 -21 -15 -25 -11 -4 -15 1 -15 19
0 16 6 25 15 25 8 0 15 -9 15 -19z m732 7 c7 -18 -2 -39 -13 -32 -12 7 -12 44
0 44 5 0 11 -6 13 -12z m1428 -7 c0 -23 -16 -36 -25 -21 -9 14 1 40 15 40 5 0
10 -9 10 -19z m-4860 -21 c0 -10 -5 -22 -10 -25 -13 -8 -24 20 -16 41 8 20 26
9 26 -16z m4310 -4 c0 -15 -7 -26 -19 -29 -18 -4 -19 5 -5 51 6 20 24 4 24
-22z m-4040 -21 c0 -8 -4 -15 -10 -15 -5 0 -10 7 -10 15 0 8 5 15 10 15 6 0
10 -7 10 -15z m2145 6 c3 -5 1 -12 -5 -16 -5 -3 -10 1 -10 9 0 18 6 21 15 7z
m2165 -6 c0 -8 -4 -15 -10 -15 -5 0 -10 7 -10 15 0 8 5 15 10 15 6 0 10 -7 10
-15z m-4919 -27 c6 -22 4 -26 -10 -21 -21 9 -30 23 -24 40 8 21 26 10 34 -19z
m871 3 c4 -26 2 -29 -14 -20 -18 10 -24 30 -11 42 13 14 21 6 25 -22z m1268 5
c0 -13 6 -27 13 -29 6 -3 7 -6 1 -6 -21 -2 -47 26 -41 43 10 24 27 19 27 -8z
m882 -9 c4 -20 1 -23 -14 -19 -17 4 -25 32 -12 45 11 10 21 -1 26 -26z m1290
4 c3 -23 1 -27 -14 -23 -11 2 -18 14 -18 28 0 34 27 30 32 -5z m868 4 c0 -25
-14 -34 -24 -16 -8 12 3 41 15 41 5 0 9 -11 9 -25z m-5697 -7 c7 -25 1 -38
-18 -38 -7 0 -15 -3 -18 -7 -2 -5 -2 -2 0 5 1 8 3 25 3 38 0 30 26 32 33 2z
m2145 -11 c2 -19 -1 -27 -12 -27 -8 0 -16 -3 -19 -7 -2 -5 -2 -2 0 5 1 8 3 25
3 39 0 33 24 25 28 -10z m2170 1 c2 -19 -2 -27 -20 -31 -12 -4 -24 -4 -27 -2
-2 3 1 5 7 5 7 0 12 14 12 31 0 37 23 35 28 -3z m-1295 -14 c-9 -23 -23 -16
-23 12 0 22 2 24 14 14 8 -6 12 -18 9 -26z m2167 5 c0 -10 -6 -19 -14 -19 -8
0 -17 -6 -20 -12 -3 -7 -3 1 1 17 3 17 8 33 10 38 7 13 23 -3 23 -24z m-4310
6 c0 -8 -8 -19 -19 -24 -16 -9 -17 -7 -13 14 5 27 32 35 32 10z m490 -49 c0
-13 2 -30 3 -38 2 -7 2 -10 0 -5 -3 4 -11 7 -19 7 -14 0 -20 41 -7 53 13 14
23 6 23 -17z m2150 0 c0 -13 2 -30 3 -38 2 -7 2 -10 0 -5 -3 4 -13 7 -24 7
-21 0 -22 3 -13 38 8 30 34 29 34 -2z m1294 -55 c-2 -2 -4 1 -4 7 0 7 -7 12
-15 12 -18 0 -21 46 -2 53 11 4 31 -62 21 -72z m866 49 c0 -20 -5 -30 -15 -30
-15 0 -21 40 -8 53 14 15 23 6 23 -23z m-5656 4 c7 -19 -1 -34 -19 -34 -7 0
-16 -6 -19 -12 -3 -7 -3 1 1 17 9 49 25 61 37 29z m466 -9 c0 -25 -14 -34 -24
-16 -8 12 3 41 15 41 5 0 9 -11 9 -25z m1680 0 c0 -15 -6 -25 -14 -25 -8 0
-16 -3 -19 -7 -2 -5 -2 -2 0 5 1 8 3 22 3 33 0 10 7 19 15 19 9 0 15 -9 15
-25z m470 6 c0 -11 2 -25 3 -33 2 -7 2 -10 0 -5 -3 4 -11 7 -19 7 -14 0 -20
31 -7 43 12 13 23 7 23 -12z m1698 -9 c2 -15 -2 -22 -12 -22 -11 0 -16 9 -16
26 0 31 23 28 28 -4z m872 -18 c0 -15 -6 -24 -15 -24 -10 0 -15 10 -15 30 0
22 4 28 15 24 8 -4 15 -17 15 -30z m-4310 1 c0 -16 -6 -25 -15 -25 -9 0 -15 9
-15 25 0 16 6 25 15 25 9 0 15 -9 15 -25z m2144 9 c10 -25 7 -34 -9 -34 -9 0
-15 9 -15 25 0 28 15 34 24 9z m-1696 -52 c2 -15 -2 -22 -12 -22 -11 0 -16 9
-16 26 0 31 23 28 28 -4z m2142 4 c0 -27 -15 -42 -25 -26 -8 13 3 50 16 50 5
0 9 -11 9 -24z m2170 -1 c0 -16 -6 -25 -15 -25 -15 0 -21 31 -8 43 13 14 23 6
23 -18z m-5615 -5 c0 -7 -6 -15 -12 -17 -8 -3 -13 4 -13 17 0 13 5 20 13 18 6
-3 12 -11 12 -18z m421 -36 c-3 -9 -10 -12 -16 -9 -14 9 -13 38 3 54 10 10 13
8 15 -9 2 -12 1 -28 -2 -36z m1724 36 c0 -11 -7 -20 -15 -20 -8 0 -15 9 -15
20 0 11 7 20 15 20 8 0 15 -9 15 -20z m430 -10 c0 -20 -5 -30 -15 -30 -15 0
-21 40 -8 53 14 15 23 6 23 -23z m1740 10 c0 -11 -7 -20 -15 -20 -8 0 -15 9
-15 20 0 11 7 20 15 20 8 0 15 -9 15 -20z m430 -15 c0 -24 -25 -42 -33 -22 -7
18 11 59 23 52 5 -3 10 -17 10 -30z m-3870 -5 c0 -11 -7 -20 -15 -20 -8 0 -15
9 -15 20 0 11 7 20 15 20 8 0 15 -9 15 -20z m2148 -3 c2 -10 -3 -17 -12 -17
-10 0 -16 9 -16 21 0 24 23 21 28 -4z m2162 -2 c0 -18 -4 -23 -15 -19 -8 4
-15 15 -15 25 0 10 7 19 15 19 9 0 15 -9 15 -25z m-5165 -54 c-10 -16 -25 -3
-25 22 0 20 1 20 16 5 9 -9 13 -21 9 -27z m1267 10 c3 -23 1 -27 -14 -23 -11
2 -18 14 -18 28 0 34 27 30 32 -5z m878 0 c0 -10 -9 -21 -19 -24 -13 -3 -18 0
-15 9 2 8 6 21 9 30 6 20 25 8 25 -15z m1260 10 c0 -23 -16 -36 -25 -21 -9 14
1 40 15 40 5 0 10 -9 10 -19z m905 -4 c0 -26 -20 -25 -23 2 -3 16 1 22 10 19
7 -3 13 -12 13 -21z m1263 1 c-2 -13 -7 -23 -13 -23 -5 0 -11 10 -13 23 -2 15
2 22 13 22 11 0 15 -7 13 -22z m-5188 -32 c0 -19 6 -37 13 -40 6 -3 2 -3 -10
0 -18 4 -23 1 -23 -14 0 -11 6 -23 13 -25 6 -3 -3 -3 -22 0 -31 6 -33 4 -27
-18 3 -13 3 -18 0 -11 -8 17 -274 18 -274 0 0 -6 -3 -9 -6 -5 -3 3 -1 14 4 24
9 16 26 18 135 19 113 1 127 4 146 23 11 11 21 27 21 35 0 22 11 46 21 46 5 0
9 -15 9 -34z m2150 5 c0 -16 2 -35 3 -43 2 -7 2 -10 0 -5 -3 4 -11 7 -19 7
-14 0 -20 50 -7 63 14 15 23 6 23 -22z m2172 -14 c3 -29 1 -33 -15 -29 -14 4
-18 0 -15 -14 2 -13 -4 -20 -19 -22 -13 -2 -23 -8 -23 -13 0 -6 -52 -8 -130
-7 -170 4 -172 23 -3 24 103 1 127 4 143 19 11 10 20 24 20 32 0 22 20 54 29
48 5 -2 11 -20 13 -38z m-3834 0 c2 -19 -1 -27 -12 -27 -8 0 -16 -3 -19 -7 -2
-5 -2 -2 0 5 1 8 3 25 3 39 0 33 24 25 28 -10z m2150 2 c2 -13 10 -28 18 -32
21 -12 17 -37 -6 -37 -11 0 -20 -5 -20 -11 0 -5 -5 -7 -12 -3 -9 6 -9 9 0 12
7 2 12 13 12 24 0 15 -5 18 -22 14 -13 -3 -17 -3 -10 0 6 3 12 19 12 36 0 36
23 34 28 -3z m2164 16 c0 -8 1 -20 2 -26 1 -7 -8 -15 -19 -19 -19 -7 -20 -4
-17 26 4 34 31 49 34 19z m-3939 -60 c4 -16 4 -24 1 -17 -7 15 -31 16 -36 0
-2 -6 -9 -8 -16 -4 -8 5 -6 15 10 37 24 32 32 29 41 -16z m2137 21 c0 -13 6
-27 13 -30 6 -3 2 -3 -10 0 -13 3 -23 1 -23 -5 0 -6 5 -11 12 -11 6 0 9 -2 7
-5 -10 -9 -49 8 -49 21 0 8 4 14 9 14 5 0 11 9 14 20 7 28 27 25 27 -4z m2170
5 c0 -11 2 -25 3 -33 2 -7 2 -10 0 -5 -10 17 -24 5 -19 -15 3 -13 3 -17 0 -10
-3 6 -12 12 -20 12 -8 0 -14 7 -14 15 0 8 4 15 9 15 5 0 11 9 14 20 7 26 27
26 27 1z m-5527 -11 c22 -26 22 -36 -2 -43 -14 -3 -18 -1 -14 10 5 12 1 14
-18 9 -13 -3 -18 -3 -11 0 6 3 12 14 12 25 0 24 11 24 33 -1z m2137 6 c0 -8 8
-17 17 -20 13 -5 14 -9 3 -19 -10 -9 -13 -9 -17 1 -5 13 -29 17 -36 5 -2 -5
-2 -2 0 5 1 8 3 20 3 28 0 8 7 14 15 14 8 0 15 -6 15 -14z m2170 -1 c0 -8 5
-15 10 -15 6 0 10 -7 10 -15 0 -8 -6 -15 -14 -15 -8 0 -17 -6 -20 -12 -3 -7
-3 -3 0 10 5 20 -9 32 -19 15 -2 -5 -2 -2 0 5 1 8 3 20 3 28 0 8 7 14 15 14 8
0 15 -7 15 -15z m-3430 -25 c9 -18 8 -20 -15 -20 -14 0 -25 -5 -25 -12 0 -6
-2 -9 -5 -6 -8 8 13 58 24 58 6 0 15 -9 21 -20z m1611 -6 c5 -15 7 -29 4 -32
-3 -3 -5 0 -5 6 0 7 -11 12 -25 12 -14 0 -25 -4 -25 -10 0 -6 -50 -10 -130
-10 -99 0 -130 3 -130 13 0 9 32 13 131 14 110 0 133 3 141 17 13 23 27 20 39
-10z m2697 14 c18 -18 15 -28 -8 -28 -13 0 -20 7 -20 20 0 23 10 26 28 8z
m-4038 -35 c0 -10 -27 -13 -120 -13 -93 0 -120 3 -120 13 0 11 27 14 120 14
93 0 120 -3 120 -14z m2151 -5 c6 -11 8 -22 5 -26 -3 -3 -6 0 -6 6 0 9 -36 12
-125 12 -89 0 -125 -3 -125 -12 0 -6 -3 -9 -6 -6 -3 4 -1 15 5 26 9 17 22 19
126 19 104 0 117 -2 126 -19z m2164 7 c0 -6 -49 -11 -122 -13 -84 -2 -123 -6
-123 -14 0 -6 -3 -9 -6 -6 -3 4 -1 15 5 26 9 18 21 19 128 18 71 -1 118 -5
118 -11z m-219 -285 c8 0 14 -7 14 -15 0 -8 -9 -15 -20 -15 -11 0 -20 6 -20
14 0 8 -3 16 -7 19 -5 2 -2 2 5 0 8 -1 20 -3 28 -3z m160 -17 c17 -22 18 -41
2 -25 -7 7 -22 12 -35 12 -14 0 -23 6 -23 15 0 21 40 19 56 -2z m-201 -13 c8
-13 -53 -72 -66 -64 -12 7 -11 24 2 24 6 0 17 6 25 14 8 8 14 19 14 25 0 14
17 14 25 1z m285 -60 c0 -16 -19 -12 -43 10 -17 17 -19 23 -8 29 14 9 51 -20
51 -39z m-352 -38 c2 -7 -3 -12 -12 -12 -9 0 -16 7 -16 16 0 17 22 14 28 -4z
m-18 -73 c0 -18 -5 -29 -14 -29 -8 0 -16 -5 -18 -11 -2 -6 -3 9 -3 34 0 37 3
43 18 39 11 -3 17 -14 17 -33z m-3337 -19 c-5 -17 -14 -20 -62 -20 -123 0
-139 28 -18 33 45 1 83 4 84 5 0 1 -1 -7 -4 -18z m1943 10 c8 0 14 -7 14 -15
0 -8 -9 -15 -20 -15 -11 0 -20 6 -20 14 0 8 -3 16 -7 19 -5 2 -2 2 5 0 8 -1
20 -3 28 -3z m127 3 c-7 -2 -13 -11 -13 -19 0 -8 -7 -14 -15 -14 -21 0 -19 28
3 33 23 6 40 7 25 0z m-2853 -12 c0 -13 -37 -21 -97 -21 -41 0 -53 4 -53 15 0
12 15 15 75 15 41 0 75 -4 75 -9z m993 -21 c-5 -18 -12 -21 -56 -18 -73 4 -73
26 0 31 32 2 59 4 60 5 0 1 -1 -7 -4 -18z m-1249 1 c8 -12 -19 -21 -65 -21
-28 0 -39 4 -39 15 0 11 12 15 49 15 28 0 52 -4 55 -9z m2946 0 c0 -11 -80
-91 -91 -91 -18 0 -8 19 29 58 35 38 62 52 62 33z m229 -22 c34 -34 37 -39 19
-39 -17 1 -68 46 -68 60 0 18 18 11 49 -21z m1842 -89 c9 12 10 12 5 -3 -3
-10 -6 -23 -6 -28 0 -18 -23 -8 -43 19 -12 15 -41 48 -64 73 -69 74 -49 70 27
-6 59 -58 72 -67 81 -55z m-5219 100 c47 0 48 -22 2 -31 -36 -7 -54 -1 -54 16
0 7 -3 15 -7 18 -5 2 -2 2 5 0 8 -1 32 -3 54 -3z m1588 -14 c0 -18 -18 -24
-54 -17 -50 10 -44 31 8 31 33 0 46 -4 46 -14z m110 -11 c-7 -8 -9 -15 -4 -15
5 0 3 -4 -5 -9 -16 -10 -49 -1 -51 14 0 6 14 13 32 16 18 4 35 7 37 8 2 0 -2
-6 -9 -14z m2920 -39 c1 -11 45 -66 53 -66 3 0 41 -37 85 -82 56 -58 77 -84
66 -86 -9 -2 -29 9 -45 24 -25 24 -32 26 -40 14 -8 -12 -9 -10 -4 8 7 23 -9
31 -19 10 -3 -7 -3 -3 0 10 3 12 1 22 -5 22 -6 0 -11 -5 -11 -11 0 -5 -5 -7
-12 -3 -9 6 -9 9 0 12 22 7 12 23 -10 18 -13 -3 -17 -3 -10 0 21 10 13 26 -10
20 -13 -3 -17 -3 -10 0 24 11 12 42 -33 83 -43 40 -53 59 -38 75 9 8 43 -30
43 -48z m-4717 29 c1 -5 -13 -11 -30 -13 -27 -3 -32 0 -27 13 7 17 53 17 57 0z
m-103 -19 c0 -16 -33 -27 -50 -16 -7 4 -9 13 -6 19 10 16 56 14 56 -3z m1996
3 c3 -6 2 -15 -3 -20 -12 -12 -53 1 -53 17 0 17 46 19 56 3z m-2086 -28 c0
-12 -29 -23 -41 -15 -18 10 -9 24 16 24 14 0 25 -4 25 -9z m2170 0 c0 -19 -22
-23 -38 -7 -15 15 -14 16 11 16 15 0 27 -4 27 -9z m90 -20 c-13 -25 -33 -27
-50 -6 -11 13 -8 15 19 15 17 0 31 5 31 12 0 6 3 9 6 6 3 -4 1 -16 -6 -27z
m-2439 -11 c21 0 25 -15 7 -26 -11 -7 -39 22 -37 40 0 6 3 5 6 -1 2 -7 13 -13
24 -13z m99 11 c0 -13 -37 -24 -50 -16 -6 4 -8 11 -5 16 8 12 55 12 55 0z
m2400 -21 c-12 -22 -31 -23 -38 -2 -2 7 6 12 17 12 12 0 21 5 21 12 0 6 3 9 6
6 3 -4 0 -16 -6 -28z m1014 10 c9 0 13 -18 14 -60 1 -44 -3 -60 -13 -60 -7 0
-15 -4 -17 -10 -1 -5 -3 26 -3 70 0 44 2 76 3 70 2 -5 9 -10 16 -10z m409 -8
c-6 -25 -33 -30 -33 -7 0 8 7 15 15 15 8 0 15 5 15 12 0 6 2 9 5 7 2 -3 2 -15
-2 -27z m-3966 -25 c-6 -19 -25 -19 -36 1 -9 17 -7 18 15 14 14 -2 23 -9 21
-15z m2603 -3 c0 -9 -7 -14 -17 -12 -25 5 -28 28 -4 28 12 0 21 -6 21 -16z
m1382 -19 c-5 -28 -25 -29 -30 -3 -2 9 5 18 15 21 10 3 19 5 19 6 1 0 -1 -10
-4 -24z m-4044 3 c-7 -19 -38 -22 -38 -4 0 10 9 16 21 16 12 0 19 -5 17 -12z
m2722 -4 c0 -9 -7 -14 -17 -12 -25 5 -28 28 -4 28 12 0 21 -6 21 -16z m75 -5
c-7 -20 -5 -21 26 -16 19 3 28 3 22 0 -7 -2 -13 -11 -13 -19 0 -16 -36 -19
-45 -4 -3 6 -15 10 -26 10 -10 0 -19 7 -19 15 0 9 9 15 25 15 14 0 25 5 25 10
0 6 3 10 6 10 3 0 2 -10 -1 -21z m3038 -5 c-5 -13 -1 -15 18 -10 13 3 18 3 12
0 -7 -3 -13 -12 -13 -20 0 -8 -6 -14 -14 -14 -18 0 -29 42 -13 52 17 11 17 10
10 -8z m-5893 -9 c0 -8 -9 -15 -19 -15 -11 0 -23 -4 -26 -10 -10 -17 -42 -11
-47 8 -4 15 0 17 23 14 17 -3 29 0 29 7 0 6 9 11 20 11 11 0 20 -7 20 -15z
m-116 -25 c31 -11 34 -30 6 -30 -11 0 -20 6 -20 14 0 8 -6 17 -12 19 -24 10 1
7 26 -3z m3059 3 c-7 -2 -13 -11 -13 -19 0 -8 -9 -14 -20 -14 -11 0 -20 5 -20
10 0 11 36 29 55 29 6 -1 4 -3 -2 -6z m1179 -18 c-5 -26 -32 -35 -32 -10 0 10
20 30 36 35 1 0 -1 -11 -4 -25z m-4278 -5 c14 -5 26 -13 26 -17 0 -11 -52 -34
-59 -27 -3 4 0 9 7 11 6 3 12 11 12 18 0 7 -6 16 -12 18 -24 10 1 7 26 -3z
m3134 -21 c17 -27 10 -34 -20 -17 -12 7 -25 14 -27 15 -1 1 0 6 4 12 10 17 29
13 43 -10z m732 -20 c0 -10 -7 -19 -15 -19 -15 0 -21 31 -9 43 11 10 24 -3 24
-24z m2240 0 c0 -5 -7 -9 -15 -9 -15 0 -20 12 -9 23 8 8 24 -1 24 -14z m-6153
-15 c4 -12 -37 -38 -45 -28 -4 4 -1 9 6 11 6 3 12 11 12 20 0 15 21 14 27 -3z
m3245 -9 c11 -14 26 -25 35 -25 9 0 24 -10 35 -22 16 -19 21 -20 29 -8 8 11 9
10 4 -7 -4 -14 -2 -23 4 -23 6 0 11 5 11 11 0 5 5 7 12 3 9 -6 9 -9 0 -12 -7
-2 -12 -12 -12 -23 0 -28 -7 -24 -61 31 -27 28 -52 50 -56 50 -17 1 -45 29
-38 39 9 16 15 14 37 -14z m1098 5 c0 -5 -7 -10 -15 -10 -8 0 -15 5 -15 10 0
6 7 10 15 10 8 0 15 -4 15 -10z m1830 -20 c0 -5 -4 -10 -10 -10 -5 0 -10 5
-10 10 0 6 5 10 10 10 6 0 10 -4 10 -10z m-2240 -25 c0 -18 -4 -23 -15 -19 -8
4 -15 15 -15 25 0 10 7 19 15 19 9 0 15 -9 15 -25z m-3990 7 c0 -4 -20 -28
-45 -52 -25 -24 -45 -50 -45 -57 0 -7 -4 -13 -9 -13 -5 0 -11 -10 -13 -22 -5
-34 -28 -34 -28 0 0 17 -6 33 -12 36 -7 3 -2 3 11 0 19 -5 23 -3 18 9 -4 11 0
13 14 10 17 -5 18 -3 9 21 -13 34 -13 46 0 26 8 -13 15 -10 42 18 31 30 58 42
58 24z m6280 -41 c-12 -23 -25 -27 -35 -10 -4 6 2 13 14 16 12 3 21 10 21 16
0 6 3 8 6 5 3 -4 1 -16 -6 -27z m-2267 -14 c6 -17 -3 -32 -24 -39 -12 -5 -14
0 -11 23 4 30 26 39 35 16z m2290 -29 c-6 -31 -27 -37 -37 -12 -4 11 1 18 14
21 11 3 20 10 20 16 0 6 2 8 4 6 2 -2 2 -16 -1 -31z m-2850 -5 c-22 -8 -14
-25 10 -19 12 3 16 3 10 0 -7 -3 -13 -19 -13 -35 0 -39 -12 -37 -32 6 -14 32
-14 36 1 45 9 5 21 9 26 9 6 0 4 -3 -2 -6z m577 -28 c0 -8 -4 -15 -10 -15 -5
0 -10 7 -10 15 0 8 5 15 10 15 6 0 10 -7 10 -15z m2289 -27 c-9 -16 -14 -19
-17 -9 -2 7 2 17 9 22 20 13 21 11 8 -13z m-2267 -13 c0 -5 -5 -11 -11 -13 -6
-2 -11 4 -11 13 0 9 5 15 11 13 6 -2 11 -8 11 -13z m1838 -20 c0 -8 -7 -15
-15 -15 -16 0 -20 12 -8 23 11 12 23 8 23 -8z m-1351 -8 c11 -14 6 -27 -10
-27 -5 0 -13 9 -19 20 -8 16 -8 20 3 20 8 0 20 -6 26 -13z m-459 -12 c0 -8 -7
-15 -15 -15 -8 0 -15 7 -15 15 0 8 7 15 15 15 8 0 15 -7 15 -15z m2258 3 c-6
-18 -28 -21 -28 -4 0 9 7 16 16 16 9 0 14 -5 12 -12z m-410 -56 c27 -58 27
-68 4 -74 -15 -4 -17 0 -14 23 3 17 0 29 -7 29 -6 0 -11 9 -11 20 0 11 -4 20
-10 20 -5 0 -10 7 -10 15 0 31 26 13 48 -33z m-1810 -20 c20 -44 67 -110 138
-199 49 -61 296 -303 309 -303 4 0 22 -16 41 -35 18 -19 36 -34 39 -33 2 2 14
-5 25 -14 11 -10 25 -18 30 -18 6 0 10 -7 10 -15 0 -24 -24 -17 -56 16 -24 25
-34 29 -59 25 -21 -4 -26 -3 -15 3 12 8 11 14 -10 38 -33 36 -53 52 -62 47 -3
-2 -31 22 -62 53 -47 48 -58 55 -67 43 -8 -12 -9 -10 -4 9 6 19 4 23 -8 18
-12 -4 -14 -2 -10 10 5 12 1 14 -18 9 -13 -3 -18 -3 -11 0 21 10 13 26 -10 19
-18 -5 -20 -4 -8 4 13 9 7 19 -33 57 -26 25 -45 50 -41 55 3 6 -7 21 -23 35
-31 26 -43 30 -43 12 0 -6 -2 -9 -5 -6 -3 3 -2 16 3 29 7 19 4 27 -19 46 -15
13 -33 22 -41 20 -7 -2 -10 -2 -5 0 10 7 9 41 -3 48 -5 3 -10 15 -10 26 0 10
-4 19 -10 19 -5 0 -10 7 -10 15 0 31 26 13 48 -33z m2242 33 c0 -8 -7 -15 -15
-15 -8 0 -15 7 -15 15 0 8 7 15 15 15 8 0 15 -7 15 -15z m-1751 -35 c17 -17
36 -28 41 -25 6 4 7 -1 3 -11 -5 -14 -3 -16 11 -11 10 4 15 3 11 -3 -3 -5 12
-28 35 -52 41 -44 54 -71 23 -47 -32 24 -173 163 -173 171 0 16 18 7 49 -22z
m1774 -22 c-3 -17 -10 -25 -19 -21 -19 7 -18 33 1 33 8 0 15 5 15 12 0 6 2 9
4 7 2 -2 2 -16 -1 -31z m-6493 -33 c5 -13 32 -47 60 -74 27 -27 50 -52 50 -55
0 -15 -27 -3 -57 26 -29 28 -35 30 -44 18 -8 -12 -9 -10 -4 8 4 13 2 22 -4 22
-6 0 -11 -5 -11 -12 0 -6 -2 -9 -5 -6 -3 3 -1 18 5 33 10 26 9 27 -17 22 -16
-4 -22 -4 -15 -1 6 3 12 14 12 25 0 27 19 24 30 -6z m3570 6 c0 -11 6 -22 13
-24 6 -3 7 -6 1 -6 -18 -2 -47 26 -40 37 11 18 26 14 26 -7z m2518 -36 c16
-35 15 -65 -2 -65 -8 0 -16 -3 -19 -7 -5 -11 0 8 8 30 8 20 -20 25 -29 5 -3
-7 -3 1 1 17 10 54 23 60 41 20z m424 0 c-5 -27 -16 -32 -28 -13 -4 6 1 17 11
25 24 17 23 17 17 -12z m-2962 -4 c0 -11 6 -22 13 -25 6 -3 1 -3 -11 0 -21 5
-23 3 -17 -18 5 -17 4 -19 -4 -9 -8 12 -15 9 -40 -18 -17 -18 -38 -31 -47 -29
-13 2 -4 17 37 60 59 62 69 68 69 39z m2980 -67 c0 -16 -16 -19 -25 -4 -8 13
4 32 16 25 5 -4 9 -13 9 -21z m-408 -46 c-16 -16 -37 4 -28 28 6 16 8 16 23 1
13 -13 15 -19 5 -29z m-1192 10 c12 -15 14 -25 8 -29 -14 -9 -52 26 -43 40 9
16 14 14 35 -11z m-4763 -32 c-6 -17 -27 -18 -27 -2 0 9 -4 16 -10 16 -5 0
-10 4 -10 9 0 5 11 4 25 -2 14 -7 23 -16 22 -21z m6381 -1 c-2 -14 -7 -26 -13
-26 -5 0 -11 12 -13 26 -2 18 1 25 13 25 12 0 15 -7 13 -25z m-3144 0 c-7 -17
-20 -20 -28 -6 -7 10 3 21 20 21 8 0 11 -6 8 -15z m-3184 -25 c14 -11 33 -20
43 -20 24 0 17 -21 -10 -31 -17 -6 -20 -4 -16 12 5 17 3 18 -22 9 -15 -6 -30
-8 -33 -5 -3 3 0 5 6 5 7 0 12 7 12 15 0 8 -4 15 -10 15 -5 0 -10 5 -10 10 0
15 12 12 40 -10z m3133 3 c-7 -3 -13 -11 -13 -19 0 -8 -7 -14 -15 -14 -23 0
-18 26 8 37 12 6 24 8 27 5 3 -2 -1 -7 -7 -9z m-53 -38 c0 -8 5 -15 12 -15 6
0 9 -2 7 -5 -3 -2 -15 -2 -27 2 -25 6 -30 33 -7 33 8 0 15 -7 15 -15z m-3286
-20 c-4 -8 -15 -15 -25 -15 -27 0 -24 18 4 23 12 2 23 5 24 6 1 0 0 -6 -3 -14z
m306 5 c0 -5 11 -10 25 -10 16 0 25 -6 25 -15 0 -8 -9 -15 -20 -15 -11 0 -20
5 -20 11 0 7 -12 10 -29 7 -23 -3 -27 -1 -23 14 4 19 42 26 42 8z m2940 -4 c0
-8 6 -17 13 -19 6 -3 -3 -3 -22 0 -31 6 -33 4 -27 -18 3 -13 3 -18 0 -11 -3 6
-17 12 -30 12 -15 0 -24 6 -24 15 0 9 9 15 25 15 14 0 25 5 25 10 0 6 9 10 20
10 11 0 20 -6 20 -14z m310 -12 c0 -19 -15 -18 -34 2 -21 21 -20 22 9 16 14
-2 25 -11 25 -18z m-3510 -5 c-11 -8 -12 -12 -2 -16 13 -5 17 -33 5 -33 -14 1
-43 27 -43 38 0 6 8 13 18 15 30 8 37 7 22 -4z m3463 -7 c10 -5 -27 -42 -43
-42 -13 0 -13 17 1 25 6 4 8 13 5 21 -5 12 11 11 37 -4z m-3095 -19 c2 -8 -5
-13 -17 -13 -12 0 -21 6 -21 16 0 18 31 15 38 -3z m2722 2 c0 -8 -9 -15 -20
-15 -13 0 -18 5 -14 15 4 8 12 15 20 15 8 0 14 -7 14 -15z m-2663 -22 c2 -6
-7 -13 -21 -15 -22 -4 -24 -3 -15 14 11 20 30 20 36 1z m2601 -1 c2 -7 -5 -12
-17 -12 -14 0 -19 5 -14 15 6 17 25 15 31 -3z m363 8 c5 0 9 -7 9 -15 0 -8 -7
-15 -15 -15 -8 0 -15 6 -15 14 0 8 -3 16 -7 19 -5 2 -2 2 5 0 8 -1 18 -3 23
-3z m-3341 -15 c0 -8 -7 -15 -15 -15 -8 0 -15 7 -15 15 0 8 7 15 15 15 8 0 15
-7 15 -15z m438 -13 c2 -7 -6 -12 -17 -12 -12 0 -21 -5 -21 -12 0 -6 -3 -9 -6
-6 -3 4 0 16 6 28 12 22 31 23 38 2z m2480 0 c2 -7 -6 -12 -17 -12 -21 0 -27
11 -14 24 9 9 26 2 31 -12z m-2874 -7 c4 -12 11 -13 32 -5 22 9 25 8 16 -3
-16 -19 -5 -27 23 -17 20 7 22 6 18 -11 -4 -16 -1 -20 12 -17 10 2 20 -3 22
-9 5 -15 -23 -18 -32 -3 -3 6 -15 10 -26 10 -10 0 -19 5 -19 11 0 6 -7 8 -15
5 -9 -3 -18 1 -21 9 -4 8 -15 15 -25 15 -19 0 -25 11 -12 23 10 11 20 8 27 -8z
m3266 0 c0 -8 -7 -15 -15 -15 -8 0 -15 -4 -15 -10 0 -5 -11 -10 -25 -10 -14 0
-25 -4 -25 -10 0 -5 -9 -10 -20 -10 -11 0 -20 -4 -20 -10 0 -5 -9 -10 -21 -10
-12 0 -19 5 -16 13 2 6 12 11 21 9 9 -2 19 4 22 13 4 9 13 14 21 11 7 -3 16 1
20 9 3 10 12 13 24 10 13 -4 19 -1 19 9 0 9 7 16 15 16 8 0 15 -7 15 -15z
m-2802 -12 c2 -8 -5 -13 -17 -13 -21 0 -35 13 -24 24 10 10 36 3 41 -11z
m2350 0 c2 -8 -6 -13 -22 -13 -25 0 -33 10 -19 24 10 10 36 3 41 -11z m-2268
-18 c11 -13 8 -15 -14 -15 -25 0 -33 10 -19 23 10 11 19 8 33 -8z m2178 -3 c2
-7 -7 -12 -23 -12 -24 0 -26 2 -15 15 14 17 31 16 38 -3z m2366 2 c17 -6 22
-24 8 -24 -5 0 -17 7 -28 15 -19 15 -8 20 20 9z m1286 -34 c0 -29 -4 -40 -15
-40 -16 0 -20 35 -9 64 11 29 24 16 24 -24z m-5730 5 c0 -7 -15 -15 -34 -17
-27 -3 -33 -1 -28 12 3 8 10 18 15 21 14 10 47 -2 47 -16z m2000 0 c0 -7 3
-15 8 -18 4 -2 1 -2 -6 0 -8 1 -25 3 -38 3 -28 0 -33 26 -6 32 24 6 42 -2 42
-17z m2500 1 c0 -8 -4 -17 -9 -21 -12 -7 -24 12 -16 25 9 15 25 12 25 -4z
m820 -6 c0 -5 -7 -10 -15 -10 -8 0 -15 5 -15 10 0 6 7 10 15 10 8 0 15 -4 15
-10z m-5212 -17 c6 -20 -55 -16 -62 3 -5 12 1 15 26 12 17 -2 33 -9 36 -15z
m1789 10 c-4 -3 -3 -11 2 -17 7 -8 -2 -10 -30 -8 -56 6 -52 32 4 32 17 0 27
-3 24 -7z m-2359 -14 c-2 -6 -8 -10 -13 -10 -5 0 -11 4 -13 10 -2 6 4 11 13
11 9 0 15 -5 13 -11z m2912 2 c0 -12 -29 -23 -41 -15 -18 10 -9 24 16 24 14 0
25 -4 25 -9z m-2220 -16 c0 -10 -10 -15 -34 -15 -19 0 -40 -2 -48 -3 -7 -2
-10 -2 -5 0 4 3 7 11 7 19 0 10 12 14 40 14 29 0 40 -4 40 -15z m1560 0 c0
-11 -11 -15 -40 -15 -29 0 -40 4 -40 15 0 11 11 15 40 15 29 0 40 -4 40 -15z
m-2212 -6 c-2 -6 -8 -10 -13 -10 -5 0 -11 4 -13 10 -2 6 4 11 13 11 9 0 15 -5
13 -11z m2812 1 c0 -5 -7 -10 -15 -10 -8 0 -15 5 -15 10 0 6 7 10 15 10 8 0
15 -4 15 -10z m2170 -6 c0 -17 -22 -14 -28 4 -2 7 3 12 12 12 9 0 16 -7 16
-16z m740 6 c0 -5 -7 -10 -15 -10 -8 0 -15 5 -15 10 0 6 7 10 15 10 8 0 15 -4
15 -10z m-4902 -17 c2 -9 -11 -13 -47 -13 -39 0 -51 4 -51 16 0 12 10 14 47
12 26 -2 48 -9 51 -15z m1254 0 c4 -16 -2 -18 -54 -15 -32 2 -58 7 -58 11 0
16 15 21 61 21 36 0 48 -4 51 -17z m-2011 -8 c-1 -15 -24 -12 -29 3 -3 9 2 13
12 10 10 -1 17 -7 17 -13z m89 -15 c-12 -23 -50 -25 -58 -2 -2 8 7 12 27 12
17 0 31 5 31 12 0 6 3 9 6 6 3 -4 0 -16 -6 -28z m2506 10 c27 0 32 -17 8 -27
-17 -6 -45 20 -43 41 0 6 3 5 6 -1 2 -7 16 -13 29 -13z m94 10 c0 -5 -7 -10
-15 -10 -8 0 -15 5 -15 10 0 6 7 10 15 10 8 0 15 -4 15 -10z m-1692 -6 c45
-13 20 -24 -53 -24 -60 0 -75 3 -75 15 0 11 12 15 53 15 28 0 62 -3 75 -6z
m804 -11 c4 -16 -3 -18 -79 -15 -45 2 -83 7 -83 12 0 12 27 18 96 19 51 1 62
-2 66 -16z m3180 -8 c0 -5 -5 -11 -11 -13 -6 -2 -11 4 -11 13 0 9 5 15 11 13
6 -2 11 -8 11 -13z m624 -5 c8 0 14 -7 14 -15 0 -8 -7 -15 -15 -15 -8 0 -15 4
-15 9 0 5 -2 15 -3 23 -2 7 -2 10 0 6 3 -5 11 -8 19 -8z m464 0 c0 -11 5 -20
12 -20 6 0 9 -3 6 -6 -4 -3 -16 -1 -27 6 -24 12 -28 40 -6 40 8 0 15 -9 15
-20z m-3520 -16 c0 -20 -28 -17 -39 5 -9 16 -7 17 14 13 14 -2 25 -11 25 -18z
m-2400 1 c0 -8 -7 -15 -15 -15 -8 0 -15 7 -15 15 0 8 7 15 15 15 8 0 15 -7 15
-15z m4900 -15 c-12 -23 -30 -27 -30 -6 0 8 8 17 18 19 9 3 18 5 20 6 1 0 -2
-8 -8 -19z m-4820 -5 c0 -8 -7 -15 -15 -15 -8 0 -15 7 -15 15 0 8 7 15 15 15
8 0 15 -7 15 -15z m2238 3 c-7 -19 -38 -22 -38 -4 0 10 9 16 21 16 12 0 19 -5
17 -12z m-2115 -5 c-7 -2 -13 -11 -13 -19 0 -11 -8 -14 -27 -12 -39 5 -40 26
-1 31 49 6 54 6 41 0z m2034 -17 c-6 -20 -55 -19 -65 1 -9 17 -6 18 29 15 24
-3 38 -9 36 -16z m2714 15 c-12 -8 -13 -12 -1 -25 19 -24 5 -30 -24 -11 -32
21 -33 32 -3 38 38 7 42 7 28 -2z m949 -15 c0 -8 2 -20 3 -28 2 -7 2 -10 0 -5
-3 4 -11 7 -19 7 -8 0 -14 9 -14 20 0 11 7 20 15 20 8 0 15 -6 15 -14z m-3794
-6 c15 0 24 -6 24 -15 0 -10 -10 -15 -30 -15 -19 0 -30 5 -30 14 0 8 -3 16 -7
19 -5 2 -2 2 5 0 8 -1 25 -3 38 -3z m-1816 -15 c0 -9 -9 -15 -25 -15 -16 0
-25 6 -25 15 0 9 9 15 25 15 16 0 25 -6 25 -15z m133 -16 c-4 -15 -12 -19 -31
-17 -39 5 -39 26 0 31 18 2 34 5 35 5 0 1 -1 -7 -4 -19z m1584 -3 c-2 -6 -17
-12 -34 -14 -23 -2 -32 2 -35 15 -4 16 0 18 34 15 23 -3 37 -9 35 -16z m2338
-46 c50 -33 95 -64 102 -70 7 -5 17 -10 23 -10 21 0 9 -28 -14 -32 -18 -4 -23
-1 -18 10 4 12 -1 14 -20 10 -19 -3 -25 -1 -21 8 9 23 -19 43 -46 33 -13 -5
-26 -7 -29 -4 -3 3 0 5 6 5 7 0 12 5 12 11 0 14 -26 39 -40 39 -11 0 -60 44
-60 55 0 12 20 2 105 -55z m1535 35 c0 -8 -7 -15 -15 -15 -8 0 -15 7 -15 15 0
8 7 15 15 15 8 0 15 -7 15 -15z m-5296 -11 c5 -12 -1 -15 -31 -12 -48 4 -57
28 -10 28 22 0 37 -6 41 -16z m1284 4 c-3 -7 -23 -14 -46 -16 -33 -2 -42 0
-42 12 0 12 11 16 46 16 32 0 44 -4 42 -12z m-1034 -23 c6 -17 0 -18 -69 -15
-55 2 -68 7 -60 21 4 5 32 9 65 9 42 0 59 -4 64 -15z m841 1 c0 -9 -12 -12
-80 -19 -48 -5 -65 0 -65 20 0 11 15 13 73 11 39 -2 72 -7 72 -12z m4185 -7
c0 -12 -29 -38 -42 -39 -3 0 -1 11 5 25 12 25 37 34 37 14z m-4645 -9 c8 -13
-20 -24 -41 -16 -20 8 -9 26 16 26 10 0 22 -5 25 -10z m4600 -50 c6 -9 -33
-55 -41 -48 -5 6 19 58 28 58 4 0 9 -4 13 -10z m-1305 -50 c0 -5 7 -10 15 -10
8 0 15 -7 15 -15 0 -19 -17 -19 -36 -1 -16 17 -19 36 -4 36 6 0 10 -4 10 -10z
m1262 -25 c0 -5 -5 -11 -11 -13 -6 -2 -11 4 -11 13 0 9 5 15 11 13 6 -2 11 -8
11 -13z m-1186 -25 c8 0 14 -4 14 -10 0 -5 16 -16 35 -24 19 -8 35 -20 35 -25
0 -6 7 -11 15 -11 8 0 23 -8 33 -18 10 -10 32 -24 50 -31 35 -15 41 -28 17
-37 -9 -4 -23 4 -36 20 -11 14 -25 24 -30 21 -5 -4 -20 5 -33 19 -13 14 -30
26 -37 26 -8 0 -21 9 -29 20 -8 11 -20 20 -28 20 -20 0 -44 28 -36 42 6 9 9 9
12 0 2 -7 10 -12 18 -12z m1104 -71 c0 -6 -31 -41 -70 -78 l-70 -68 20 -23
c11 -12 26 -20 33 -17 10 4 13 -1 9 -19 -6 -33 -21 -29 -60 17 l-34 38 79 80
c77 79 93 91 93 70z m-860 -89 c0 -5 7 -10 15 -10 8 0 15 -4 15 -10 0 -5 5
-10 11 -10 15 0 39 -26 32 -34 -4 -3 -17 1 -31 10 -15 10 -34 13 -50 10 -20
-5 -23 -4 -12 3 12 8 12 13 2 23 -16 16 -15 28 3 28 8 0 15 -4 15 -10z m11
-80 c5 0 9 -7 9 -15 0 -8 -4 -15 -9 -15 -5 0 -18 -3 -28 -7 -16 -6 -17 -5 -4
11 13 15 13 19 0 28 -11 8 -10 9 4 4 10 -3 23 -6 28 -6z m-51 -51 c0 -14 -30
-38 -48 -39 -9 0 -8 7 5 25 19 25 43 33 43 14z m895 -84 c47 -46 55 -65 30
-65 -8 0 -15 3 -15 8 0 6 -16 27 -60 79 -11 13 -13 23 -5 23 3 0 26 -20 50
-45z m-987 19 c-3 -19 -34 -41 -43 -32 -7 7 25 48 38 48 5 0 7 -7 5 -16z m-58
-45 c0 -12 -29 -38 -42 -39 -12 0 -9 19 5 35 15 17 37 19 37 4z m-5225 -72
c16 -35 96 -117 113 -117 19 0 36 -30 24 -42 -9 -9 -17 -5 -32 15 -12 15 -26
27 -33 27 -6 0 -21 10 -34 22 -20 19 -25 20 -33 8 -13 -20 -12 -8 0 26 9 24 8
26 -9 21 -14 -3 -18 -1 -14 10 5 12 1 14 -18 9 -13 -3 -18 -3 -11 0 6 3 12 17
12 30 0 34 16 30 35 -9z m3579 -20 c6 -5 1 -6 -11 -2 -14 4 -23 2 -23 -4 0 -6
-4 -11 -10 -11 -15 0 -12 23 8 50 l17 25 4 -25 c1 -14 8 -29 15 -33z m1566 32
c0 -12 -29 -38 -42 -39 -12 0 -9 19 5 35 15 17 37 19 37 4z m1202 -9 c19 -18
20 -20 4 -26 -20 -8 -21 -6 -30 24 -9 27 -2 28 26 2z m-520 -7 c9 -10 24 -25
34 -32 12 -10 14 -16 5 -19 -6 -2 -20 5 -30 17 -10 12 -26 21 -35 21 -9 0 -16
7 -16 15 0 20 22 19 42 -2z m-52 -19 c0 -8 -32 -33 -42 -34 -16 0 -7 29 10 33
27 7 32 7 32 1z m-710 -29 c0 -8 -5 -15 -10 -15 -6 0 -20 -9 -32 -20 -32 -30
-41 -13 -10 20 29 32 52 39 52 15z m1314 -1 c5 -14 9 -14 23 -3 9 8 14 10 11
4 -2 -5 -8 -19 -12 -30 -7 -19 -8 -19 -26 5 -11 14 -20 28 -20 33 0 14 18 7
24 -9z m-1439 -68 c19 -14 19 -15 -8 -40 -28 -26 -47 -33 -47 -18 0 4 9 14 20
22 23 16 26 36 8 43 -7 3 -8 6 -2 6 5 1 19 -5 29 -13z m1505 -23 c0 -7 -7 -13
-15 -13 -8 0 -15 4 -15 9 0 5 -3 17 -6 26 -6 15 -4 15 15 4 11 -8 21 -19 21
-26z m-3006 12 c-4 -8 -10 -12 -15 -9 -14 8 -10 24 6 24 9 0 12 -6 9 -15z
m-3254 -40 c0 -8 -7 -15 -15 -15 -8 0 -15 7 -15 15 0 8 7 15 15 15 8 0 15 -7
15 -15z m3193 0 c-6 -17 -25 -15 -31 3 -2 7 5 12 17 12 14 0 19 -5 14 -15z
m3087 -10 c0 -8 -7 -15 -15 -15 -8 0 -15 7 -15 15 0 8 7 15 15 15 8 0 15 -7
15 -15z m-6227 -7 c31 -15 36 -38 8 -38 -11 0 -25 -2 -33 -3 -7 -2 -10 -2 -5
0 11 7 9 33 -3 33 -5 0 -10 5 -10 10 0 13 10 13 43 -2z m3097 -3 c0 -8 -4 -15
-9 -15 -13 0 -22 16 -14 24 11 11 23 6 23 -9z m3153 -28 c-6 -29 -26 -32 -31
-4 -2 10 3 17 12 17 9 0 16 5 16 12 0 6 2 9 4 7 2 -2 2 -17 -1 -32z m-3193 8
c0 -8 5 -15 12 -15 6 0 9 -2 7 -5 -3 -2 -15 -2 -27 2 -25 6 -30 33 -7 33 8 0
15 -7 15 -15z m-3310 -15 c10 0 21 6 24 13 3 6 3 1 0 -12 -5 -19 -3 -23 9 -18
11 4 13 0 9 -15 -3 -14 -1 -19 6 -14 7 4 12 2 12 -4 0 -13 -43 -3 -48 11 -2 5
-10 9 -18 9 -8 0 -14 7 -14 15 0 8 -5 15 -11 15 -5 0 -7 5 -3 12 6 9 9 9 12 0
2 -7 12 -12 22 -12z m320 -4 c0 -7 -8 -16 -19 -19 -14 -3 -17 0 -14 14 6 22
33 26 33 5z m2949 -5 c9 -16 8 -18 -9 -14 -11 3 -20 12 -20 19 0 20 18 17 29
-5z m1571 -1 c0 -14 -86 -100 -100 -100 -19 0 -10 15 37 62 49 48 63 56 63 38z
m-4460 -9 c0 -5 9 -11 20 -13 29 -4 30 -22 3 -26 -13 -2 -23 1 -23 7 0 6 -9
11 -20 11 -11 0 -20 7 -20 15 0 8 9 15 20 15 11 0 20 -4 20 -9z m2852 -9 c4
-15 1 -18 -18 -14 -13 2 -24 11 -24 18 0 21 37 17 42 -4z m318 -8 c0 -21 -27
-17 -33 5 -3 14 0 17 14 14 11 -3 19 -12 19 -19z m-390 -15 c0 -5 -7 -9 -15
-9 -15 0 -20 12 -9 23 8 8 24 -1 24 -14z m2929 -27 c14 -20 36 -59 49 -87 13
-27 28 -58 34 -69 6 -12 6 -22 0 -28 -7 -7 -17 5 -31 36 -12 25 -26 46 -32 46
-6 0 -8 9 -4 20 5 14 2 20 -10 20 -11 0 -15 6 -11 18 8 24 -32 50 -46 30 -7
-10 -8 -8 -4 5 3 10 6 25 6 33 0 26 25 14 49 -24z m-5604 17 c9 -14 7 -15 -35
-22 -19 -3 -29 -3 -22 0 6 2 12 11 12 19 0 16 36 19 45 3z m2996 1 c5 0 9 -7
9 -15 0 -8 -7 -15 -15 -15 -8 0 -15 6 -15 14 0 8 -3 16 -7 19 -5 2 -2 2 5 0 8
-1 18 -3 23 -3z m1916 -24 c-16 -16 -37 -21 -37 -9 0 14 35 40 44 33 5 -5 2
-15 -7 -24z m-5297 9 c0 -8 -7 -15 -15 -15 -8 0 -15 7 -15 15 0 8 7 15 15 15
8 0 15 -7 15 -15z m3000 5 c0 -5 -7 -10 -15 -10 -8 0 -15 5 -15 10 0 6 7 10
15 10 8 0 15 -4 15 -10z m-2552 -17 c2 -8 -6 -13 -22 -13 -14 0 -26 -5 -26
-12 0 -6 -3 -9 -6 -6 -3 4 0 16 6 28 12 22 40 24 48 3z m2490 -1 c2 -7 -6 -12
-17 -12 -21 0 -27 11 -14 24 9 9 26 2 31 -12z m403 8 c5 0 9 -7 9 -15 0 -8 -7
-15 -15 -15 -8 0 -15 6 -15 14 0 8 -3 16 -7 19 -5 2 -2 2 5 0 8 -1 18 -3 23
-3z m-3297 -15 c3 -8 12 -12 19 -9 17 6 31 -23 15 -32 -6 -4 -16 0 -23 9 -7
10 -20 17 -29 17 -9 0 -16 7 -16 15 0 19 26 20 34 0z m6396 -6 c0 -5 -4 -9
-10 -9 -5 0 -10 7 -10 16 0 8 5 12 10 9 6 -3 10 -10 10 -16z m-5912 -6 c2 -8
-5 -13 -17 -13 -21 0 -35 13 -24 24 10 10 36 3 41 -11z m2352 -4 c0 -5 -11 -9
-25 -9 -26 0 -34 15 -12 23 16 5 37 -3 37 -14z m430 -4 c0 -8 -5 -15 -11 -15
-6 0 -17 -7 -26 -15 -8 -8 -19 -12 -24 -9 -6 3 -16 -1 -22 -10 -8 -10 -17 -13
-26 -7 -17 11 -4 34 15 27 8 -3 17 1 21 10 3 8 12 13 20 10 7 -3 16 1 19 9 8
20 34 19 34 0z m-3179 -17 c-9 -25 -32 -31 -39 -10 -3 9 16 23 45 31 1 1 -1
-9 -6 -21z m473 16 c28 -11 17 -24 -19 -24 -33 0 -43 8 -28 23 8 9 27 9 47 1z
m2186 -15 c0 -5 -12 -9 -27 -9 -27 1 -27 1 -9 15 19 14 36 12 36 -6z m2440 1
c0 -5 -4 -10 -10 -10 -14 0 -12 -27 3 -33 6 -3 7 -6 1 -6 -5 -1 -19 5 -30 13
-19 15 -19 15 1 30 23 18 35 20 35 6z m-5057 -20 c-3 -11 -14 -20 -24 -20 -34
0 -21 18 28 39 0 1 -1 -8 -4 -19z m537 -10 c0 -14 -47 -13 -56 1 -3 6 -1 15 7
19 14 9 49 -5 49 -20z m5750 15 c0 -8 -4 -15 -9 -15 -13 0 -22 16 -14 24 11
11 23 6 23 -9z m-3750 -9 c0 -8 3 -16 8 -19 4 -2 1 -2 -6 0 -8 1 -28 3 -45 3
-29 0 -30 1 -11 15 24 18 54 19 54 1z m-1902 -6 c6 0 12 -7 12 -15 0 -20 -76
-21 -83 -1 -7 17 10 27 38 21 11 -3 26 -5 33 -5z m1799 -7 c-4 -3 -2 -11 3
-18 7 -8 2 -10 -20 -7 -42 6 -39 32 3 32 11 0 17 -3 14 -7z m-2397 -13 c0 -5
-7 -10 -15 -10 -8 0 -15 5 -15 10 0 6 7 10 15 10 8 0 15 -4 15 -10z m2970 0
c0 -5 -7 -10 -15 -10 -8 0 -15 5 -15 10 0 6 7 10 15 10 8 0 15 -4 15 -10z
m3300 -5 c0 -8 -4 -15 -9 -15 -13 0 -22 16 -14 24 11 11 23 6 23 -9z m-5535
-5 c3 -6 0 -12 -7 -14 -19 -6 -105 -15 -90 -9 6 3 12 11 12 19 0 17 75 20 85
4z m1535 -5 c0 -16 -55 -22 -64 -6 -8 13 5 21 36 21 18 0 28 -5 28 -15z m2670
7 c0 -4 -9 -14 -20 -22 -11 -8 -20 -20 -20 -27 0 -7 -9 -13 -20 -13 -28 0 -25
10 13 42 32 28 47 34 47 20z m-4882 -14 c-3 -7 -11 -13 -18 -13 -7 0 -15 6
-17 13 -3 7 4 12 17 12 13 0 20 -5 18 -12z m2860 0 c-3 -7 -11 -13 -18 -13 -7
0 -15 6 -17 13 -3 7 4 12 17 12 13 0 20 -5 18 -12z m-2010 -15 c3 -9 -12 -13
-52 -13 -44 0 -56 3 -56 16 0 12 10 14 52 12 30 -2 53 -8 56 -15z m1212 2 c0
-11 -12 -15 -45 -15 -72 0 -53 24 23 29 13 0 22 -5 22 -14z m-1997 -10 c-3
-17 -30 -17 -37 0 -4 13 -1 16 17 13 12 -2 21 -7 20 -13z m67 -14 c-12 -24
-40 -28 -40 -6 0 8 9 15 20 15 11 0 20 5 20 12 0 6 3 9 6 6 3 -4 1 -16 -6 -27z
m2668 17 c-7 -19 -38 -22 -38 -4 0 10 9 16 21 16 12 0 19 -5 17 -12z m3432 -3
c0 -8 -4 -15 -10 -15 -5 0 -10 7 -10 15 0 8 5 15 10 15 6 0 10 -7 10 -15z
m-5136 -1 c78 -11 51 -24 -49 -24 -78 0 -95 3 -95 15 0 17 59 20 144 9z m765
-11 c8 -17 2 -18 -85 -15 -141 5 -120 24 33 30 31 2 45 -3 52 -15z m792 -13
c10 0 19 -7 19 -15 0 -22 -27 -19 -40 4 -5 11 -10 23 -9 28 0 4 3 2 6 -4 2 -7
13 -13 24 -13z m89 11 c0 -6 -5 -13 -10 -16 -15 -9 -43 3 -35 15 8 13 45 13
45 1z m1500 -1 c0 -5 -4 -10 -10 -10 -5 0 -10 -5 -10 -10 0 -13 -46 -60 -58
-60 -5 0 -12 9 -15 19 -3 13 0 18 7 15 7 -3 26 9 42 25 31 31 44 37 44 21z
m-4037 -7 c-7 -2 -13 -11 -13 -20 0 -8 -7 -13 -17 -11 -26 5 -27 26 -1 31 32
6 45 6 31 0z m67 -39 c0 -9 -7 -14 -17 -12 -25 5 -28 28 -4 28 12 0 21 -6 21
-16z m2318 4 c-7 -19 -38 -22 -38 -4 0 10 9 16 21 16 12 0 19 -5 17 -12z
m3670 -39 l3 -44 -16 29 c-18 34 -20 69 -2 64 6 -3 13 -24 15 -49z m-5898 21
c-12 -23 -40 -27 -40 -6 0 8 10 17 23 19 12 2 23 5 25 6 1 0 -2 -8 -8 -19z
m2148 -2 c-7 -20 -58 -23 -58 -4 0 11 10 16 31 16 20 0 29 -4 27 -12z m-2035
-5 c-7 -2 -13 -11 -13 -20 0 -9 -8 -13 -22 -11 -32 5 -33 26 -1 31 41 6 50 6
36 0z m1923 -3 c15 0 24 -6 24 -15 0 -10 -10 -15 -30 -15 -19 0 -30 5 -30 14
0 8 -3 16 -7 19 -5 2 -2 2 5 0 8 -1 25 -3 38 -3z m-1805 -23 c-6 -8 -8 -17 -3
-21 4 -4 -11 -6 -32 -4 -55 4 -58 26 -4 31 24 2 45 4 47 5 2 1 -2 -4 -8 -11z
m1709 -12 c0 -10 -10 -15 -30 -15 -20 0 -30 5 -30 15 0 10 10 15 30 15 20 0
30 -5 30 -15z m-121 -11 c1 -1 0 -7 -4 -13 -10 -17 -85 -14 -85 3 0 8 -6 16
-12 19 -7 2 12 2 42 -1 30 -2 57 -6 59 -8z m-1449 -9 c0 -10 -11 -15 -35 -15
-24 0 -35 5 -35 15 0 10 11 15 35 15 24 0 35 -5 35 -15z m203 -2 c-7 -2 -13
-11 -13 -18 0 -17 -18 -22 -58 -15 -65 10 -28 30 73 38 6 0 4 -2 -2 -5z m1077
-18 c0 -8 -17 -14 -46 -17 -49 -4 -58 -1 -66 22 -5 12 4 14 53 12 40 -3 59 -8
59 -17z m-627 -15 c-6 -24 -41 -34 -86 -26 -17 3 -70 6 -117 7 -47 1 -91 6
-99 13 -11 8 24 12 145 16 87 3 160 7 161 8 0 1 -1 -7 -4 -18z m-336 4 c-3 -3
-12 -4 -19 -1 -8 3 -5 6 6 6 11 1 17 -2 13 -5z m736 -1 c-13 -2 -23 -8 -23
-12 0 -5 -39 -9 -87 -9 -49 -1 -111 -4 -139 -8 -62 -7 -95 1 -87 22 4 11 36
14 182 13 97 -1 166 -4 154 -6z m2315 -15 c-6 -18 -28 -21 -28 -4 0 9 7 16 16
16 9 0 14 -5 12 -12z m-46 -63 c0 -5 -5 -11 -11 -13 -6 -2 -11 4 -11 13 0 9 5
15 11 13 6 -2 11 -8 11 -13z m2198 -59 c-8 -8 -13 -7 -19 3 -10 16 -2 53 13
63 15 10 21 -51 6 -66z m-790 49 c0 -13 -58 -15 -465 -15 -256 0 -465 4 -465
8 0 5 3 12 7 15 3 4 213 7 465 7 400 0 458 -2 458 -15z m390 5 c0 -5 -7 -10
-15 -10 -8 0 -15 5 -15 10 0 6 7 10 15 10 8 0 15 -4 15 -10z m-1317 -49 c3
-14 1 -18 -9 -14 -8 3 -27 -9 -43 -26 -27 -29 -51 -40 -51 -24 0 12 83 92 90
88 4 -3 10 -13 13 -24z m1287 14 c0 -8 -4 -15 -10 -15 -5 0 -10 7 -10 15 0 8
5 15 10 15 6 0 10 -7 10 -15z m-1810 -19 c0 -7 -7 -20 -16 -27 -9 -7 -20 -24
-25 -37 -10 -26 -24 -23 -32 7 -3 14 0 17 14 14 17 -5 18 -2 10 20 -8 22 -7
24 10 20 10 -3 19 0 19 6 0 6 5 11 10 11 6 0 10 -6 10 -14z m2220 -46 c0 -21
-15 -27 -25 -10 -7 12 2 30 16 30 5 0 9 -9 9 -20z m-20 -50 c0 -5 -4 -10 -10
-10 -5 0 -10 5 -10 10 0 6 5 10 10 10 6 0 10 -4 10 -10z m-2260 -16 c0 -9 -5
-14 -12 -12 -18 6 -21 28 -4 28 9 0 16 -7 16 -16z m450 -19 c0 -8 -7 -15 -15
-15 -26 0 -18 20 13 29 1 1 2 -6 2 -14z m1790 -5 c0 -5 -4 -10 -10 -10 -5 0
-10 5 -10 10 0 6 5 10 10 10 6 0 10 -4 10 -10z m-2262 -11 c-2 -6 -8 -10 -13
-10 -5 0 -11 4 -13 10 -2 6 4 11 13 11 9 0 15 -5 13 -11z m1712 -16 c0 -12
-43 -53 -57 -53 -18 0 -16 7 10 35 21 23 47 33 47 18z m528 -14 c-2 -6 -8 -10
-13 -10 -5 0 -11 4 -13 10 -2 6 4 11 13 11 9 0 15 -5 13 -11z m-2258 -14 c0
-8 -7 -15 -15 -15 -8 0 -15 7 -15 15 0 8 7 15 15 15 8 0 15 -7 15 -15z m450
-7 c0 -7 -11 -18 -25 -25 -28 -13 -30 -11 -13 17 14 22 38 27 38 8z m-470 -38
c0 -19 -28 -10 -33 10 -4 17 -2 18 14 9 10 -5 19 -14 19 -19z m2243 -9 c3 -13
0 -18 -8 -15 -7 3 -16 1 -20 -5 -8 -14 -25 -14 -25 -1 0 15 23 39 36 40 7 0
14 -9 17 -19z m-2282 -11 c23 -13 26 -40 4 -40 -8 0 -15 9 -15 19 0 11 -6 22
-12 24 -7 3 -9 6 -5 6 5 1 17 -4 28 -9z m-4 -94 c-4 -9 -11 -16 -17 -16 -11 0
-14 33 -3 44 11 10 26 -11 20 -28z m-27 -66 c0 -5 -4 -10 -10 -10 -5 0 -10 5
-10 10 0 6 5 10 10 10 6 0 10 -4 10 -10z m408 -31 c-2 -6 -8 -10 -13 -10 -5 0
-11 4 -13 10 -2 6 4 11 13 11 9 0 15 -5 13 -11z m1692 3 c0 -5 -9 -17 -20 -27
-12 -10 -19 -24 -16 -31 3 -7 -2 -10 -15 -7 -25 7 -24 18 4 48 22 24 47 33 47
17z m-676 -17 c-4 -8 -10 -15 -15 -15 -5 0 -9 7 -9 15 0 8 7 15 15 15 9 0 12
-6 9 -15z m-5598 -30 c15 -31 55 -71 124 -124 20 -16 22 -22 13 -32 -10 -10
-17 -7 -33 14 -12 15 -26 27 -33 27 -6 0 -21 10 -34 22 -20 19 -25 20 -33 8
-13 -20 -12 -8 0 26 9 24 8 26 -9 21 -14 -3 -18 -1 -14 10 5 12 1 14 -18 9
-13 -3 -18 -3 -11 0 6 3 12 17 12 30 0 35 16 30 36 -11z m3578 -18 c6 -5 1 -6
-11 -2 -14 4 -23 2 -23 -4 0 -6 -4 -11 -10 -11 -15 0 -12 23 8 50 l17 25 4
-25 c1 -14 8 -29 15 -33z m576 28 c0 -8 -4 -15 -10 -15 -5 0 -10 7 -10 15 0 8
5 15 10 15 6 0 10 -7 10 -15z m410 -20 c0 -26 -14 -33 -25 -15 -9 14 1 40 15
40 5 0 10 -11 10 -25z m970 -1 c0 -21 -27 -17 -33 5 -3 14 0 17 14 14 11 -3
19 -12 19 -19z m-69 -24 c5 0 9 -6 9 -14 0 -13 -39 -30 -49 -21 -2 3 1 5 7 5
13 0 16 26 5 33 -5 2 -2 2 5 0 8 -1 18 -3 23 -3z m679 -21 c0 -14 -25 -39 -39
-39 -16 0 -13 11 7 31 20 21 32 24 32 8z m-1600 -29 c0 -16 -5 -30 -10 -30
-14 0 -24 26 -16 45 10 26 26 16 26 -15z m870 -3 c0 -13 -39 -41 -47 -34 -2 3
2 14 9 26 14 23 38 28 38 8z m-1258 -72 c2 -27 -1 -52 -7 -55 -6 -3 -11 21
-13 60 -4 77 15 73 20 -5z m-717 35 c-3 -5 -10 -10 -16 -10 -5 0 -9 5 -9 10 0
6 7 10 16 10 8 0 12 -4 9 -10z m1911 -2 c8 -12 -22 -38 -43 -38 -11 0 -10 6 4
25 20 27 29 30 39 13z m714 2 c0 -5 -4 -10 -10 -10 -14 0 -12 -27 3 -33 6 -3
7 -6 1 -6 -5 -1 -19 5 -29 13 -16 12 -17 16 -6 30 15 18 41 22 41 6z m-1500
-47 c0 -25 -1 -26 -16 -11 -9 9 -13 21 -10 27 13 20 26 11 26 -16z m-4380 2
c0 -8 -7 -15 -15 -15 -8 0 -15 7 -15 15 0 8 7 15 15 15 8 0 15 -7 15 -15z
m3193 0 c-6 -17 -25 -15 -31 3 -2 7 5 12 17 12 14 0 19 -5 14 -15z m2627 5 c0
-5 -5 -10 -11 -10 -6 0 -9 -8 -7 -17 4 -14 -1 -18 -22 -18 -23 0 -26 2 -16 18
6 9 16 17 23 17 7 0 13 5 13 10 0 6 5 10 10 10 6 0 10 -4 10 -10z m-5767 -22
c31 -15 36 -38 8 -38 -11 0 -25 -2 -33 -3 -7 -2 -10 -2 -5 0 11 7 9 33 -3 33
-5 0 -10 5 -10 10 0 13 10 13 43 -2z m3097 -3 c0 -8 -4 -15 -9 -15 -13 0 -22
16 -14 24 11 11 23 6 23 -9z m1930 -11 c0 -9 -5 -14 -12 -12 -18 6 -21 28 -4
28 9 0 16 -7 16 -16z m-1970 -9 c0 -8 5 -15 12 -15 6 0 9 -2 7 -5 -3 -2 -15
-2 -27 2 -25 6 -30 33 -7 33 8 0 15 -7 15 -15z m-3310 -15 c10 0 21 6 24 13 3
6 3 1 0 -12 -5 -19 -3 -23 9 -18 11 4 13 0 10 -14 -3 -11 -11 -17 -17 -14 -6
3 -19 8 -28 11 -10 4 -18 10 -18 14 0 5 -2 14 -3 22 -2 7 -2 10 0 6 3 -5 13
-8 23 -8z m320 -5 c-1 -5 -9 -13 -19 -17 -15 -5 -18 -3 -14 13 6 20 35 23 33
4z m2953 -4 c3 -14 0 -17 -14 -14 -22 6 -26 33 -5 33 7 0 16 -8 19 -19z m2661
4 c-4 -8 -12 -15 -20 -15 -8 0 -11 6 -8 15 4 8 12 15 20 15 8 0 11 -6 8 -15z
m-5554 -14 c0 -5 9 -11 20 -13 29 -4 30 -22 3 -26 -13 -2 -23 1 -23 7 0 6 -9
11 -20 11 -11 0 -20 7 -20 15 0 8 9 15 20 15 11 0 20 -4 20 -9z m2852 -9 c4
-15 1 -18 -18 -14 -13 2 -24 11 -24 18 0 21 37 17 42 -4z m318 -8 c0 -21 -27
-17 -33 5 -3 14 0 17 14 14 11 -3 19 -12 19 -19z m647 10 c6 -17 -20 -45 -41
-43 -6 0 -5 3 2 6 6 2 12 16 12 29 0 27 17 32 27 8z m-1037 -25 c0 -5 -7 -9
-15 -9 -15 0 -20 12 -9 23 8 8 24 -1 24 -14z m2710 6 c0 -8 -7 -15 -15 -15 -9
0 -12 6 -9 15 4 8 10 15 15 15 5 0 9 -7 9 -15z m-5385 -16 c9 -14 7 -15 -35
-22 -19 -3 -29 -3 -22 0 6 2 12 11 12 19 0 16 36 19 45 3z m2996 1 c5 0 9 -7
9 -15 0 -8 -7 -15 -15 -15 -8 0 -15 6 -15 14 0 8 -3 16 -7 19 -5 2 -2 2 5 0 8
-1 18 -3 23 -3z m-3381 -15 c0 -8 -7 -15 -15 -15 -8 0 -15 7 -15 15 0 8 7 15
15 15 8 0 15 -7 15 -15z m3000 5 c0 -5 -7 -10 -15 -10 -8 0 -15 5 -15 10 0 6
7 10 15 10 8 0 15 -4 15 -10z m-2552 -17 c2 -8 -6 -13 -22 -13 -14 0 -26 -5
-26 -12 0 -6 -3 -9 -6 -6 -3 4 0 16 6 28 12 22 40 24 48 3z m2492 -4 c7 -11 9
-23 6 -27 -3 -3 -6 0 -6 6 0 7 -9 12 -20 12 -20 0 -26 11 -13 23 11 12 22 8
33 -14z m1178 -17 c2 -24 -1 -32 -12 -32 -12 0 -16 10 -16 36 0 45 24 42 28
-4z m-4078 13 c0 -8 -7 -15 -15 -15 -16 0 -20 12 -8 23 11 12 23 8 23 -8z
m3310 0 c0 -8 -7 -15 -15 -15 -8 0 -15 7 -15 15 0 8 7 15 15 15 8 0 15 -7 15
-15z m2360 5 c0 -5 -7 -10 -16 -10 -8 0 -12 5 -9 10 3 6 10 10 16 10 5 0 9 -4
9 -10z m-5182 -17 c2 -8 -5 -13 -17 -13 -21 0 -35 13 -24 24 10 10 36 3 41
-11z m2352 -4 c0 -5 -11 -9 -25 -9 -26 0 -34 15 -12 23 16 5 37 -3 37 -14z
m-2796 -4 c4 -11 11 -13 30 -6 21 8 23 7 19 -10 -6 -20 -43 -27 -43 -8 0 6 -7
9 -15 6 -16 -7 -29 8 -20 23 9 14 22 12 29 -5z m3226 3 c0 -13 -44 -38 -67
-38 -7 0 -13 -4 -13 -10 0 -18 -38 -10 -43 9 -4 17 -2 18 19 10 19 -7 26 -5
31 7 3 8 12 13 20 10 7 -3 16 1 19 9 7 18 34 20 34 3z m-2706 -4 c28 -11 17
-24 -19 -24 -33 0 -43 8 -28 23 8 9 27 9 47 1z m2186 -15 c0 -5 -12 -9 -27 -9
-27 1 -27 1 -9 15 19 14 36 12 36 -6z m2860 5 c0 -11 -29 -34 -44 -34 -8 0
-24 -12 -35 -26 -11 -14 -25 -23 -31 -19 -16 10 -12 23 10 30 11 4 32 17 47
31 24 22 53 32 53 18z m-5477 -24 c-3 -11 -14 -20 -24 -20 -26 0 -24 19 4 30
12 5 23 9 24 9 0 1 -1 -8 -4 -19z m514 -8 c-34 -4 -48 5 -27 18 8 5 22 4 34
-3 20 -11 20 -12 -7 -15z m2023 8 c0 -5 -12 -10 -26 -10 -14 0 -23 4 -19 10 3
6 15 10 26 10 10 0 19 -4 19 -10z m-1902 -10 c6 0 12 -7 12 -15 0 -20 -76 -21
-83 -1 -7 17 10 27 38 21 11 -3 26 -5 33 -5z m1796 -15 c-4 -8 -17 -15 -31
-15 -22 0 -24 2 -13 15 7 8 21 15 31 15 12 0 16 -5 13 -15z m1536 -5 c0 -11
-7 -20 -15 -20 -8 0 -15 9 -15 20 0 11 7 20 15 20 8 0 15 -9 15 -20z m-3930 0
c0 -5 -7 -10 -15 -10 -8 0 -15 5 -15 10 0 6 7 10 15 10 8 0 15 -4 15 -10z
m736 -11 c3 -5 -1 -11 -8 -13 -19 -6 -105 -15 -90 -9 6 3 12 11 12 18 0 7 5
15 12 17 17 6 67 -3 74 -13z m2234 11 c0 -5 -7 -10 -15 -10 -8 0 -15 5 -15 10
0 6 7 10 15 10 8 0 15 -4 15 -10z m-700 -15 c0 -16 -55 -22 -64 -6 -8 13 5 21
36 21 18 0 28 -5 28 -15z m-2212 -6 c-2 -6 -8 -10 -13 -10 -5 0 -11 4 -13 10
-2 6 4 11 13 11 9 0 15 -5 13 -11z m2862 3 c0 -14 -11 -21 -26 -15 -21 8 -17
23 6 23 11 0 20 -4 20 -8z m-2012 -19 c3 -9 -12 -13 -52 -13 -44 0 -56 3 -56
16 0 12 10 14 52 12 30 -2 53 -8 56 -15z m1212 2 c0 -11 -12 -15 -45 -15 -72
0 -53 24 23 29 13 0 22 -5 22 -14z m2517 -10 c-30 -26 -58 -35 -39 -12 8 9
-16 11 -119 9 -111 -3 -129 -1 -129 12 0 14 22 16 158 16 l157 -1 -28 -24z
m666 8 c-7 -3 -13 -11 -13 -19 0 -8 -7 -14 -15 -14 -23 0 -18 24 8 36 12 5 24
8 27 6 3 -3 -1 -7 -7 -9z m-5179 -2 c3 -5 0 -11 -8 -14 -15 -6 -26 1 -26 15 0
11 27 10 34 -1z m66 -21 c-12 -22 -31 -23 -38 -2 -2 7 6 12 17 12 12 0 21 5
21 12 0 6 3 9 6 6 3 -4 0 -16 -6 -28z m2668 18 c-7 -19 -38 -22 -38 -4 0 10 9
16 21 16 12 0 19 -5 17 -12z m1078 -24 c-11 -8 -25 -14 -30 -14 -8 0 -8 3 0 8
6 4 14 16 18 26 5 15 9 17 19 7 9 -10 8 -15 -7 -27z m-2782 20 c78 -11 51 -24
-49 -24 -78 0 -95 3 -95 15 0 17 59 20 144 9z m765 -11 c8 -17 2 -18 -85 -15
-141 5 -120 24 33 30 31 2 45 -3 52 -15z m881 -2 c0 -6 -5 -13 -10 -16 -15 -9
-43 3 -35 15 8 13 45 13 45 1z m-2550 -21 c-13 -24 -26 -26 -33 -6 -4 10 2 16
16 19 12 2 23 5 25 6 1 0 -2 -8 -8 -19z m2480 -1 c0 -17 -19 -19 -34 -3 -21
21 -20 22 9 16 14 -2 25 -8 25 -13z m1240 -18 c0 -11 5 -23 10 -26 15 -9 12
-45 -4 -45 -8 0 -17 -6 -19 -12 -3 -7 -3 2 0 20 5 29 -8 45 -20 25 -2 -5 -2
-2 0 5 1 8 3 22 3 33 0 10 7 19 15 19 8 0 15 -9 15 -19z m453 -1 c-3 -11 -12
-20 -19 -20 -20 0 -17 28 4 33 9 3 18 5 19 6 0 0 -1 -8 -4 -19z m807 5 c0 -8
5 -15 12 -15 6 0 9 -2 7 -5 -3 -2 -15 -2 -27 2 -25 6 -30 33 -7 33 8 0 15 -7
15 -15z m-4900 -10 c0 -8 -7 -15 -15 -15 -8 0 -15 7 -15 15 0 8 7 15 15 15 8
0 15 -7 15 -15z m2318 3 c-3 -7 -11 -13 -18 -13 -7 0 -15 6 -17 13 -3 7 4 12
17 12 13 0 20 -5 18 -12z m1912 6 c0 -7 -98 -104 -105 -104 -15 0 0 27 38 65
37 39 67 56 67 39z m-4140 -25 c-12 -21 -31 -22 -37 -2 -2 6 6 13 19 16 13 2
24 5 26 6 1 0 -2 -8 -8 -20z m2148 -1 c-7 -20 -58 -23 -58 -4 0 11 10 16 31
16 20 0 29 -4 27 -12z m-2035 -5 c-7 -2 -13 -11 -13 -20 0 -9 -8 -13 -22 -11
-32 5 -33 26 -1 31 41 6 50 6 36 0z m1923 -3 c15 0 24 -6 24 -15 0 -10 -10
-15 -30 -15 -19 0 -30 5 -30 14 0 8 -3 16 -7 19 -5 2 -2 2 5 0 8 -1 25 -3 38
-3z m1987 -10 c-5 -20 -33 -29 -33 -10 0 7 25 27 37 30 0 0 -1 -9 -4 -20z
m712 -10 c-15 -17 -55 -34 -55 -24 0 3 12 16 26 29 30 28 54 23 29 -5z m-4512
-15 c-4 -15 -56 -12 -61 3 -3 10 5 13 29 10 19 -2 33 -7 32 -13z m1721 6 c7
-10 -17 -21 -45 -21 -10 0 -19 7 -19 15 0 17 55 22 64 6z m-125 -17 c1 -1 0
-7 -4 -13 -10 -17 -85 -14 -85 3 0 8 -6 16 -12 19 -7 2 12 2 42 -1 30 -2 57
-6 59 -8z m-1449 -9 c0 -10 -11 -15 -35 -15 -24 0 -35 5 -35 15 0 10 11 15 35
15 24 0 35 -5 35 -15z m203 -2 c-7 -2 -13 -11 -13 -19 0 -12 -11 -14 -47 -12
-83 5 -45 27 62 36 6 0 4 -2 -2 -5z m1074 -16 c-2 -7 -26 -13 -54 -15 -42 -2
-51 0 -55 15 -4 16 1 18 54 15 39 -3 58 -8 55 -15z m1943 8 c0 -8 -7 -15 -15
-15 -8 0 -15 7 -15 15 0 8 7 15 15 15 8 0 15 -7 15 -15z m1070 0 c0 -8 -4 -15
-10 -15 -5 0 -10 7 -10 15 0 8 5 15 10 15 6 0 10 -7 10 -15z m-3637 -25 c-6
-22 -35 -34 -66 -26 -12 2 -67 6 -122 7 -55 1 -106 7 -114 13 -11 8 27 12 145
16 87 3 160 7 161 8 0 1 -1 -7 -4 -18z m381 -4 c-4 -10 -31 -14 -107 -15 -56
0 -117 -4 -134 -7 -45 -9 -84 2 -77 21 5 12 33 15 165 15 130 0 157 -2 153
-14z m2210 -13 c12 -33 45 -86 57 -94 6 -3 8 -12 5 -18 -11 -18 -26 -13 -26 8
0 11 -12 29 -26 40 -14 11 -23 25 -20 30 4 5 -1 14 -10 19 -9 5 -14 14 -10 21
10 16 23 14 30 -6z m986 -3 c0 -5 -4 -10 -10 -10 -5 0 -10 -7 -10 -15 0 -8 5
-15 12 -15 6 0 9 -2 7 -5 -3 -2 -15 -2 -27 2 -25 6 -30 33 -7 33 8 0 15 5 15
10 0 6 5 10 10 10 6 0 10 -4 10 -10z m-100 -79 c0 -6 -5 -13 -11 -16 -6 -4 -8
-13 -6 -19 4 -9 -2 -11 -19 -8 -23 4 -23 12 1 39 12 15 35 17 35 4z m-776 -94
c20 -26 36 -49 36 -52 0 -14 -47 -75 -57 -75 -20 0 -15 24 7 40 21 15 27 40
10 40 -5 0 -10 8 -10 18 0 10 -9 24 -20 32 -19 14 -29 55 -11 48 5 -1 25 -24
45 -51z m666 12 c0 -6 -13 -24 -30 -39 -16 -15 -30 -33 -30 -39 0 -14 -17 -14
-26 0 -4 7 10 28 32 50 41 40 54 47 54 28z m-3 -125 c-7 -7 -47 14 -47 25 0
19 15 19 33 0 10 -11 17 -23 14 -25z m-5655 -102 c-5 -92 -26 -94 -30 -4 -2
51 0 62 13 62 8 0 15 5 15 12 0 6 1 9 3 7 1 -2 1 -37 -1 -77z m5723 68 c9 -14
42 -12 49 3 3 6 2 -1 -1 -18 -6 -27 -5 -29 11 -16 14 12 16 12 10 -3 -4 -10
-13 -15 -21 -12 -8 3 -21 6 -29 6 -8 0 -14 7 -14 15 0 9 -6 12 -15 9 -9 -4
-15 0 -15 10 0 18 15 22 25 6z m1930 -10 c7 0 15 -6 18 -13 7 -19 -4 -106 -14
-113 -13 -7 -17 11 -22 86 -2 36 -2 59 1 52 2 -6 10 -12 17 -12z m-2715 -11
c0 -11 -24 -39 -34 -39 -3 0 -10 9 -15 19 -9 16 -8 18 9 14 11 -3 20 0 20 6 0
6 5 11 10 11 6 0 10 -5 10 -11z m903 -26 c-7 -2 -13 -11 -13 -19 0 -8 -7 -14
-15 -14 -21 0 -19 28 3 33 23 6 40 7 25 0z m27 -38 c0 -8 -7 -15 -15 -15 -8 0
-15 7 -15 15 0 8 7 15 15 15 8 0 15 -7 15 -15z m40 -20 c0 -8 -7 -15 -15 -15
-8 0 -15 7 -15 15 0 8 7 15 15 15 8 0 15 -7 15 -15z m-1042 -15 c-15 -23 -38
-34 -38 -18 0 11 29 37 43 38 4 0 2 -9 -5 -20z m1086 -5 c4 -11 11 -13 30 -6
21 8 23 7 19 -10 -5 -19 -43 -27 -43 -9 0 6 -9 10 -20 10 -20 0 -26 11 -13 23
10 11 20 8 27 -8z m1916 -46 c0 -28 -4 -39 -12 -36 -7 2 -13 9 -12 15 1 7 2
23 3 37 2 42 21 28 21 -16z m-8072 -17 c2 -33 0 -42 -12 -42 -12 0 -16 11 -16
46 0 59 24 55 28 -4z m6245 27 c-4 -16 -2 -20 12 -17 10 2 20 -3 22 -9 5 -15
-23 -18 -32 -3 -3 6 -15 10 -26 10 -26 0 -24 19 4 30 12 5 23 9 24 9 0 1 -1
-8 -4 -20z m-1223 -34 c0 -8 -7 -15 -15 -15 -8 0 -15 7 -15 15 0 8 7 15 15 15
8 0 15 -7 15 -15z m513 -9 c12 -9 14 -16 7 -21 -6 -4 -17 -1 -25 5 -11 9 -19
10 -28 1 -18 -14 -29 -3 -14 15 15 17 37 17 60 0z m-5313 -21 c0 -16 -6 -25
-15 -25 -9 0 -15 9 -15 25 0 16 6 25 15 25 9 0 15 -9 15 -25z m6100 15 c0 -5
-7 -10 -15 -10 -8 0 -15 5 -15 10 0 6 7 10 15 10 8 0 15 -4 15 -10z m-1328
-25 c0 -5 -5 -11 -11 -13 -6 -2 -11 4 -11 13 0 9 5 15 11 13 6 -2 11 -8 11
-13z m1366 4 c-2 -6 -8 -10 -13 -10 -5 0 -11 4 -13 10 -2 6 4 11 13 11 9 0 15
-5 13 -11z m1492 -9 c0 -11 -7 -20 -15 -20 -8 0 -15 9 -15 20 0 11 7 20 15 20
8 0 15 -9 15 -20z m-1450 -16 c0 -9 -5 -14 -12 -12 -18 6 -21 28 -4 28 9 0 16
-7 16 -16z m50 -13 c-13 -24 -30 -28 -30 -6 0 8 7 15 15 15 8 0 15 5 15 12 0
6 3 9 6 6 3 -4 1 -16 -6 -27z m-5703 -1 c3 -11 9 -20 14 -20 5 0 9 -4 9 -10 0
-15 60 -72 117 -110 52 -34 68 -60 38 -60 -8 0 -15 7 -15 16 0 10 -5 14 -15
10 -10 -3 -30 11 -56 39 -41 44 -72 57 -82 33 -3 -7 -3 2 0 21 5 29 4 33 -10
28 -12 -4 -14 -2 -10 10 5 12 1 14 -18 9 -13 -3 -18 -3 -11 0 6 3 12 17 12 30
0 29 20 32 27 4z m3573 5 c0 -8 -4 -15 -10 -15 -5 0 -10 7 -10 15 0 8 5 15 10
15 6 0 10 -7 10 -15z m-4302 -43 c2 -23 -1 -32 -12 -32 -8 0 -16 -3 -19 -7 -2
-5 -2 -2 0 5 1 8 3 27 3 44 0 40 24 32 28 -10z m4933 28 c5 0 9 -7 9 -15 0 -8
-7 -15 -15 -15 -8 0 -15 6 -15 14 0 8 -3 16 -7 19 -5 2 -2 2 5 0 8 -1 18 -3
23 -3z m1539 -10 c-12 -23 -30 -27 -30 -6 0 8 8 17 18 19 9 3 18 5 20 6 1 0
-2 -8 -8 -19z m1574 -32 c7 -5 7 -8 0 -8 -5 0 -19 6 -29 14 -17 12 -18 16 -5
32 14 16 15 16 19 -7 1 -13 8 -27 15 -31z m-7822 7 c-5 -27 -16 -32 -28 -13
-4 6 1 17 11 25 24 17 23 17 17 -12z m4058 11 c0 -8 3 -16 8 -19 4 -2 1 -2 -7
0 -8 2 -18 -2 -22 -9 -11 -18 -19 -6 -12 20 6 24 33 31 33 8z m2243 7 c-7 -2
-13 -11 -13 -19 0 -8 -7 -14 -15 -14 -21 0 -19 28 3 33 23 6 40 7 25 0z m1287
-24 c0 -27 -27 -23 -32 5 -4 19 -1 22 14 18 10 -2 18 -13 18 -23z m-2892 -17
c2 -7 -3 -12 -12 -12 -9 0 -16 7 -16 16 0 17 22 14 28 -4z m1632 3 c0 -8 -7
-15 -15 -15 -8 0 -15 7 -15 15 0 8 7 15 15 15 8 0 15 -7 15 -15z m-6530 -46
c0 -10 -7 -19 -15 -19 -15 0 -21 31 -9 43 11 10 24 -3 24 -24z m220 -5 c0 -8
-7 -14 -15 -14 -15 0 -21 21 -9 33 10 9 24 -2 24 -19z m4642 4 c-7 -7 -12 -8
-12 -2 0 14 12 26 19 19 2 -3 -1 -11 -7 -17z m1728 7 c0 -8 -4 -15 -9 -15 -5
0 -11 7 -15 15 -3 9 0 15 9 15 8 0 15 -7 15 -15z m1180 -5 c0 -11 -7 -20 -15
-20 -27 0 -18 30 13 39 1 1 2 -8 2 -19z m220 0 c0 -11 -7 -20 -15 -20 -15 0
-21 21 -8 33 12 13 23 7 23 -13z m-3826 -25 c-10 -8 -24 -15 -31 -15 -6 0 -21
-12 -32 -26 -11 -14 -25 -23 -31 -19 -17 10 -12 21 17 36 15 8 38 24 52 37 17
15 28 19 35 12 7 -7 4 -15 -10 -25z m2476 5 c23 -23 25 -30 7 -30 -22 0 -51
26 -43 38 10 16 13 15 36 -8z m-1794 -27 c-10 -10 -19 5 -10 18 6 11 8 11 12
0 2 -7 1 -15 -2 -18z m-4826 -13 c0 -11 -7 -20 -15 -20 -8 0 -15 9 -15 20 0
11 7 20 15 20 8 0 15 -9 15 -20z m5280 10 c0 -5 -7 -10 -15 -10 -8 0 -15 5
-15 10 0 6 7 10 15 10 8 0 15 -4 15 -10z m555 -4 c41 -28 116 -66 130 -66 8 0
15 -4 15 -10 0 -5 9 -10 20 -10 11 0 20 -4 20 -10 0 -5 9 -10 20 -10 11 0 20
-4 20 -10 0 -5 6 -10 13 -10 15 0 211 -97 246 -122 13 -9 20 -21 16 -27 -9
-16 -25 -13 -25 5 0 11 -6 14 -20 9 -11 -3 -20 -2 -20 4 0 11 -56 41 -77 41
-7 0 -13 5 -13 10 0 6 -9 10 -20 10 -11 0 -20 5 -20 10 0 6 -9 10 -20 10 -11
0 -20 5 -20 10 0 6 -9 10 -20 10 -11 0 -20 5 -20 10 0 6 -9 10 -20 10 -11 0
-20 5 -20 10 0 6 -9 10 -19 10 -11 0 -23 5 -27 11 -3 6 -17 9 -29 7 -18 -4
-22 -1 -17 10 4 12 -1 14 -29 9 -19 -3 -28 -3 -21 0 6 2 12 11 12 19 0 10 -6
11 -26 3 -15 -5 -29 -7 -32 -4 -3 3 0 5 6 5 7 0 12 7 12 16 0 10 -6 14 -17 10
-12 -3 -25 4 -36 19 -17 24 -17 25 0 25 10 0 27 -6 38 -14z m905 -71 c0 -11
-17 -4 -43 19 -16 14 -34 27 -40 29 -6 2 -8 11 -4 21 6 16 12 13 47 -23 22
-23 40 -43 40 -46z m1210 65 c0 -11 -7 -20 -15 -20 -15 0 -21 21 -8 33 12 13
23 7 23 -13z m-7730 -5 c0 -8 -7 -15 -15 -15 -8 0 -15 7 -15 15 0 8 7 15 15
15 8 0 15 -7 15 -15z m7508 4 c-2 -6 -8 -10 -13 -10 -5 0 -11 4 -13 10 -2 6 4
11 13 11 9 0 15 -5 13 -11z m-2918 -19 c0 -5 -7 -10 -15 -10 -8 0 -15 5 -15
10 0 6 7 10 15 10 8 0 15 -4 15 -10z m-3890 -14 c0 -13 -39 -30 -49 -21 -2 3
1 5 7 5 7 0 12 7 12 15 0 8 7 15 15 15 8 0 15 -6 15 -14z m3110 -1 c0 -8 -7
-15 -15 -15 -8 0 -15 7 -15 15 0 8 7 15 15 15 8 0 15 -7 15 -15z m-3790 -10
c0 -8 -7 -15 -15 -15 -8 0 -15 7 -15 15 0 8 7 15 15 15 8 0 15 -7 15 -15z
m7470 0 c0 -8 -7 -15 -15 -15 -8 0 -15 7 -15 15 0 8 7 15 15 15 8 0 15 -7 15
-15z m-7690 -19 c0 -14 -7 -26 -18 -28 -15 -4 -17 0 -14 23 5 35 32 39 32 5z
m940 10 c0 -7 -8 -16 -19 -19 -14 -3 -17 0 -14 14 6 22 33 26 33 5z m3030 -1
c0 -8 5 -15 12 -15 6 0 9 -3 6 -6 -8 -8 -48 14 -48 26 0 6 7 10 15 10 8 0 15
-7 15 -15z m1250 6 c0 -6 -4 -13 -10 -16 -5 -3 -10 1 -10 9 0 9 5 16 10 16 6
0 10 -4 10 -9z m-450 -16 c0 -8 -7 -15 -15 -15 -8 0 -15 7 -15 15 0 8 7 15 15
15 8 0 15 -7 15 -15z m2886 -5 c8 0 14 -7 14 -15 0 -8 -7 -15 -15 -15 -8 0
-15 4 -15 9 0 5 -2 15 -3 23 -2 7 -2 10 0 6 3 -5 11 -8 19 -8z m254 0 c0 -11
5 -20 12 -20 6 0 9 -2 7 -5 -3 -2 -15 -2 -27 2 -25 6 -31 43 -7 43 8 0 15 -9
15 -20z m-6920 0 c0 -5 11 -10 25 -10 16 0 25 -6 25 -15 0 -19 -36 -20 -44 0
-4 11 -11 13 -30 6 -21 -8 -23 -7 -19 10 5 19 43 27 43 9z m2940 -4 c0 -8 3
-16 8 -19 4 -2 1 -2 -6 0 -8 1 -20 3 -28 3 -8 0 -14 7 -14 15 0 8 9 15 20 15
11 0 20 -6 20 -14z m-3690 -11 c0 -8 -7 -15 -15 -15 -16 0 -20 12 -8 23 11 12
23 8 23 -8z m4960 -9 c0 -8 6 -17 13 -20 6 -3 1 -3 -12 0 -22 6 -24 4 -18 -27
3 -19 3 -28 0 -21 -2 6 -11 12 -19 12 -17 0 -18 8 -1 43 13 28 37 37 37 13z
m-1327 -10 c4 -10 0 -12 -14 -9 -22 6 -26 23 -5 23 8 0 16 -6 19 -14z m-3853
-10 c0 -7 -8 -16 -19 -19 -14 -3 -17 0 -14 14 6 22 33 26 33 5z m1075 4 c3 -5
15 -10 25 -10 17 0 37 -17 29 -24 -2 -2 -20 -6 -39 -9 -19 -3 -29 -3 -22 0 19
8 14 23 -8 23 -11 0 -20 7 -20 15 0 17 25 20 35 5z m2725 -5 c0 -8 -7 -15 -15
-15 -8 0 -15 7 -15 15 0 8 7 15 15 15 8 0 15 -7 15 -15z m930 -10 c0 -12 -29
-3 -34 10 -4 13 -2 14 14 5 11 -6 20 -13 20 -15z m2881 15 c23 -13 25 -30 4
-30 -8 0 -15 6 -15 14 0 8 -6 17 -12 19 -7 3 -9 6 -5 6 5 1 17 -4 28 -9z m262
-9 c3 -14 0 -17 -14 -14 -22 6 -26 33 -5 33 7 0 16 -8 19 -19z m-7633 -6 c0
-8 -4 -15 -9 -15 -13 0 -22 16 -14 24 11 11 23 6 23 -9z m6531 -6 c10 -12 25
-19 33 -16 10 4 12 0 9 -14 -8 -27 -28 -23 -52 10 -32 44 -24 59 10 20z
m-3031 -10 c0 -5 -7 -9 -15 -9 -15 0 -20 12 -9 23 8 8 24 -1 24 -14z m-3720
-14 c0 -8 -7 -15 -15 -15 -8 0 -15 -5 -15 -12 0 -6 -3 -9 -6 -6 -8 8 14 48 26
48 6 0 10 -7 10 -15z m1188 -2 c2 -9 -8 -13 -32 -13 -21 0 -36 -5 -36 -12 0
-6 -3 -9 -6 -6 -3 4 0 16 6 28 12 23 60 25 68 3z m2472 -4 c7 -11 9 -23 6 -27
-3 -3 -6 0 -6 6 0 7 -9 12 -20 12 -20 0 -26 11 -13 23 11 12 22 8 33 -14z
m1030 -10 c0 -27 -27 -23 -32 5 -4 19 -1 22 14 18 10 -2 18 -13 18 -23z m2874
25 c17 -7 22 -34 6 -34 -5 0 -10 6 -10 14 0 8 -6 17 -12 19 -7 3 -10 6 -6 6 3
1 13 -2 22 -5z m269 -16 c4 -12 4 -24 2 -27 -3 -2 -5 1 -5 7 0 7 -7 12 -15 12
-8 0 -15 7 -15 15 0 23 27 18 33 -7z m-7568 -35 c-2 -7 7 -21 20 -32 28 -21
33 -41 10 -41 -9 0 -21 12 -28 28 -6 15 -17 32 -23 37 -7 6 -15 21 -19 34 l-7
24 26 -19 c14 -11 24 -24 21 -31z m983 20 c2 -8 -5 -13 -17 -13 -21 0 -35 13
-24 24 10 10 36 3 41 -11z m2352 -4 c7 -11 9 -23 6 -27 -3 -3 -6 0 -6 6 0 7
-11 12 -25 12 -24 0 -32 10 -18 23 13 13 32 7 43 -14z m1520 6 c0 -8 -7 -15
-15 -15 -8 0 -15 7 -15 15 0 8 7 15 15 15 8 0 15 -7 15 -15z m-5082 -70 c-7
-7 -12 -6 -15 3 -3 6 -11 12 -19 12 -8 0 -14 8 -14 18 0 32 14 34 37 5 16 -20
19 -30 11 -38z m1286 59 c25 -9 19 -24 -9 -24 -24 0 -32 10 -18 23 8 8 8 8 27
1z m2184 -12 c2 -7 -6 -12 -17 -12 -21 0 -27 11 -14 24 9 9 26 2 31 -12z
m4302 -3 c0 -5 -7 -9 -15 -9 -15 0 -20 12 -9 23 8 8 24 -1 24 -14z m-6375 -20
c5 -5 -6 -9 -28 -9 -35 0 -45 8 -30 23 8 8 43 -1 58 -14z m3665 6 c0 -8 -7
-15 -15 -15 -8 0 -15 7 -15 15 0 8 7 15 15 15 8 0 15 -7 15 -15z m-1690 -5 c0
-5 -12 -10 -26 -10 -14 0 -23 4 -19 10 3 6 15 10 26 10 10 0 19 -4 19 -10z
m-1866 -26 c4 -10 -4 -14 -28 -14 -33 0 -58 24 -33 33 20 6 55 -5 61 -19z
m1779 0 c-3 -9 -20 -14 -45 -14 -34 0 -37 2 -26 14 27 27 82 27 71 0z m1347
-25 c0 -66 -24 -62 -28 4 -2 37 0 47 12 47 12 0 16 -12 16 -51z m2880 41 c0
-5 -7 -10 -15 -10 -8 0 -15 5 -15 10 0 6 7 10 15 10 8 0 15 -4 15 -10z m238
-8 c2 -7 -3 -12 -12 -12 -9 0 -16 7 -16 16 0 17 22 14 28 -4z m-6118 -28 c0
-10 -12 -14 -39 -14 -22 0 -45 -2 -53 -3 -7 -2 -10 -2 -5 0 4 3 7 11 7 18 0
17 14 22 56 17 20 -3 34 -10 34 -18z m5160 16 c0 -5 -4 -10 -10 -10 -5 0 -10
5 -10 10 0 6 5 10 10 10 6 0 10 -4 10 -10z m-3630 -15 c0 -16 -55 -22 -64 -6
-8 13 5 21 36 21 18 0 28 -5 28 -15z m1880 -4 c0 -10 -7 -21 -15 -25 -15 -5
-22 24 -8 37 12 13 23 7 23 -12z m-4987 -46 c35 -52 36 -55 17 -65 -16 -9 -18
-8 -13 6 5 13 1 15 -18 10 -13 -3 -18 -3 -11 0 21 10 13 26 -10 20 -13 -3 -17
-3 -10 0 14 7 16 40 2 49 -12 8 -13 35 -1 35 4 0 25 -25 44 -55z m7672 45 c6
-10 -36 -52 -44 -44 -6 6 21 54 30 54 4 0 11 -5 14 -10z m-5927 -17 c3 -9 -12
-13 -52 -13 -44 0 -56 3 -56 16 0 12 10 14 52 12 30 -2 53 -8 56 -15z m1216 2
c-4 -10 -20 -15 -50 -15 -75 0 -50 25 28 29 21 1 26 -3 22 -14z m3280 0 c22
-17 15 -29 -24 -40 -19 -5 -21 -4 -10 4 12 8 12 13 2 23 -28 28 -2 39 32 13z
m-5943 -45 c8 11 9 9 4 -8 -6 -21 -4 -23 17 -18 12 3 17 3 11 0 -7 -3 -13 -12
-13 -20 0 -17 -17 -18 -33 -1 -66 69 -92 125 -32 67 30 -29 38 -32 46 -20z
m1702 34 c68 -12 38 -24 -58 -24 -78 0 -95 3 -95 15 0 12 13 15 58 15 31 0 74
-3 95 -6z m759 -11 c4 -16 -4 -18 -89 -15 -142 5 -117 24 38 30 37 2 48 -2 51
-15z m4628 -4 c0 -6 -14 -24 -32 -41 l-32 -30 -8 28 c-4 15 -5 30 -3 33 3 2 5
-1 5 -7 0 -19 24 -14 40 8 16 22 30 26 30 9z m-2417 -19 c4 -17 2 -18 -14 -9
-22 11 -25 29 -5 29 7 0 16 -9 19 -20z m1328 3 c12 -10 36 -33 53 -52 56 -62
88 -90 108 -97 10 -3 17 -11 15 -17 -5 -16 -47 -22 -47 -7 0 7 -38 48 -85 93
-47 44 -85 84 -85 89 0 13 18 9 41 -9z m-1701 -18 c0 -8 16 -30 35 -49 19 -20
35 -38 35 -41 0 -14 -25 -2 -50 25 -28 30 -44 37 -53 23 -2 -5 -2 -2 0 5 1 8
3 22 3 33 0 10 7 19 15 19 8 0 15 -7 15 -15z m3030 4 c0 -11 -24 -39 -34 -39
-11 0 -6 26 6 38 15 15 28 15 28 1z m-2677 -28 c3 -14 0 -17 -14 -14 -11 3
-19 12 -19 19 0 21 27 17 33 -5z m1787 -5 c0 -8 2 -20 3 -28 2 -7 2 -10 0 -5
-3 4 -11 7 -19 7 -14 0 -19 21 -7 33 11 12 23 8 23 -7z m-6669 -38 c13 -18 57
-66 97 -107 39 -41 72 -78 72 -82 0 -4 9 -10 19 -14 10 -3 34 -20 53 -38 19
-18 50 -40 69 -51 51 -27 81 -54 74 -66 -10 -15 -25 -12 -25 6 0 10 -5 14 -15
10 -10 -4 -27 7 -46 29 -32 36 -63 45 -73 23 -3 -7 -3 -3 0 10 6 23 -10 31
-20 10 -3 -7 -3 -2 0 11 5 20 3 23 -10 18 -10 -4 -15 -3 -11 3 7 11 -17 40
-33 40 -13 0 -112 101 -112 115 0 6 -11 22 -26 35 -21 21 -27 22 -35 10 -8
-11 -9 -10 -4 8 6 20 -8 32 -18 15 -2 -5 -2 -2 0 5 1 8 3 20 3 28 0 23 15 16
41 -18z m299 12 c-12 -8 -6 -18 35 -60 27 -27 54 -50 61 -50 6 0 19 -9 29 -20
20 -23 50 -26 59 -7 3 6 3 2 0 -10 -3 -13 -1 -23 5 -23 6 0 11 -5 11 -11 0
-13 -41 -2 -55 15 -5 6 -22 17 -37 23 -16 7 -28 17 -28 23 0 5 -5 10 -10 10
-6 0 -23 11 -38 24 -15 14 -37 33 -49 44 -27 23 -29 39 -5 45 30 8 38 7 22 -3z
m6350 -19 c0 -5 3 -18 6 -28 5 -15 4 -15 -5 -3 -8 12 -14 11 -35 -9 -14 -14
-29 -22 -32 -18 -6 6 -1 15 31 54 12 14 35 17 35 4z m541 -1 c19 0 8 -24 -28
-56 -35 -32 -53 -42 -53 -28 0 3 14 19 30 34 30 28 37 44 23 53 -5 2 -2 2 5 0
8 -1 18 -3 23 -3z m309 -1 c0 -14 -25 -39 -39 -39 -16 0 -14 11 6 32 18 20 33
24 33 7z m-2690 -9 c0 -5 -4 -10 -10 -10 -5 0 -10 5 -10 10 0 6 5 10 10 10 6
0 10 -4 10 -10z m-170 -20 c0 -5 -7 -10 -15 -10 -8 0 -15 5 -15 10 0 6 7 10
15 10 8 0 15 -4 15 -10z m130 0 c0 -5 -7 -10 -15 -10 -8 0 -15 5 -15 10 0 6 7
10 15 10 8 0 15 -4 15 -10z m1790 -45 c0 -8 -7 -15 -15 -15 -9 0 -12 6 -9 15
4 8 10 15 15 15 5 0 9 -7 9 -15z m-67 -4 c4 -1 7 -7 7 -15 0 -8 5 -16 10 -18
6 -1 -17 -3 -50 -3 -33 0 -55 2 -50 3 6 2 10 10 10 17 0 16 16 22 45 19 11 -1
23 -3 28 -3z m607 -19 c0 -8 -37 -42 -45 -42 -9 0 -5 21 8 35 13 15 37 20 37
7z m-104 -52 c8 0 14 -4 14 -10 0 -5 -7 -10 -15 -10 -8 0 -15 2 -15 4 0 2 -2
10 -3 18 -2 7 -2 10 0 6 3 -5 11 -8 19 -8z m-26 -34 c0 -10 -44 -36 -62 -36
-4 0 -8 7 -8 15 0 8 -5 15 -12 15 -6 0 -9 2 -6 5 3 3 18 1 33 -5 24 -9 27 -8
22 9 -3 14 0 17 14 14 11 -3 19 -10 19 -17z m-6430 -1 c0 -8 -7 -15 -15 -15
-8 0 -15 7 -15 15 0 8 7 15 15 15 8 0 15 -7 15 -15z m40 -20 c0 -8 -7 -15 -15
-15 -8 0 -15 7 -15 15 0 8 7 15 15 15 8 0 15 -7 15 -15z m6710 -6 c0 -14 -25
-39 -39 -39 -16 0 -14 11 6 32 18 20 33 24 33 7z m-6670 -14 c0 -8 -7 -15 -15
-15 -8 0 -15 7 -15 15 0 8 7 15 15 15 8 0 15 -7 15 -15z m6270 0 c0 -8 -7 -15
-15 -15 -8 0 -15 7 -15 15 0 8 7 15 15 15 8 0 15 -7 15 -15z m-6225 -14 c7
-12 -12 -24 -25 -16 -11 7 -4 25 10 25 5 0 11 -4 15 -9z m6175 -6 c0 -8 -4
-15 -10 -15 -5 0 -10 7 -10 15 0 8 5 15 10 15 6 0 10 -7 10 -15z m-6107 -15
c-3 -12 -12 -20 -21 -18 -25 5 -25 26 0 31 13 2 24 5 25 6 0 0 -1 -8 -4 -19z
m6057 -6 c0 -20 -23 -17 -37 4 -10 17 -8 18 13 14 13 -2 24 -11 24 -18z
m-5987 -1 c-7 -2 -13 -11 -13 -19 0 -8 -7 -14 -15 -14 -21 0 -19 28 3 33 23 6
40 7 25 0z m5903 -3 c15 0 24 -6 24 -15 0 -10 -10 -15 -30 -15 -19 0 -30 5
-30 14 0 8 -3 16 -7 19 -5 2 -2 2 5 0 8 -1 25 -3 38 -3z m504 -6 c0 -10 -28
-34 -39 -34 -17 0 -13 18 7 29 19 12 32 14 32 5z m-6317 -28 c3 -8 1 -17 -6
-19 -20 -6 -47 4 -47 19 0 19 46 18 53 0z m5757 -1 c0 -10 -10 -15 -30 -15
-20 0 -30 5 -30 15 0 10 10 15 30 15 20 0 30 -5 30 -15z m-162 -5 c70 0 75 -1
51 -13 -29 -16 -105 -28 -125 -20 -8 3 -14 11 -14 18 0 7 -3 15 -7 18 -5 2 -2
2 5 0 8 -1 48 -3 90 -3z m-5410 -17 c-3 -15 -13 -17 -58 -15 -30 2 -63 10 -74
18 -18 13 -12 14 58 14 68 0 77 -2 74 -17z m6066 2 c-6 -16 -24 -21 -24 -7 0
11 11 22 21 22 5 0 6 -7 3 -15z m-6701 -37 c31 -15 36 -38 8 -38 -11 0 -28 -3
-38 -6 -15 -5 -15 -4 -3 5 12 8 12 13 2 23 -27 27 -12 35 31 16z m6637 -4 c0
-17 -22 -14 -28 4 -2 7 3 12 12 12 9 0 16 -7 16 -16z m-40 -19 c0 -8 -4 -15
-9 -15 -13 0 -22 16 -14 24 11 11 23 6 23 -9z m-6530 -19 c0 -7 -9 -16 -20
-19 -17 -4 -18 -2 -9 14 11 22 29 25 29 5z m6490 -1 c0 -8 5 -15 12 -15 6 0 9
-2 7 -5 -3 -2 -15 -2 -27 2 -25 6 -30 33 -7 33 8 0 15 -7 15 -15z m-6450 -20
c0 -8 -4 -15 -10 -15 -5 0 -10 7 -10 15 0 8 5 15 10 15 6 0 10 -7 10 -15z
m6409 -4 c9 -16 8 -18 -9 -14 -11 3 -20 12 -20 19 0 20 18 17 29 -5z m-6349
-16 c0 -8 -9 -15 -20 -15 -11 0 -20 7 -20 15 0 8 9 15 20 15 11 0 20 -7 20
-15z m6285 -5 c-3 -5 -10 -10 -16 -10 -5 0 -9 5 -9 10 0 6 7 10 16 10 8 0 12
-4 9 -10z m-6225 -15 c0 -8 -9 -15 -20 -15 -11 0 -20 7 -20 15 0 8 9 15 20 15
11 0 20 -7 20 -15z m6180 0 c0 -8 -7 -15 -15 -15 -8 0 -15 7 -15 15 0 8 7 15
15 15 8 0 15 -7 15 -15z m-6112 -22 c2 -8 -6 -13 -22 -13 -14 0 -26 -5 -26
-12 0 -6 -3 -9 -6 -6 -3 4 0 16 6 28 12 22 40 24 48 3z m6050 -1 c2 -7 -7 -12
-23 -12 -24 0 -26 2 -15 15 14 17 31 16 38 -3z m-5970 -19 c2 -9 -8 -13 -32
-13 -21 0 -36 -5 -36 -12 0 -6 -3 -9 -6 -6 -3 4 0 16 6 28 12 23 60 25 68 3z
m5892 -4 c7 -11 9 -23 6 -27 -3 -3 -6 0 -6 6 0 7 -12 12 -26 12 -22 0 -25 2
-14 15 17 20 27 19 40 -6z m-5791 -5 c46 -10 38 -24 -14 -24 -42 0 -54 7 -38
23 8 9 13 9 52 1z m5679 -11 c2 -9 -7 -13 -27 -13 -31 0 -42 14 -18 23 19 8
40 3 45 -10z"/>
</g>
</svg>
